{
.appVersion = "1230";
DisplayStrings = (
"/__horn/uhorn",
"/uhornacute/uhorndotbelow/uhorngrave/uhornhookabove/uhorntilde",
"/ohorn/ohornacute/ohorndotbelow/ohorngrave/ohornhookabove/ohorntilde",
"h/uhorntilde ng",
g
);
customParameters = (
{
name = fsType;
value = (
);
},
{
name = licenseURL;
value = "http://scripts.sil.org/OFL";
},
{
name = license;
value = "This Font Software is licensed under the SIL Open Font License, Version 1.1. This license is available with a FAQ at: http://scripts.sil.org/OFL";
},
{
name = trademark;
value = "Public Sans is based on Libre Franklin, which is a trademark of Impallari Type.";
},
{
name = description;
value = "Libre Franklin is a reinterpretation and expansion of the 1912 Morris Fuller Benton￢ﾀﾙs classic.";
},
{
name = vendorID;
value = IMPA;
},
{
name = note;
value = "Based on Libre Franklin\012\012";
},
{
name = vsuffix;
value = "";
},
{
name = Axes;
value = (
{
Name = Weight;
Tag = wght;
}
);
}
);
date = "2018-10-05 14:56:17 +0000";
designer = "Pablo Impallari, Rodrigo Fuenzalida (Modified by Dan O. Williams)";
designerURL = "https://designsystem.digital.gov";
familyName = "Public Sans";
featurePrefixes = (
{
automatic = 1;
code = "languagesystem DFLT dflt;\012languagesystem latn dflt;\012languagesystem latn CAT;\012languagesystem latn ROM;\012languagesystem latn MOL;\012languagesystem latn KAZ;\012languagesystem latn TAT;\012languagesystem latn TRK;\012languagesystem latn CRT;\012languagesystem latn AZE;\012";
name = Languagesystems;
}
);
features = (
{
automatic = 1;
code = "feature locl;\012feature subs;\012feature sinf;\012feature sups;\012feature numr;\012feature dnom;\012feature frac;\012feature ordn;\012feature lnum;\012feature pnum;\012feature tnum;\012feature onum;\012feature salt;\012feature ss01;\012";
name = aalt;
},
{
automatic = 1;

glyphs = (
{
glyphname = A;
lastChange = "2019-04-23 05:05:25 +0000";
layers = (
{
anchors = (
{
name = bottom;
position = "{655, 0}";
},
{
name = ogonek;
position = "{1317, 10}";
},
{
name = top;
position = "{875, 1446}";
}
);
background = {
anchors = (
{
name = ogonek;
position = "{1485, 18}";
},
{
name = top;
position = "{783, 1484}";
}
);
paths = (
{
closed = 1;
nodes = (
"383 0 LINE SMOOTH",
"411 0 OFFCURVE",
"425 14 OFFCURVE",
"431 30 CURVE SMOOTH",
"513 266 LINE SMOOTH",
"517 280 OFFCURVE",
"527 288 OFFCURVE",
"543 288 CURVE SMOOTH",
"967 288 LINE SMOOTH",
"987 288 OFFCURVE",
"991 278 OFFCURVE",
"997 264 CURVE SMOOTH",
"1075 34 LINE SMOOTH",
"1083 8 OFFCURVE",
"1099 0 OFFCURVE",
"1119 0 CURVE SMOOTH",
"1511 0 LINE SMOOTH",
"1541 0 OFFCURVE",
"1549 40 OFFCURVE",
"1539 68 CURVE SMOOTH",
"1059 1430 LINE SMOOTH",
"1047 1462 OFFCURVE",
"1021 1484 OFFCURVE",
"987 1484 CURVE SMOOTH",
"593 1484 LINE SMOOTH",
"557 1484 OFFCURVE",
"545 1470 OFFCURVE",
"533 1438 CURVE SMOOTH",
"49 74 LINE SMOOTH",
"33 30 OFFCURVE",
"49 0 OFFCURVE",
"79 0 CURVE SMOOTH"
);
},
{
closed = 1;
nodes = (
"615 628 OFFCURVE",
"609 644 OFFCURVE",
"619 670 CURVE SMOOTH",
"741 1010 LINE SMOOTH",
"745 1024 OFFCURVE",
"759 1024 OFFCURVE",
"765 1010 CURVE SMOOTH",
"885 668 LINE SMOOTH",
"893 642 OFFCURVE",
"889 628 OFFCURVE",
"867 628 CURVE SMOOTH",
"639 628 LINE SMOOTH"
);
}
);
};
layerId = "258ED206-D907-4350-8EBA-CBDDA1C16BF7";
paths = (
{
closed = 1;
nodes = (
"333 0 LINE",
"473 280 LINE",
"927 280 LINE",
"979 0 LINE",
"1361 0 LINE",
"1071 1446 LINE",
"677 1446 LINE",
"-53 0 LINE"
);
},
{
closed = 1;
nodes = (
"819 1074 LINE",
"889 612 LINE",
"605 612 LINE"
);
}
);
width = 1454;
},
{
anchors = (
{
name = bottom;
position = "{574, 0}";
},
{
name = ogonek;
position = "{1112, 24}";
},
{
name = top;
position = "{778, 1446}";
}
);
background = {
anchors = (
{
name = ogonek;
position = "{1172, 22}";
},
{
name = top;
position = "{594, 1484}";
}
);
paths = (
{
closed = 1;
nodes = (
"64 0 LINE SMOOTH",
"76 0 OFFCURVE",
"84 4 OFFCURVE",
"86 14 CURVE SMOOTH",
"252 462 LINE SMOOTH",
"256 472 OFFCURVE",
"260 476 OFFCURVE",
"272 476 CURVE SMOOTH",
"916 476 LINE SMOOTH",
"928 476 OFFCURVE",
"932 472 OFFCURVE",
"936 462 CURVE SMOOTH",
"1098 16 LINE SMOOTH",
"1102 4 OFFCURVE",
"1110 0 OFFCURVE",
"1124 0 CURVE SMOOTH",
"1172 0 LINE SMOOTH",
"1186 0 OFFCURVE",
"1192 8 OFFCURVE",
"1188 20 CURVE SMOOTH",
"664 1464 LINE SMOOTH",
"660 1478 OFFCURVE",
"648 1484 OFFCURVE",
"628 1484 CURVE SMOOTH",
"562 1484 LINE SMOOTH",
"544 1484 OFFCURVE",
"536 1478 OFFCURVE",
"530 1462 CURVE SMOOTH",
"0 18 LINE SMOOTH",
"-4 6 OFFCURVE",
"2 0 OFFCURVE",
"14 0 CURVE SMOOTH"
);
},
{
closed = 1;
nodes = (
"288 556 OFFCURVE",
"284 558 OFFCURVE",
"290 572 CURVE SMOOTH",
"580 1354 LINE SMOOTH",
"590 1382 OFFCURVE",
"600 1382 OFFCURVE",
"610 1356 CURVE SMOOTH",
"896 576 LINE SMOOTH",
"900 564 OFFCURVE",
"898 556 OFFCURVE",
"882 556 CURVE SMOOTH",
"300 556 LINE SMOOTH"
);
}
);
};
guideLines = (
{
angle = 69.4967;
position = "{-347, 110}";
},
{
angle = 110.0797;
position = "{12, 110}";
}
);
layerId = "91AB5BCA-6A50-42DA-B2F7-8181BF189245";
paths = (
{
closed = 1;
nodes = (
"114 0 LINE",
"334 456 LINE",
"944 456 LINE",
"1032 0 LINE",
"1111 0 LINE",
"829 1446 LINE",
"727 1446 LINE",
"37 0 LINE"
);
},
{
closed = 1;
nodes = (
"769 1362 LINE",
"928 542 LINE",
"372 542 LINE"
);
}
);
width = 1294;
}
);
leftKerningGroup = A;
rightKerningGroup = A;
unicode = 0041;
},
{
glyphname = Aringacute;
lastChange = "2019-04-23 05:05:32 +0000";
layers = (
{
background = {
paths = (
{
closed = 1;
nodes = (
"428 6 LINE",
"528 294 LINE",
"996 294 LINE",
"1094 6 LINE",
"1570 6 LINE",
"1046 1490 LINE",
"556 1490 LINE",
"30 6 LINE"
);
},
{
closed = 1;
nodes = (
"760 1048 LINE",
"906 634 LINE",
"612 634 LINE"
);
},
{
closed = 1;
nodes = (
"922 1386 OFFCURVE",
"1020 1468 OFFCURVE",
"1020 1592 CURVE SMOOTH",
"1020 1712 OFFCURVE",
"922 1798 OFFCURVE",
"800 1798 CURVE SMOOTH",
"680 1798 OFFCURVE",
"580 1714 OFFCURVE",
"580 1596 CURVE SMOOTH",
"580 1470 OFFCURVE",
"678 1386 OFFCURVE",
"800 1386 CURVE SMOOTH"
);
},
{
closed = 1;
nodes = (
"746 1492 OFFCURVE",
"700 1538 OFFCURVE",
"700 1590 CURVE SMOOTH",
"700 1644 OFFCURVE",
"746 1684 OFFCURVE",
"798 1684 CURVE SMOOTH",
"852 1684 OFFCURVE",
"894 1644 OFFCURVE",
"894 1590 CURVE SMOOTH",
"894 1538 OFFCURVE",
"852 1492 OFFCURVE",
"798 1492 CURVE SMOOTH"
);
},
{
closed = 1;
nodes = (
"886 1750 LINE",
"936 1870 LINE SMOOTH",
"948 1898 OFFCURVE",
"940 1928 OFFCURVE",
"908 1928 CURVE SMOOTH",
"818 1928 LINE SMOOTH",
"780 1928 OFFCURVE",
"754 1916 OFFCURVE",
"742 1866 CURVE SMOOTH",
"714 1750 LINE"
);
}
);
};
components = (
{
name = A;
},
{
name = _ringacute;
transform = "{1, 0, 0, 1, 13, 0}";
}
);
layerId = "258ED206-D907-4350-8EBA-CBDDA1C16BF7";
width = 1454;
},
{
background = {
paths = (
{
closed = 1;
nodes = (
"876 1714 OFFCURVE",
"788 1800 OFFCURVE",
"676 1800 CURVE SMOOTH",
"566 1800 OFFCURVE",
"476 1714 OFFCURVE",
"476 1608 CURVE SMOOTH",
"476 1492 OFFCURVE",
"564 1404 OFFCURVE",
"676 1404 CURVE SMOOTH",
"788 1404 OFFCURVE",
"876 1490 OFFCURVE",
"876 1604 CURVE SMOOTH"
);
},
{
closed = 1;
nodes = (
"790 1540 OFFCURVE",
"740 1484 OFFCURVE",
"674 1484 CURVE SMOOTH",
"612 1484 OFFCURVE",
"556 1540 OFFCURVE",
"556 1602 CURVE SMOOTH",
"556 1672 OFFCURVE",
"612 1720 OFFCURVE",
"674 1720 CURVE SMOOTH",
"740 1720 OFFCURVE",
"790 1672 OFFCURVE",
"790 1602 CURVE SMOOTH"
);
},
{
closed = 1;
nodes = (
"628 1484 OFFCURVE",
"620 1478 OFFCURVE",
"614 1462 CURVE SMOOTH",
"120 18 LINE",
"116 8 OFFCURVE",
"122 0 OFFCURVE",
"134 0 CURVE SMOOTH",
"178 0 LINE SMOOTH",
"190 0 OFFCURVE",
"196 4 OFFCURVE",
"200 14 CURVE",
"354 462 LINE SMOOTH",
"358 472 OFFCURVE",
"362 476 OFFCURVE",
"374 476 CURVE SMOOTH",
"966 476 LINE SMOOTH",
"978 476 OFFCURVE",
"982 472 OFFCURVE",
"986 462 CURVE SMOOTH",
"1138 16 LINE SMOOTH",
"1142 4 OFFCURVE",
"1148 0 OFFCURVE",
"1162 0 CURVE SMOOTH",
"1216 0 LINE SMOOTH",
"1230 0 OFFCURVE",
"1236 8 OFFCURVE",
"1232 20 CURVE SMOOTH",
"746 1464 LINE",
"742 1478 OFFCURVE",
"730 1484 OFFCURVE",
"710 1484 CURVE SMOOTH",
"646 1484 LINE SMOOTH"
);
},
{
closed = 1;
nodes = (
"954 564 OFFCURVE",
"952 556 OFFCURVE",
"936 556 CURVE SMOOTH",
"398 556 LINE SMOOTH",
"386 556 OFFCURVE",
"384 558 OFFCURVE",
"390 572 CURVE SMOOTH",
"656 1354 LINE SMOOTH",
"666 1382 OFFCURVE",
"678 1382 OFFCURVE",
"686 1356 CURVE SMOOTH",
"950 576 LINE SMOOTH"
);
},
{
closed = 1;
nodes = (
"696 1928 OFFCURVE",
"686 1920 OFFCURVE",
"682 1902 CURVE SMOOTH",
"646 1750 LINE",
"722 1750 LINE",
"784 1896 LINE SMOOTH",
"792 1916 OFFCURVE",
"786 1928 OFFCURVE",
"764 1928 CURVE SMOOTH",
"718 1928 LINE SMOOTH"
);
}
);
};
components = (
{
name = A;
},
{
name = _ringacute;
transform = "{1, 0, 0, 1, -32, 0}";
}
);
layerId = "91AB5BCA-6A50-42DA-B2F7-8181BF189245";
width = 1294;
}
);
leftKerningGroup = A;
leftMetricsKey = A;
rightKerningGroup = A;
rightMetricsKey = A;
unicode = 01FA;
},
{
glyphname = AE;
lastChange = "2019-04-22 13:43:20 +0000";
layers = (
{
anchors = (
{
name = top;
position = "{1519, 1446}";
}
);
background = {
anchors = (
{
name = top;
position = "{1425, 1484}";
}
);
paths = (
{
closed = 1;
nodes = (
"1477 328 LINE SMOOTH",
"1459 328 OFFCURVE",
"1453 334 OFFCURVE",
"1453 356 CURVE SMOOTH",
"1453 556 LINE SMOOTH",
"1453 572 OFFCURVE",
"1465 584 OFFCURVE",
"1485 584 CURVE SMOOTH",
"1855 584 LINE SMOOTH",
"1881 584 OFFCURVE",
"1891 600 OFFCURVE",
"1891 618 CURVE SMOOTH",
"1891 866 LINE SMOOTH",
"1891 892 OFFCURVE",
"1877 906 OFFCURVE",
"1849 906 CURVE SMOOTH",
"1489 906 LINE SMOOTH",
"1469 906 OFFCURVE",
"1453 920 OFFCURVE",
"1453 948 CURVE SMOOTH",
"1453 1118 LINE SMOOTH",
"1453 1144 OFFCURVE",
"1469 1156 OFFCURVE",
"1499 1156 CURVE SMOOTH",
"2099 1156 LINE SMOOTH",
"2135 1156 OFFCURVE",
"2151 1178 OFFCURVE",
"2151 1210 CURVE SMOOTH",
"2153 1442 LINE SMOOTH",
"2153 1468 OFFCURVE",
"2141 1484 OFFCURVE",
"2117 1484 CURVE SMOOTH",
"819 1484 LINE SMOOTH",
"785 1484 OFFCURVE",
"769 1470 OFFCURVE",
"753 1438 CURVE SMOOTH",
"45 74 LINE SMOOTH",
"21 30 OFFCURVE",
"33 0 OFFCURVE",
"63 0 CURVE SMOOTH",
"367 0 LINE SMOOTH",
"395 0 OFFCURVE",
"411 14 OFFCURVE",
"419 30 CURVE SMOOTH",
"537 266 LINE",
"543 280 OFFCURVE",
"555 288 OFFCURVE",
"571 288 CURVE SMOOTH",
"973 288 LINE SMOOTH",
"993 288 OFFCURVE",
"999 278 OFFCURVE",
"999 260 CURVE SMOOTH",
"999 50 LINE SMOOTH",
"999 16 OFFCURVE",
"1013 0 OFFCURVE",
"1053 0 CURVE SMOOTH",
"2123 0 LINE SMOOTH",
"2157 0 OFFCURVE",
"2171 20 OFFCURVE",
"2171 44 CURVE SMOOTH",
"2171 290 LINE SMOOTH",
"2171 318 OFFCURVE",
"2155 328 OFFCURVE",
"2127 328 CURVE SMOOTH"
);
},
{
closed = 1;
nodes = (
"727 628 LINE SMOOTH",
"703 628 OFFCURVE",
"699 644 OFFCURVE",
"715 670 CURVE",
"919 1074 LINE SMOOTH",
"951 1134 OFFCURVE",
"999 1130 OFFCURVE",
"999 1070 CURVE SMOOTH",
"999 668 LINE SMOOTH",
"999 642 OFFCURVE",
"985 628 OFFCURVE",
"961 628 CURVE SMOOTH"
);
}
);
};
layerId = "258ED206-D907-4350-8EBA-CBDDA1C16BF7";
paths = (
{
closed = 1;
nodes = (
"313 0 LINE",
"491 280 LINE",
"929 280 LINE",
"887 0 LINE",
"2023 0 LINE",
"2071 320 LINE",
"1377 320 LINE",
"1415 570 LINE",
"1837 570 LINE",
"1885 884 LINE",
"1461 884 LINE",
"1499 1128 LINE",
"2175 1128 LINE",
"2225 1446 LINE",
"891 1446 LINE",
"-73 0 LINE"
);
},
{
closed = 1;
nodes = (
"1069 1202 LINE",
"979 612 LINE",
"683 612 LINE"
);
}
);
width = 2209;
},
{
anchors = (
{
name = top;
position = "{1265, 1446}";
}
);
background = {
anchors = (
{
name = top;
position = "{1231, 1484}";
}
);
paths = (
{
closed = 1;
nodes = (
"969 80 LINE SMOOTH",
"955 80 OFFCURVE",
"951 82 OFFCURVE",
"951 98 CURVE SMOOTH",
"951 692 LINE SMOOTH",
"951 708 OFFCURVE",
"955 710 OFFCURVE",
"969 710 CURVE SMOOTH",
"1505 710 LINE SMOOTH",
"1517 710 OFFCURVE",
"1521 712 OFFCURVE",
"1521 724 CURVE SMOOTH",
"1521 776 LINE SMOOTH",
"1521 786 OFFCURVE",
"1517 790 OFFCURVE",
"1507 790 CURVE SMOOTH",
"969 790 LINE SMOOTH",
"955 790 OFFCURVE",
"951 792 OFFCURVE",
"951 804 CURVE SMOOTH",
"951 1386 LINE SMOOTH",
"951 1402 OFFCURVE",
"955 1404 OFFCURVE",
"969 1404 CURVE SMOOTH",
"1645 1404 LINE SMOOTH",
"1657 1404 OFFCURVE",
"1661 1406 OFFCURVE",
"1661 1418 CURVE SMOOTH",
"1661 1470 LINE SMOOTH",
"1661 1480 OFFCURVE",
"1657 1484 OFFCURVE",
"1647 1484 CURVE SMOOTH",
"837 1484 LINE SMOOTH",
"819 1484 OFFCURVE",
"809 1478 OFFCURVE",
"801 1462 CURVE",
"-25 18 LINE SMOOTH",
"-31 8 OFFCURVE",
"-27 0 OFFCURVE",
"-15 0 CURVE SMOOTH",
"35 0 LINE SMOOTH",
"47 0 OFFCURVE",
"53 4 OFFCURVE",
"59 14 CURVE SMOOTH",
"317 462 LINE SMOOTH",
"323 472 OFFCURVE",
"329 476 OFFCURVE",
"341 476 CURVE SMOOTH",
"849 476 LINE SMOOTH",
"855 476 OFFCURVE",
"859 472 OFFCURVE",
"859 466 CURVE SMOOTH",
"859 20 LINE SMOOTH",
"859 4 OFFCURVE",
"863 0 OFFCURVE",
"877 0 CURVE SMOOTH",
"1677 0 LINE SMOOTH",
"1687 0 OFFCURVE",
"1691 4 OFFCURVE",
"1691 14 CURVE SMOOTH",
"1691 66 LINE SMOOTH",
"1691 78 OFFCURVE",
"1687 80 OFFCURVE",
"1675 80 CURVE SMOOTH"
);
},
{
closed = 1;
nodes = (
"379 556 LINE SMOOTH",
"367 556 OFFCURVE",
"365 558 OFFCURVE",
"373 572 CURVE SMOOTH",
"829 1354 LINE SMOOTH",
"845 1382 OFFCURVE",
"857 1382 OFFCURVE",
"859 1356 CURVE",
"859 574 LINE SMOOTH",
"859 564 OFFCURVE",
"855 556 OFFCURVE",
"843 556 CURVE SMOOTH"
);
}
);
};
layerId = "91AB5BCA-6A50-42DA-B2F7-8181BF189245";
paths = (
{
closed = 1;
nodes = (
"3 0 LINE",
"313 464 LINE",
"795 464 LINE",
"729 0 LINE",
"1475 0 LINE",
"1485 78 LINE",
"821 78 LINE",
"907 692 LINE",
"1419 692 LINE",
"1429 770 LINE",
"919 770 LINE",
"1003 1368 LINE",
"1641 1368 LINE",
"1651 1446 LINE",
"889 1446 LINE",
"-73 0 LINE"
);
},
{
closed = 1;
nodes = (
"921 1370 LINE",
"805 542 LINE",
"359 542 LINE"
);
}
);
width = 1688;
}
);
leftKerningGroup = AE;
rightKerningGroup = E;
rightMetricsKey = E;
unicode = 00C6;
},
{
glyphname = B;
lastChange = "2019-04-23 05:05:25 +0000";
layers = (
{
background = {
paths = (
{
closed = 1;
nodes = (
"815 0 LINE SMOOTH",
"1247 0 OFFCURVE",
"1453 130 OFFCURVE",
"1453 404 CURVE SMOOTH",
"1453 574 OFFCURVE",
"1375 676 OFFCURVE",
"1155 758 CURVE SMOOTH",
"1149 760 OFFCURVE",
"1149 770 OFFCURVE",
"1155 772 CURVE SMOOTH",
"1355 864 OFFCURVE",
"1417 954 OFFCURVE",
"1417 1092 CURVE SMOOTH",
"1417 1350 OFFCURVE",
"1197 1484 OFFCURVE",
"783 1484 CURVE SMOOTH",
"187 1484 LINE SMOOTH",
"157 1484 OFFCURVE",
"137 1462 OFFCURVE",
"137 1432 CURVE SMOOTH",
"137 44 LINE SMOOTH",
"137 20 OFFCURVE",
"155 0 OFFCURVE",
"183 0 CURVE SMOOTH"
);
},
{
closed = 1;
nodes = (
"599 300 OFFCURVE",
"591 314 OFFCURVE",
"591 344 CURVE SMOOTH",
"591 554 LINE SMOOTH",
"591 584 OFFCURVE",
"603 596 OFFCURVE",
"637 596 CURVE SMOOTH",
"815 596 LINE SMOOTH",
"915 596 OFFCURVE",
"981 536 OFFCURVE",
"981 454 CURVE SMOOTH",
"981 376 OFFCURVE",
"921 300 OFFCURVE",
"805 300 CURVE SMOOTH",
"625 300 LINE SMOOTH"
);
},
{
closed = 1;
nodes = (
"599 904 OFFCURVE",
"591 918 OFFCURVE",
"591 948 CURVE SMOOTH",
"591 1144 LINE SMOOTH",
"591 1174 OFFCURVE",
"603 1184 OFFCURVE",
"637 1184 CURVE SMOOTH",
"801 1184 LINE SMOOTH",
"895 1184 OFFCURVE",
"969 1128 OFFCURVE",
"969 1040 CURVE SMOOTH",
"969 962 OFFCURVE",
"909 904 OFFCURVE",
"815 904 CURVE SMOOTH",
"625 904 LINE SMOOTH"
);
}
);
};
layerId = "258ED206-D907-4350-8EBA-CBDDA1C16BF7";
paths = (
{
closed = 1;
nodes = (
"673 0 LINE SMOOTH",
"1089 0 OFFCURVE",
"1269 124 OFFCURVE",
"1311 394 CURVE",
"1327 502 OFFCURVE",
"1339 668 OFFCURVE",
"1097 744 CURVE",
"1287 832 OFFCURVE",
"1359 930 OFFCURVE",
"1379 1064 CURVE SMOOTH",
"1415 1310 OFFCURVE",
"1261 1446 OFFCURVE",
"861 1446 CURVE SMOOTH",
"285 1446 LINE",
"67 0 LINE"
);
},
{
closed = 1;
nodes = (
"543 582 LINE",
"785 582 LINE",
"881 582 OFFCURVE",
"937 522 OFFCURVE",
"925 442 CURVE SMOOTH",
"913 366 OFFCURVE",
"843 292 OFFCURVE",
"731 292 CURVE",
"499 292 LINE"
);
},
{
closed = 1;
nodes = (
"629 1154 LINE",
"857 1154 LINE SMOOTH",
"949 1154 OFFCURVE",
"1013 1100 OFFCURVE",
"999 1014 CURVE SMOOTH",
"987 938 OFFCURVE",
"921 882 OFFCURVE",
"831 882 CURVE SMOOTH",
"587 882 LINE"
);
}
);
width = 1408;
},
{
background = {
paths = (
{
closed = 1;
nodes = (
"533 0 LINE SMOOTH",
"883 0 OFFCURVE",
"1089 130 OFFCURVE",
"1089 394 CURVE SMOOTH",
"1089 594 OFFCURVE",
"971 712 OFFCURVE",
"791 746 CURVE SMOOTH",
"779 748 OFFCURVE",
"779 760 OFFCURVE",
"791 764 CURVE SMOOTH",
"967 818 OFFCURVE",
"1053 934 OFFCURVE",
"1053 1102 CURVE SMOOTH",
"1053 1350 OFFCURVE",
"859 1484 OFFCURVE",
"527 1484 CURVE SMOOTH",
"117 1484 LINE SMOOTH",
"103 1484 OFFCURVE",
"99 1480 OFFCURVE",
"99 1464 CURVE SMOOTH",
"99 16 LINE SMOOTH",
"99 6 OFFCURVE",
"105 0 OFFCURVE",
"115 0 CURVE SMOOTH"
);
},
{
closed = 1;
nodes = (
"195 80 OFFCURVE",
"191 86 OFFCURVE",
"191 100 CURVE SMOOTH",
"191 692 LINE SMOOTH",
"191 706 OFFCURVE",
"197 710 OFFCURVE",
"213 710 CURVE SMOOTH",
"551 710 LINE SMOOTH",
"801 710 OFFCURVE",
"993 622 OFFCURVE",
"993 382 CURVE SMOOTH",
"993 164 OFFCURVE",
"839 80 OFFCURVE",
"523 80 CURVE SMOOTH",
"205 80 LINE SMOOTH"
);
},
{
closed = 1;
nodes = (
"195 790 OFFCURVE",
"191 796 OFFCURVE",
"191 810 CURVE SMOOTH",
"191 1388 LINE SMOOTH",
"191 1400 OFFCURVE",
"197 1404 OFFCURVE",
"209 1404 CURVE SMOOTH",
"519 1404 LINE SMOOTH",
"789 1404 OFFCURVE",
"957 1308 OFFCURVE",
"957 1092 CURVE SMOOTH",
"957 848 OFFCURVE",
"737 790 OFFCURVE",
"551 790 CURVE SMOOTH",
"205 790 LINE SMOOTH"
);
}
);
};
layerId = "91AB5BCA-6A50-42DA-B2F7-8181BF189245";
paths = (
{
closed = 1;
nodes = (
"519 0 LINE",
"833 0 OFFCURVE",
"1032 126 OFFCURVE",
"1068 382 CURVE",
"1096 576 OFFCURVE",
"1010 698 OFFCURVE",
"822 733 CURVE",
"1023 793 OFFCURVE",
"1108 906 OFFCURVE",
"1132 1068 CURVE SMOOTH",
"1166 1312 OFFCURVE",
"1010 1446 OFFCURVE",
"712 1446 CURVE SMOOTH",
"341 1446 LINE",
"137 0 LINE"
);
},
{
closed = 1;
nodes = (
"307 690 LINE",
"633 690 LINE SMOOTH",
"857 690 OFFCURVE",
"1029 610 OFFCURVE",
"997 378 CURVE SMOOTH",
"967 164 OFFCURVE",
"800 82 OFFCURVE",
"516 82 CURVE",
"221 82 LINE"
);
},
{
closed = 1;
nodes = (
"401 1366 LINE",
"697 1366 LINE SMOOTH",
"941 1366 OFFCURVE",
"1089 1276 OFFCURVE",
"1059 1066 CURVE SMOOTH",
"1027 826 OFFCURVE",
"804 772 OFFCURVE",
"638 772 CURVE SMOOTH",
"317 772 LINE"
);
}
);
width = 1217;
}
);
leftKerningGroup = N;
leftMetricsKey = N;
rightKerningGroup = B;
unicode = 0042;
},
{
glyphname = C;
lastChange = "2019-04-23 05:10:00 +0000";
layers = (
{
anchors = (
{
name = bottom;
position = "{698, 0}";
},
{
name = top;
position = "{916, 1446}";
}
);
background = {
anchors = (
{
name = bottom;
position = "{698, 0}";
},
{
name = top;
position = "{916, 1446}";
}
);
guideLines = (
{
angle = -183.559;
position = "{514, 299}";
}
);
paths = (
{
closed = 1;
nodes = (
"1154 -20 OFFCURVE",
"1318 240 OFFCURVE",
"1404 540 CURVE",
"1000 540 LINE",
"958 406 OFFCURVE",
"860 292 OFFCURVE",
"728 292 CURVE SMOOTH",
"610 292 OFFCURVE",
"531 372 OFFCURVE",
"531 574 CURVE SMOOTH",
"531 818 OFFCURVE",
"606 1154 OFFCURVE",
"858 1154 CURVE SMOOTH",
"992 1154 OFFCURVE",
"1058 1070 OFFCURVE",
"1060 936 CURVE",
"1464 936 LINE",
"1464 946 OFFCURVE",
"1465 955 OFFCURVE",
"1465 964 CURVE SMOOTH",
"1465 1261 OFFCURVE",
"1252 1466 OFFCURVE",
"920 1466 CURVE SMOOTH",
"385 1466 OFFCURVE",
"111 1025 OFFCURVE",
"111 593 CURVE SMOOTH",
"111 231 OFFCURVE",
"327 -20 OFFCURVE",
"694 -20 CURVE SMOOTH"
);
}
);
};
guideLines = (
{
angle = -183.559;
position = "{514, 299}";
}
);
layerId = "258ED206-D907-4350-8EBA-CBDDA1C16BF7";
paths = (
{
closed = 1;
nodes = (
"1154 -20 OFFCURVE",
"1318 240 OFFCURVE",
"1404 540 CURVE",
"1000 540 LINE",
"958 406 OFFCURVE",
"860 292 OFFCURVE",
"728 292 CURVE SMOOTH",
"610 292 OFFCURVE",
"531 372 OFFCURVE",
"531 574 CURVE SMOOTH",
"531 818 OFFCURVE",
"606 1154 OFFCURVE",
"858 1154 CURVE SMOOTH",
"992 1154 OFFCURVE",
"1058 1070 OFFCURVE",
"1060 936 CURVE",
"1464 936 LINE",
"1464 1272 OFFCURVE",
"1255 1466 OFFCURVE",
"920 1466 CURVE SMOOTH",
"385 1466 OFFCURVE",
"111 1025 OFFCURVE",
"111 593 CURVE SMOOTH",
"111 231 OFFCURVE",
"327 -20 OFFCURVE",
"694 -20 CURVE SMOOTH"
);
}
);
width = 1485;
},
{
anchors = (
{
name = bottom;
position = "{616, 0}";
},
{
name = top;
position = "{806, 1446}";
}
);
background = {
anchors = (
{
name = bottom;
position = "{616, 0}";
},
{
name = top;
position = "{806, 1446}";
}
);
guideLines = (
{
angle = 90;
position = "{731, 342}";
}
);
paths = (
{
closed = 1;
nodes = (
"834 -20 OFFCURVE",
"1066 136 OFFCURVE",
"1114 344 CURVE",
"1039 370 LINE",
"969 176 OFFCURVE",
"807 62 OFFCURVE",
"623 62 CURVE SMOOTH",
"356 62 OFFCURVE",
"239 302 OFFCURVE",
"239 578 CURVE SMOOTH",
"239 949 OFFCURVE",
"452 1384 OFFCURVE",
"802 1384 CURVE SMOOTH",
"1028 1384 OFFCURVE",
"1134 1248 OFFCURVE",
"1142 1060 CURVE",
"1223 1070 LINE",
"1231 1278 OFFCURVE",
"1075 1466 OFFCURVE",
"801 1466 CURVE SMOOTH",
"399 1466 OFFCURVE",
"159 989 OFFCURVE",
"159 576 CURVE SMOOTH",
"159 259 OFFCURVE",
"300 -20 OFFCURVE",
"616 -20 CURVE SMOOTH"
);
}
);
};
guideLines = (
{
angle = 90;
position = "{731, 342}";
}
);
layerId = "91AB5BCA-6A50-42DA-B2F7-8181BF189245";
paths = (
{
closed = 1;
nodes = (
"834 -20 OFFCURVE",
"1066 136 OFFCURVE",
"1114 344 CURVE",
"1039 370 LINE",
"969 176 OFFCURVE",
"807 62 OFFCURVE",
"623 62 CURVE SMOOTH",
"356 62 OFFCURVE",
"239 302 OFFCURVE",
"239 578 CURVE SMOOTH",
"239 949 OFFCURVE",
"452 1384 OFFCURVE",
"802 1384 CURVE SMOOTH",
"1028 1384 OFFCURVE",
"1134 1248 OFFCURVE",
"1142 1060 CURVE",
"1223 1070 LINE",
"1231 1278 OFFCURVE",
"1075 1466 OFFCURVE",
"801 1466 CURVE SMOOTH",
"399 1466 OFFCURVE",
"159 989 OFFCURVE",
"159 576 CURVE SMOOTH",
"159 259 OFFCURVE",
"300 -20 OFFCURVE",
"616 -20 CURVE SMOOTH"
);
}
);
width = 1275;
}
);
leftKerningGroup = O;
leftMetricsKey = O;
rightKerningGroup = C;
unicode = 0043;
},
{
glyphname = D;
lastChange = "2019-04-23 05:12:49 +0000";
layers = (
{
anchors = (
{
name = bottom;
position = "{531, 0}";
},
{
name = center;
position = "{781, 724}";
},
{
name = top;
position = "{992, 1446}";
}
);
background = {
anchors = (
{
name = bottom;
position = "{531, 0}";
},
{
name = center;
position = "{781, 724}";
},
{
name = top;
position = "{992, 1446}";
}
);
paths = (
{
closed = 1;
nodes = (
"590 0 LINE SMOOTH",
"1100 0 OFFCURVE",
"1371 295 OFFCURVE",
"1434 706 CURVE SMOOTH",
"1442 758 OFFCURVE",
"1446 808 OFFCURVE",
"1446 856 CURVE SMOOTH",
"1446 1196 OFFCURVE",
"1245 1428 OFFCURVE",
"785 1443 CURVE SMOOTH",
"721 1446 OFFCURVE",
"585 1446 OFFCURVE",
"469 1446 CURVE SMOOTH",
"376 1446 OFFCURVE",
"297 1446 OFFCURVE",
"278 1446 CURVE",
"67 0 LINE"
);
},
{
closed = 1;
nodes = (
"627 1140 LINE",
"776 1140 LINE SMOOTH",
"945 1140 OFFCURVE",
"1046 1044 OFFCURVE",
"1046 854 CURVE SMOOTH",
"1046 824 OFFCURVE",
"1043 791 OFFCURVE",
"1038 756 CURVE SMOOTH",
"988 431 OFFCURVE",
"778 306 OFFCURVE",
"630 306 CURVE SMOOTH",
"501 306 LINE"
);
}
);
};
layerId = "258ED206-D907-4350-8EBA-CBDDA1C16BF7";
paths = (
{
closed = 1;
nodes = (
"590 0 LINE SMOOTH",
"1317 0 OFFCURVE",
"1446 585 OFFCURVE",
"1446 856 CURVE SMOOTH",
"1446 1427 OFFCURVE",
"970 1446 OFFCURVE",
"469 1446 CURVE SMOOTH",
"376 1446 OFFCURVE",
"297 1446 OFFCURVE",
"278 1446 CURVE",
"67 0 LINE"
);
},
{
closed = 1;
nodes = (
"627 1140 LINE",
"776 1140 LINE SMOOTH",
"945 1140 OFFCURVE",
"1046 1044 OFFCURVE",
"1046 854 CURVE SMOOTH",
"1046 564 OFFCURVE",
"863 306 OFFCURVE",
"630 306 CURVE SMOOTH",
"501 306 LINE"
);
}
);
width = 1488;
},
{
anchors = (
{
name = bottom;
position = "{492, 0}";
},
{
name = center;
position = "{648, 724}";
},
{
name = top;
position = "{839, 1446}";
}
);
background = {
anchors = (
{
name = bottom;
position = "{492, 0}";
},
{
name = center;
position = "{648, 724}";
},
{
name = top;
position = "{839, 1446}";
}
);
paths = (
{
closed = 1;
nodes = (
"338 0 LINE SMOOTH",
"826 0 OFFCURVE",
"1085 222 OFFCURVE",
"1157 730 CURVE SMOOTH",
"1166 797 OFFCURVE",
"1171 859 OFFCURVE",
"1171 916 CURVE SMOOTH",
"1171 1273 OFFCURVE",
"985 1442 OFFCURVE",
"559 1444 CURVE SMOOTH",
"451 1444 OFFCURVE",
"345 1446 OFFCURVE",
"341 1446 CURVE",
"140 0 LINE"
);
},
{
closed = 1;
nodes = (
"410 1364 LINE",
"534 1364 LINE SMOOTH",
"890 1364 OFFCURVE",
"1093 1259 OFFCURVE",
"1093 904 CURVE SMOOTH",
"1093 851 OFFCURVE",
"1089 794 OFFCURVE",
"1080 730 CURVE SMOOTH",
"1014 256 OFFCURVE",
"769 82 OFFCURVE",
"339 82 CURVE SMOOTH",
"230 82 LINE"
);
}
);
};
layerId = "91AB5BCA-6A50-42DA-B2F7-8181BF189245";
paths = (
{
closed = 1;
nodes = (
"338 0 LINE SMOOTH",
"970 0 OFFCURVE",
"1171 416 OFFCURVE",
"1171 916 CURVE SMOOTH",
"1171 1273 OFFCURVE",
"985 1442 OFFCURVE",
"559 1444 CURVE SMOOTH",
"451 1444 OFFCURVE",
"345 1446 OFFCURVE",
"341 1446 CURVE",
"140 0 LINE"
);
},
{
closed = 1;
nodes = (
"410 1364 LINE",
"534 1364 LINE SMOOTH",
"890 1364 OFFCURVE",
"1093 1259 OFFCURVE",
"1093 904 CURVE SMOOTH",
"1093 423 OFFCURVE",
"902 82 OFFCURVE",
"339 82 CURVE SMOOTH",
"230 82 LINE"
);
}
);
width = 1261;
}
);
leftKerningGroup = N;
leftMetricsKey = N;
rightKerningGroup = O;
unicode = 0044;
},
{
glyphname = Eth;
lastChange = "2019-04-24 18:08:47 +0000";
layers = (
{
background = {
components = (
{
name = D;
transform = "{1, 0, 0, 1, 73, 0}";
}
);
paths = (
{
closed = 1;
nodes = (
"926 830 OFFCURVE",
"912 846 OFFCURVE",
"890 846 CURVE SMOOTH",
"168 846 LINE SMOOTH",
"144 846 OFFCURVE",
"130 830 OFFCURVE",
"130 802 CURVE SMOOTH",
"130 620 LINE SMOOTH",
"130 586 OFFCURVE",
"142 572 OFFCURVE",
"182 572 CURVE SMOOTH",
"862 572 LINE SMOOTH",
"906 572 OFFCURVE",
"926 586 OFFCURVE",
"926 626 CURVE SMOOTH",
"926 808 LINE SMOOTH"
);
}
);
};
components = (
{
name = D;
transform = "{1, 0, 0, 1, 146, 0}";
}
);
layerId = "258ED206-D907-4350-8EBA-CBDDA1C16BF7";
paths = (
{
closed = 1;
nodes = (
"938 572 LINE",
"978 846 LINE",
"118 846 LINE",
"78 572 LINE"
);
}
);
width = 1634;
},
{
background = {
components = (
{
name = D;
transform = "{1, 0, 0, 1, 16, 0}";
}
);
paths = (
{
closed = 1;
nodes = (
"704 764 OFFCURVE",
"700 770 OFFCURVE",
"692 770 CURVE SMOOTH",
"120 770 LINE SMOOTH",
"110 770 OFFCURVE",
"106 764 OFFCURVE",
"106 752 CURVE SMOOTH",
"106 708 LINE SMOOTH",
"106 694 OFFCURVE",
"110 688 OFFCURVE",
"126 688 CURVE SMOOTH",
"680 688 LINE SMOOTH",
"698 688 OFFCURVE",
"704 694 OFFCURVE",
"704 710 CURVE SMOOTH",
"704 754 LINE SMOOTH"
);
}
);
};
components = (
{
name = D;
transform = "{1, 0, 0, 1, 32, 0}";
}
);
layerId = "91AB5BCA-6A50-42DA-B2F7-8181BF189245";
paths = (
{
closed = 1;
nodes = (
"704 688 LINE",
"704 770 LINE",
"106 770 LINE",
"106 688 LINE"
);
}
);
width = 1293;
}
);
leftKerningGroup = N;
rightKerningGroup = O;
rightMetricsKey = D;
unicode = 00D0;
},
{
glyphname = E;
lastChange = "2019-04-22 13:43:20 +0000";
layers = (
{
anchors = (
{
name = bottom;
position = "{597, 0}";
},
{
name = ogonek;
position = "{1131, 20}";
},
{
name = top;
position = "{795, 1446}";
}
);
background = {
anchors = (
{
name = bottom;
position = "{701, 0}";
},
{
name = ogonek;
position = "{1249, 20}";
},
{
name = top;
position = "{701, 1484}";
}
);
paths = (
{
closed = 1;
nodes = (
"133 50 LINE SMOOTH",
"133 16 OFFCURVE",
"147 0 OFFCURVE",
"187 0 CURVE SMOOTH",
"1257 0 LINE SMOOTH",
"1291 0 OFFCURVE",
"1305 20 OFFCURVE",
"1305 44 CURVE SMOOTH",
"1305 290 LINE SMOOTH",
"1305 318 OFFCURVE",
"1289 328 OFFCURVE",
"1261 328 CURVE SMOOTH",
"611 328 LINE SMOOTH",
"593 328 OFFCURVE",
"587 334 OFFCURVE",
"587 356 CURVE SMOOTH",
"587 556 LINE SMOOTH",
"587 572 OFFCURVE",
"599 584 OFFCURVE",
"619 584 CURVE SMOOTH",
"989 584 LINE SMOOTH",
"1015 584 OFFCURVE",
"1025 600 OFFCURVE",
"1025 618 CURVE SMOOTH",
"1025 866 LINE SMOOTH",
"1025 892 OFFCURVE",
"1011 906 OFFCURVE",
"983 906 CURVE SMOOTH",
"623 906 LINE SMOOTH",
"603 906 OFFCURVE",
"587 920 OFFCURVE",
"587 948 CURVE SMOOTH",
"587 1118 LINE SMOOTH",
"587 1144 OFFCURVE",
"603 1156 OFFCURVE",
"633 1156 CURVE SMOOTH",
"1233 1156 LINE SMOOTH",
"1269 1156 OFFCURVE",
"1285 1178 OFFCURVE",
"1285 1210 CURVE SMOOTH",
"1287 1442 LINE SMOOTH",
"1287 1468 OFFCURVE",
"1275 1484 OFFCURVE",
"1251 1484 CURVE SMOOTH",
"171 1484 LINE SMOOTH",
"147 1484 OFFCURVE",
"133 1468 OFFCURVE",
"133 1438 CURVE SMOOTH"
);
}
);
};
layerId = "258ED206-D907-4350-8EBA-CBDDA1C16BF7";
paths = (
{
closed = 1;
nodes = (
"1129 0 LINE",
"1179 324 LINE",
"503 324 LINE",
"541 570 LINE",
"1103 570 LINE",
"1151 884 LINE",
"591 884 LINE",
"627 1124 LINE",
"1297 1124 LINE",
"1347 1446 LINE",
"287 1446 LINE",
"67 0 LINE"
);
}
);
width = 1326;
},
{
anchors = (
{
name = bottom;
position = "{541, 0}";
},
{
name = ogonek;
position = "{921, 20}";
},
{
name = top;
position = "{705, 1446}";
}
);
background = {
anchors = (
{
name = bottom;
position = "{705, 0}";
},
{
name = ogonek;
position = "{1075, 20}";
},
{
name = top;
position = "{667, 1484}";
}
);
paths = (
{
closed = 1;
nodes = (
"205 20 LINE SMOOTH",
"205 4 OFFCURVE",
"209 0 OFFCURVE",
"223 0 CURVE SMOOTH",
"1083 0 LINE SMOOTH",
"1093 0 OFFCURVE",
"1097 4 OFFCURVE",
"1097 14 CURVE SMOOTH",
"1097 66 LINE SMOOTH",
"1097 78 OFFCURVE",
"1093 80 OFFCURVE",
"1081 80 CURVE SMOOTH",
"315 80 LINE SMOOTH",
"301 80 OFFCURVE",
"297 82 OFFCURVE",
"297 98 CURVE SMOOTH",
"297 692 LINE SMOOTH",
"297 708 OFFCURVE",
"301 710 OFFCURVE",
"315 710 CURVE SMOOTH",
"891 710 LINE SMOOTH",
"903 710 OFFCURVE",
"907 712 OFFCURVE",
"907 724 CURVE SMOOTH",
"907 776 LINE SMOOTH",
"907 786 OFFCURVE",
"903 790 OFFCURVE",
"893 790 CURVE SMOOTH",
"315 790 LINE SMOOTH",
"301 790 OFFCURVE",
"297 792 OFFCURVE",
"297 804 CURVE SMOOTH",
"297 1386 LINE SMOOTH",
"297 1402 OFFCURVE",
"301 1404 OFFCURVE",
"315 1404 CURVE SMOOTH",
"1051 1404 LINE SMOOTH",
"1063 1404 OFFCURVE",
"1067 1406 OFFCURVE",
"1067 1418 CURVE SMOOTH",
"1067 1470 LINE SMOOTH",
"1067 1480 OFFCURVE",
"1063 1484 OFFCURVE",
"1053 1484 CURVE SMOOTH",
"223 1484 LINE SMOOTH",
"209 1484 OFFCURVE",
"205 1480 OFFCURVE",
"205 1464 CURVE SMOOTH"
);
}
);
};
layerId = "91AB5BCA-6A50-42DA-B2F7-8181BF189245";
paths = (
{
closed = 1;
nodes = (
"927 0 LINE",
"939 82 LINE",
"221 84 LINE",
"307 690 LINE",
"951 690 LINE",
"961 772 LINE",
"317 772 LINE",
"401 1366 LINE",
"1093 1366 LINE",
"1105 1446 LINE",
"341 1446 LINE",
"137 0 LINE"
);
}
);
width = 1140;
}
);
leftKerningGroup = N;
leftMetricsKey = N;
rightKerningGroup = E;
unicode = 0045;
},
{
glyphname = F;
lastChange = "2019-04-22 13:43:20 +0000";
layers = (
{
background = {
paths = (
{
closed = 1;
nodes = (
"101 50 LINE SMOOTH",
"101 16 OFFCURVE",
"113 0 OFFCURVE",
"155 0 CURVE",
"489 0 LINE SMOOTH",
"535 0 OFFCURVE",
"555 16 OFFCURVE",
"555 58 CURVE SMOOTH",
"555 542 LINE SMOOTH",
"555 560 OFFCURVE",
"567 572 OFFCURVE",
"587 572 CURVE SMOOTH",
"961 572 LINE SMOOTH",
"989 572 OFFCURVE",
"997 586 OFFCURVE",
"997 606 CURVE SMOOTH",
"997 850 LINE SMOOTH",
"997 876 OFFCURVE",
"985 890 OFFCURVE",
"957 890 CURVE SMOOTH",
"591 890 LINE SMOOTH",
"569 890 OFFCURVE",
"555 902 OFFCURVE",
"555 930 CURVE SMOOTH",
"555 1118 LINE SMOOTH",
"555 1144 OFFCURVE",
"569 1156 OFFCURVE",
"601 1156 CURVE SMOOTH",
"1189 1156 LINE SMOOTH",
"1225 1156 OFFCURVE",
"1239 1178 OFFCURVE",
"1239 1210 CURVE SMOOTH",
"1241 1442 LINE SMOOTH",
"1241 1468 OFFCURVE",
"1229 1484 OFFCURVE",
"1205 1484 CURVE SMOOTH",
"139 1484 LINE SMOOTH",
"117 1484 OFFCURVE",
"101 1468 OFFCURVE",
"101 1438 CURVE SMOOTH"
);
}
);
};
layerId = "258ED206-D907-4350-8EBA-CBDDA1C16BF7";
paths = (
{
closed = 1;
nodes = (
"455 0 LINE",
"539 558 LINE",
"1093 558 LINE",
"1141 868 LINE",
"585 868 LINE",
"625 1128 LINE",
"1289 1128 LINE",
"1339 1446 LINE",
"287 1446 LINE",
"67 0 LINE"
);
}
);
width = 1268;
},
{
background = {
paths = (
{
closed = 1;
nodes = (
"215 20 LINE SMOOTH",
"215 4 OFFCURVE",
"219 0 OFFCURVE",
"233 0 CURVE SMOOTH",
"293 0 LINE SMOOTH",
"303 0 OFFCURVE",
"307 4 OFFCURVE",
"307 14 CURVE SMOOTH",
"307 666 LINE SMOOTH",
"307 682 OFFCURVE",
"311 684 OFFCURVE",
"325 684 CURVE SMOOTH",
"921 684 LINE SMOOTH",
"933 684 OFFCURVE",
"937 686 OFFCURVE",
"937 698 CURVE SMOOTH",
"937 750 LINE SMOOTH",
"937 760 OFFCURVE",
"933 764 OFFCURVE",
"923 764 CURVE SMOOTH",
"325 764 LINE SMOOTH",
"311 764 OFFCURVE",
"307 766 OFFCURVE",
"307 778 CURVE SMOOTH",
"307 1386 LINE SMOOTH",
"307 1402 OFFCURVE",
"311 1404 OFFCURVE",
"325 1404 CURVE SMOOTH",
"1041 1404 LINE SMOOTH",
"1053 1404 OFFCURVE",
"1057 1406 OFFCURVE",
"1057 1418 CURVE SMOOTH",
"1057 1470 LINE SMOOTH",
"1057 1480 OFFCURVE",
"1053 1484 OFFCURVE",
"1043 1484 CURVE SMOOTH",
"233 1484 LINE SMOOTH",
"219 1484 OFFCURVE",
"215 1480 OFFCURVE",
"215 1464 CURVE SMOOTH"
);
}
);
};
layerId = "91AB5BCA-6A50-42DA-B2F7-8181BF189245";
paths = (
{
closed = 1;
nodes = (
"217 0 LINE",
"315 692 LINE",
"941 692 LINE",
"951 774 LINE",
"327 774 LINE",
"409 1366 LINE",
"1083 1366 LINE",
"1093 1446 LINE",
"341 1446 LINE",
"139 0 LINE"
);
}
);
width = 1054;
}
);
leftKerningGroup = N;
leftMetricsKey = N;
rightKerningGroup = E;
unicode = 0046;
},
{
glyphname = G;
lastChange = "2019-04-22 13:43:20 +0000";
layers = (
{
anchors = (
{
name = bottom;
position = "{692, 0}";
},
{
name = top;
position = "{920, 1446}";
}
);
background = {
anchors = (
{
name = bottom;
position = "{798, 0}";
},
{
name = top;
position = "{798, 1484}";
}
);
paths = (
{
closed = 1;
nodes = (
"1030 -20 OFFCURVE",
"1132 80 OFFCURVE",
"1204 150 CURVE SMOOTH",
"1214 162 OFFCURVE",
"1220 162 OFFCURVE",
"1226 154 CURVE SMOOTH",
"1306 38 LINE SMOOTH",
"1326 10 OFFCURVE",
"1346 0 OFFCURVE",
"1370 0 CURVE SMOOTH",
"1446 0 LINE SMOOTH",
"1466 0 OFFCURVE",
"1480 16 OFFCURVE",
"1480 34 CURVE SMOOTH",
"1480 688 LINE SMOOTH",
"1480 724 OFFCURVE",
"1454 750 OFFCURVE",
"1404 750 CURVE SMOOTH",
"844 754 LINE SMOOTH",
"814 754 OFFCURVE",
"802 740 OFFCURVE",
"802 720 CURVE SMOOTH",
"802 528 LINE SMOOTH",
"802 494 OFFCURVE",
"814 484 OFFCURVE",
"842 484 CURVE SMOOTH",
"1030 484 LINE SMOOTH",
"1050 484 OFFCURVE",
"1056 472 OFFCURVE",
"1048 450 CURVE",
"1042 432 LINE",
"1006 340 OFFCURVE",
"938 292 OFFCURVE",
"826 292 CURVE SMOOTH",
"674 292 OFFCURVE",
"570 386 OFFCURVE",
"570 748 CURVE SMOOTH",
"570 1088 OFFCURVE",
"662 1194 OFFCURVE",
"810 1194 CURVE SMOOTH",
"954 1194 OFFCURVE",
"1024 1094 OFFCURVE",
"1044 984 CURVE SMOOTH",
"1050 958 OFFCURVE",
"1052 944 OFFCURVE",
"1084 944 CURVE SMOOTH",
"1426 996 LINE SMOOTH",
"1458 1000 OFFCURVE",
"1466 1010 OFFCURVE",
"1454 1066 CURVE SMOOTH",
"1406 1280 OFFCURVE",
"1180 1504 OFFCURVE",
"820 1504 CURVE SMOOTH",
"392 1504 OFFCURVE",
"94 1198 OFFCURVE",
"94 736 CURVE SMOOTH",
"94 290 OFFCURVE",
"372 -20 OFFCURVE",
"794 -20 CURVE SMOOTH"
);
}
);
};
layerId = "258ED206-D907-4350-8EBA-CBDDA1C16BF7";
paths = (
{
closed = 1;
nodes = (
"922 -20 OFFCURVE",
"1038 86 OFFCURVE",
"1122 160 CURVE",
"1098 0 LINE",
"1352 0 LINE",
"1468 764 LINE",
"810 768 LINE",
"770 506 LINE",
"1020 506 LINE",
"996 454 LINE",
"966 388 OFFCURVE",
"876 318 OFFCURVE",
"766 318 CURVE SMOOTH",
"642 318 OFFCURVE",
"486 376 OFFCURVE",
"540 730 CURVE SMOOTH",
"588 1042 OFFCURVE",
"732 1144 OFFCURVE",
"876 1144 CURVE SMOOTH",
"1010 1144 OFFCURVE",
"1070 1054 OFFCURVE",
"1078 936 CURVE",
"1482 936 LINE",
"1518 1206 OFFCURVE",
"1320 1466 OFFCURVE",
"934 1466 CURVE SMOOTH",
"520 1466 OFFCURVE",
"186 1168 OFFCURVE",
"118 718 CURVE SMOOTH",
"50 282 OFFCURVE",
"276 -20 OFFCURVE",
"684 -20 CURVE SMOOTH"
);
}
);
width = 1563;
},
{
anchors = (
{
name = bottom;
position = "{596, 0}";
},
{
name = top;
position = "{802, 1446}";
}
);
background = {
anchors = (
{
name = bottom;
position = "{732, 0}";
},
{
name = top;
position = "{722, 1484}";
}
);
paths = (
{
closed = 1;
nodes = (
"942 -20 OFFCURVE",
"1088 90 OFFCURVE",
"1166 230 CURVE SMOOTH",
"1174 244 OFFCURVE",
"1182 242 OFFCURVE",
"1182 230 CURVE SMOOTH",
"1182 18 LINE SMOOTH",
"1182 0 OFFCURVE",
"1192 0 OFFCURVE",
"1208 0 CURVE SMOOTH",
"1242 0 LINE SMOOTH",
"1256 0 OFFCURVE",
"1262 4 OFFCURVE",
"1262 22 CURVE SMOOTH",
"1262 742 LINE SMOOTH",
"1262 750 OFFCURVE",
"1258 754 OFFCURVE",
"1250 754 CURVE SMOOTH",
"778 754 LINE SMOOTH",
"772 754 OFFCURVE",
"768 750 OFFCURVE",
"768 742 CURVE SMOOTH",
"768 696 LINE SMOOTH",
"768 688 OFFCURVE",
"772 684 OFFCURVE",
"782 684 CURVE SMOOTH",
"1160 684 LINE SMOOTH",
"1172 684 OFFCURVE",
"1182 682 OFFCURVE",
"1182 668 CURVE SMOOTH",
"1182 510 LINE SMOOTH",
"1182 322 OFFCURVE",
"1038 64 OFFCURVE",
"722 64 CURVE SMOOTH",
"396 64 OFFCURVE",
"226 306 OFFCURVE",
"226 748 CURVE SMOOTH",
"226 1168 OFFCURVE",
"400 1420 OFFCURVE",
"722 1420 CURVE SMOOTH",
"934 1420 OFFCURVE",
"1104 1280 OFFCURVE",
"1136 1102 CURVE SMOOTH",
"1138 1092 OFFCURVE",
"1144 1088 OFFCURVE",
"1150 1090 CURVE SMOOTH",
"1220 1102 LINE SMOOTH",
"1230 1104 OFFCURVE",
"1230 1110 OFFCURVE",
"1230 1118 CURVE SMOOTH",
"1206 1326 OFFCURVE",
"968 1504 OFFCURVE",
"722 1504 CURVE SMOOTH",
"360 1504 OFFCURVE",
"130 1228 OFFCURVE",
"130 736 CURVE SMOOTH",
"130 258 OFFCURVE",
"350 -20 OFFCURVE",
"720 -20 CURVE SMOOTH"
);
}
);
};
layerId = "91AB5BCA-6A50-42DA-B2F7-8181BF189245";
paths = (
{
closed = 1;
nodes = (
"800 -20 OFFCURVE",
"952 100 OFFCURVE",
"1046 252 CURVE",
"1010 0 LINE",
"1082 0 LINE",
"1186 736 LINE",
"742 736 LINE",
"732 666 LINE",
"1104 666 LINE",
"1080 498 LINE SMOOTH",
"1054 314 OFFCURVE",
"890 58 OFFCURVE",
"606 58 CURVE SMOOTH",
"314 58 OFFCURVE",
"184 298 OFFCURVE",
"244 730 CURVE SMOOTH",
"302 1138 OFFCURVE",
"504 1384 OFFCURVE",
"792 1384 CURVE SMOOTH",
"984 1384 OFFCURVE",
"1116 1242 OFFCURVE",
"1118 1060 CURVE",
"1206 1076 LINE",
"1216 1288 OFFCURVE",
"1026 1466 OFFCURVE",
"804 1466 CURVE SMOOTH",
"478 1466 OFFCURVE",
"234 1198 OFFCURVE",
"168 718 CURVE SMOOTH",
"102 252 OFFCURVE",
"260 -20 OFFCURVE",
"594 -20 CURVE SMOOTH"
);
}
);
width = 1335;
}
);
leftKerningGroup = O;
leftMetricsKey = O;
rightKerningGroup = G;
unicode = 0047;
},
{
glyphname = H;
lastChange = "2019-04-16 18:55:59 +0000";
layers = (
{
anchors = (
{
name = bottom;
position = "{663, 0}";
},
{
name = top;
position = "{891, 1446}";
}
);
background = {
anchors = (
{
name = bottom;
position = "{769, 0}";
},
{
name = top;
position = "{773, 1484}";
}
);
paths = (
{
closed = 1;
nodes = (
"967 594 OFFCURVE",
"979 580 OFFCURVE",
"979 564 CURVE SMOOTH",
"979 58 LINE SMOOTH",
"979 16 OFFCURVE",
"999 0 OFFCURVE",
"1045 0 CURVE SMOOTH",
"1379 0 LINE SMOOTH",
"1421 0 OFFCURVE",
"1433 16 OFFCURVE",
"1433 50 CURVE SMOOTH",
"1433 1438 LINE SMOOTH",
"1433 1468 OFFCURVE",
"1417 1484 OFFCURVE",
"1395 1484 CURVE SMOOTH",
"1015 1484 LINE SMOOTH",
"993 1484 OFFCURVE",
"979 1468 OFFCURVE",
"979 1442 CURVE SMOOTH",
"979 978 LINE SMOOTH",
"979 952 OFFCURVE",
"965 938 OFFCURVE",
"943 938 CURVE SMOOTH",
"607 938 LINE SMOOTH",
"585 938 OFFCURVE",
"571 952 OFFCURVE",
"571 978 CURVE SMOOTH",
"571 1442 LINE SMOOTH",
"571 1468 OFFCURVE",
"557 1484 OFFCURVE",
"535 1484 CURVE SMOOTH",
"155 1484 LINE SMOOTH",
"133 1484 OFFCURVE",
"117 1468 OFFCURVE",
"117 1438 CURVE SMOOTH",
"117 50 LINE SMOOTH",
"117 16 OFFCURVE",
"129 0 OFFCURVE",
"171 0 CURVE SMOOTH",
"505 0 LINE SMOOTH",
"551 0 OFFCURVE",
"571 16 OFFCURVE",
"571 58 CURVE SMOOTH",
"571 564 LINE SMOOTH",
"571 580 OFFCURVE",
"583 594 OFFCURVE",
"603 594 CURVE SMOOTH",
"947 594 LINE SMOOTH"
);
}
);
};
layerId = "258ED206-D907-4350-8EBA-CBDDA1C16BF7";
paths = (
{
closed = 1;
nodes = (
"455 0 LINE",
"543 580 LINE",
"977 580 LINE",
"889 0 LINE",
"1277 0 LINE",
"1497 1446 LINE",
"1109 1446 LINE",
"1027 898 LINE",
"591 898 LINE",
"675 1446 LINE",
"287 1446 LINE",
"67 0 LINE"
);
}
);
width = 1506;
},
{
anchors = (
{
name = bottom;
position = "{577, 0}";
},
{
name = top;
position = "{781, 1446}";
}
);
background = {
anchors = (
{
name = bottom;
position = "{699, 0}";
},
{
name = top;
position = "{699, 1484}";
}
);
paths = (
{
closed = 1;
nodes = (
"1099 732 OFFCURVE",
"1103 728 OFFCURVE",
"1103 718 CURVE SMOOTH",
"1103 18 LINE SMOOTH",
"1103 4 OFFCURVE",
"1109 0 OFFCURVE",
"1123 0 CURVE SMOOTH",
"1177 0 LINE SMOOTH",
"1189 0 OFFCURVE",
"1195 6 OFFCURVE",
"1195 20 CURVE SMOOTH",
"1195 1464 LINE SMOOTH",
"1195 1480 OFFCURVE",
"1191 1484 OFFCURVE",
"1177 1484 CURVE SMOOTH",
"1119 1484 LINE SMOOTH",
"1107 1484 OFFCURVE",
"1103 1478 OFFCURVE",
"1103 1466 CURVE SMOOTH",
"1103 828 LINE SMOOTH",
"1103 816 OFFCURVE",
"1099 812 OFFCURVE",
"1087 812 CURVE SMOOTH",
"311 812 LINE SMOOTH",
"297 812 OFFCURVE",
"293 814 OFFCURVE",
"293 830 CURVE SMOOTH",
"293 1464 LINE SMOOTH",
"293 1480 OFFCURVE",
"289 1484 OFFCURVE",
"275 1484 CURVE SMOOTH",
"219 1484 LINE SMOOTH",
"205 1484 OFFCURVE",
"201 1480 OFFCURVE",
"201 1464 CURVE SMOOTH",
"201 20 LINE SMOOTH",
"201 6 OFFCURVE",
"205 0 OFFCURVE",
"219 0 CURVE SMOOTH",
"273 0 LINE SMOOTH",
"287 0 OFFCURVE",
"293 6 OFFCURVE",
"293 18 CURVE SMOOTH",
"293 720 LINE SMOOTH",
"293 726 OFFCURVE",
"297 732 OFFCURVE",
"305 732 CURVE SMOOTH",
"1089 732 LINE SMOOTH"
);
}
);
};
layerId = "91AB5BCA-6A50-42DA-B2F7-8181BF189245";
paths = (
{
closed = 1;
nodes = (
"209 0 LINE",
"309 712 LINE",
"1043 712 LINE",
"943 0 LINE",
"1015 0 LINE",
"1219 1446 LINE",
"1147 1446 LINE",
"1055 794 LINE",
"321 794 LINE",
"413 1446 LINE",
"341 1446 LINE",
"137 0 LINE"
);
}
);
width = 1288;
}
);
leftKerningGroup = N;
leftMetricsKey = N;
rightKerningGroup = N;
rightMetricsKey = N;
unicode = 0048;
},
{
glyphname = Hbar;
lastChange = "2019-04-24 18:08:47 +0000";
layers = (
{
background = {
components = (
{
name = H;
transform = "{1, 0, 0, 1, 35, 0}";
}
);
paths = (
{
closed = 1;
nodes = (
"1557 1270 OFFCURVE",
"1545 1284 OFFCURVE",
"1525 1284 CURVE SMOOTH",
"29 1284 LINE SMOOTH",
"11 1284 OFFCURVE",
"-1 1270 OFFCURVE",
"-1 1244 CURVE SMOOTH",
"-1 1126 LINE SMOOTH",
"-1 1096 OFFCURVE",
"9 1082 OFFCURVE",
"41 1082 CURVE SMOOTH",
"1501 1082 LINE SMOOTH",
"1539 1082 OFFCURVE",
"1557 1096 OFFCURVE",
"1557 1130 CURVE SMOOTH",
"1557 1248 LINE SMOOTH"
);
}
);
};
components = (
{
name = H;
transform = "{1, 0, 0, 1, 71, 0}";
}
);
layerId = "258ED206-D907-4350-8EBA-CBDDA1C16BF7";
paths = (
{
closed = 1;
nodes = (
"1667 1082 LINE",
"1697 1284 LINE",
"149 1284 LINE",
"119 1082 LINE"
);
}
);
width = 1629;
},
{
background = {
components = (
{
name = H;
transform = "{1, 0, 0, 1, 20, 0}";
}
);
paths = (
{
closed = 1;
nodes = (
"1416 1200 OFFCURVE",
"1412 1206 OFFCURVE",
"1404 1206 CURVE SMOOTH",
"72 1206 LINE SMOOTH",
"62 1206 OFFCURVE",
"58 1200 OFFCURVE",
"58 1188 CURVE SMOOTH",
"58 1146 LINE SMOOTH",
"58 1132 OFFCURVE",
"62 1128 OFFCURVE",
"78 1128 CURVE SMOOTH",
"1392 1128 LINE SMOOTH",
"1410 1128 OFFCURVE",
"1416 1132 OFFCURVE",
"1416 1148 CURVE SMOOTH",
"1416 1190 LINE SMOOTH"
);
}
);
};
components = (
{
name = H;
transform = "{1, 0, 0, 1, 40, 0}";
}
);
layerId = "91AB5BCA-6A50-42DA-B2F7-8181BF189245";
paths = (
{
closed = 1;
nodes = (
"1356 1128 LINE",
"1368 1206 LINE",
"118 1206 LINE",
"106 1128 LINE"
);
}
);
width = 1291;
}
);
leftKerningGroup = N;
rightKerningGroup = N;
unicode = 0126;
},
{
glyphname = I;
lastChange = "2019-04-22 13:43:20 +0000";
layers = (
{
anchors = (
{
name = bottom;
position = "{281, 0}";
},
{
name = ogonek;
position = "{407, 6}";
},
{
name = top;
position = "{481, 1446}";
}
);
background = {
anchors = (
{
name = bottom;
position = "{383, 0}";
},
{
name = ogonek;
position = "{547, 20}";
},
{
name = top;
position = "{385, 1484}";
}
);
paths = (
{
closed = 1;
nodes = (
"173 1484 OFFCURVE",
"157 1468 OFFCURVE",
"157 1438 CURVE SMOOTH",
"157 50 LINE SMOOTH",
"157 16 OFFCURVE",
"169 0 OFFCURVE",
"211 0 CURVE SMOOTH",
"545 0 LINE SMOOTH",
"591 0 OFFCURVE",
"611 16 OFFCURVE",
"611 58 CURVE SMOOTH",
"611 1442 LINE SMOOTH",
"611 1468 OFFCURVE",
"599 1484 OFFCURVE",
"575 1484 CURVE SMOOTH",
"195 1484 LINE SMOOTH"
);
}
);
};
layerId = "258ED206-D907-4350-8EBA-CBDDA1C16BF7";
paths = (
{
closed = 1;
nodes = (
"455 0 LINE",
"673 1446 LINE",
"285 1446 LINE",
"67 0 LINE"
);
}
);
width = 682;
},
{
anchors = (
{
name = bottom;
position = "{177, 0}";
},
{
name = ogonek;
position = "{203, 20}";
},
{
name = top;
position = "{379, 1446}";
}
);
background = {
anchors = (
{
name = bottom;
position = "{287, 0}";
},
{
name = ogonek;
position = "{311, 20}";
},
{
name = top;
position = "{293, 1484}";
}
);
paths = (
{
closed = 1;
nodes = (
"245 1484 OFFCURVE",
"241 1480 OFFCURVE",
"241 1464 CURVE SMOOTH",
"241 20 LINE SMOOTH",
"241 4 OFFCURVE",
"245 0 OFFCURVE",
"263 0 CURVE SMOOTH",
"309 0 LINE SMOOTH",
"329 0 OFFCURVE",
"333 4 OFFCURVE",
"333 24 CURVE SMOOTH",
"333 1464 LINE SMOOTH",
"333 1480 OFFCURVE",
"329 1484 OFFCURVE",
"315 1484 CURVE SMOOTH",
"259 1484 LINE SMOOTH"
);
}
);
};
layerId = "91AB5BCA-6A50-42DA-B2F7-8181BF189245";
paths = (
{
closed = 1;
nodes = (
"211 0 LINE",
"413 1446 LINE",
"341 1446 LINE",
"139 0 LINE"
);
}
);
width = 484;
}
);
leftKerningGroup = N;
leftMetricsKey = N;
rightKerningGroup = N;
rightMetricsKey = N;
unicode = 0049;
},
{
glyphname = J;
lastChange = "2019-04-22 13:43:20 +0000";
layers = (
{
anchors = (
{
name = top;
position = "{679, 1446}";
}
);
background = {
anchors = (
{
name = top;
position = "{469, 1484}";
}
);
paths = (
{
closed = 1;
nodes = (
"823 1442 LINE SMOOTH",
"823 1468 OFFCURVE",
"811 1484 OFFCURVE",
"787 1484 CURVE SMOOTH",
"409 1484 LINE SMOOTH",
"385 1484 OFFCURVE",
"369 1468 OFFCURVE",
"369 1438 CURVE SMOOTH",
"369 536 LINE SMOOTH",
"369 400 OFFCURVE",
"311 350 OFFCURVE",
"213 350 CURVE SMOOTH",
"169 350 OFFCURVE",
"135 360 OFFCURVE",
"103 364 CURVE SMOOTH",
"71 368 OFFCURVE",
"57 348 OFFCURVE",
"55 318 CURVE SMOOTH",
"37 90 LINE SMOOTH",
"33 34 OFFCURVE",
"53 12 OFFCURVE",
"99 4 CURVE SMOOTH",
"189 -12 OFFCURVE",
"265 -20 OFFCURVE",
"347 -20 CURVE SMOOTH",
"659 -20 OFFCURVE",
"823 96 OFFCURVE",
"823 424 CURVE SMOOTH"
);
}
);
};
layerId = "258ED206-D907-4350-8EBA-CBDDA1C16BF7";
paths = (
{
closed = 1;
nodes = (
"581 -20 OFFCURVE",
"683 138 OFFCURVE",
"731 458 CURVE SMOOTH",
"881 1446 LINE",
"495 1446 LINE",
"359 558 LINE SMOOTH",
"337 408 OFFCURVE",
"293 340 OFFCURVE",
"155 340 CURVE SMOOTH",
"113 340 OFFCURVE",
"65 346 OFFCURVE",
"29 350 CURVE",
"-23 0 LINE",
"35 -12 OFFCURVE",
"153 -20 OFFCURVE",
"235 -20 CURVE SMOOTH"
);
}
);
width = 860;
},
{
anchors = (
{
name = top;
position = "{571, 1446}";
}
);
background = {
anchors = (
{
name = top;
position = "{503, 1484}";
}
);
paths = (
{
closed = 1;
nodes = (
"549 1464 LINE SMOOTH",
"549 1478 OFFCURVE",
"545 1484 OFFCURVE",
"533 1484 CURVE SMOOTH",
"473 1484 LINE SMOOTH",
"461 1484 OFFCURVE",
"457 1478 OFFCURVE",
"457 1466 CURVE SMOOTH",
"457 308 LINE SMOOTH",
"457 122 OFFCURVE",
"413 68 OFFCURVE",
"283 68 CURVE SMOOTH",
"185 68 OFFCURVE",
"141 98 OFFCURVE",
"99 118 CURVE SMOOTH",
"91 122 OFFCURVE",
"85 120 OFFCURVE",
"83 110 CURVE SMOOTH",
"65 48 LINE SMOOTH",
"63 40 OFFCURVE",
"67 34 OFFCURVE",
"73 30 CURVE SMOOTH",
"87 20 OFFCURVE",
"177 -20 OFFCURVE",
"287 -20 CURVE SMOOTH",
"481 -20 OFFCURVE",
"549 98 OFFCURVE",
"549 288 CURVE SMOOTH"
);
}
);
};
layerId = "91AB5BCA-6A50-42DA-B2F7-8181BF189245";
paths = (
{
closed = 1;
nodes = (
"349 -20 OFFCURVE",
"417 96 OFFCURVE",
"443 280 CURVE SMOOTH",
"607 1446 LINE",
"535 1446 LINE",
"375 308 LINE SMOOTH",
"351 126 OFFCURVE",
"301 62 OFFCURVE",
"185 62 CURVE SMOOTH",
"91 62 OFFCURVE",
"51 104 OFFCURVE",
"13 124 CURVE",
"-17 38 LINE",
"-7 26 OFFCURVE",
"73 -20 OFFCURVE",
"177 -20 CURVE SMOOTH"
);
}
);
width = 686;
}
);
leftKerningGroup = J;
rightKerningGroup = N;
rightMetricsKey = U;
unicode = 004A;
},
{
glyphname = K;
lastChange = "2019-04-22 13:43:20 +0000";
layers = (
{
anchors = (
{
name = bottom;
position = "{649, 0}";
},
{
name = top;
position = "{893, 1446}";
}
);
background = {
anchors = (
{
name = bottom;
position = "{751, 0}";
},
{
name = top;
position = "{751, 1484}";
}
);
paths = (
{
closed = 1;
nodes = (
"1063 960 LINE SMOOTH",
"1051 988 OFFCURVE",
"1053 1002 OFFCURVE",
"1069 1024 CURVE SMOOTH",
"1397 1426 LINE SMOOTH",
"1423 1456 OFFCURVE",
"1399 1484 OFFCURVE",
"1355 1484 CURVE SMOOTH",
"1051 1484 LINE SMOOTH",
"1003 1484 OFFCURVE",
"987 1472 OFFCURVE",
"965 1442 CURVE SMOOTH",
"597 926 LINE",
"581 906 OFFCURVE",
"567 904 OFFCURVE",
"567 936 CURVE SMOOTH",
"567 1442 LINE SMOOTH",
"567 1468 OFFCURVE",
"555 1484 OFFCURVE",
"531 1484 CURVE SMOOTH",
"151 1484 LINE SMOOTH",
"129 1484 OFFCURVE",
"113 1468 OFFCURVE",
"113 1438 CURVE SMOOTH",
"113 50 LINE SMOOTH",
"113 16 OFFCURVE",
"125 0 OFFCURVE",
"167 0 CURVE SMOOTH",
"501 0 LINE SMOOTH",
"547 0 OFFCURVE",
"567 16 OFFCURVE",
"567 58 CURVE SMOOTH",
"567 360 LINE SMOOTH",
"567 380 OFFCURVE",
"569 392 OFFCURVE",
"579 404 CURVE SMOOTH",
"721 586 LINE SMOOTH",
"741 612 OFFCURVE",
"753 616 OFFCURVE",
"765 596 CURVE SMOOTH",
"1009 40 LINE SMOOTH",
"1023 10 OFFCURVE",
"1047 0 OFFCURVE",
"1081 0 CURVE SMOOTH",
"1471 0 LINE SMOOTH",
"1511 0 OFFCURVE",
"1515 30 OFFCURVE",
"1499 62 CURVE SMOOTH"
);
}
);
};
guideLines = (
{
angle = 54.4985;
position = "{689, 670}";
},
{
angle = -62.8805;
position = "{376, 283}";
}
);
hints = (
{
horizontal = 1;
origin = "{0, 11}";
target = up;
type = BottomGhost;
},
{
horizontal = 1;
origin = "{0, 10}";
target = down;
type = TopGhost;
},
{
place = "{62, 338}";
type = Stem;
}
);
layerId = "258ED206-D907-4350-8EBA-CBDDA1C16BF7";
paths = (
{
closed = 1;
nodes = (
"469 0 LINE",
"527 378 LINE",
"741 610 LINE",
"969 0 LINE",
"1383 0 LINE",
"1059 894 LINE",
"1539 1446 LINE",
"1105 1446 LINE",
"601 862 LINE",
"689 1446 LINE",
"287 1446 LINE",
"67 0 LINE"
);
}
);
width = 1496;
},
{
anchors = (
{
name = bottom;
position = "{545, 0}";
},
{
name = top;
position = "{781, 1446}";
}
);
background = {
anchors = (
{
name = bottom;
position = "{665, 0}";
},
{
name = top;
position = "{725, 1484}";
}
);
paths = (
{
closed = 1;
nodes = (
"665 890 LINE SMOOTH",
"661 898 OFFCURVE",
"661 898 OFFCURVE",
"665 902 CURVE SMOOTH",
"1183 1468 LINE SMOOTH",
"1191 1476 OFFCURVE",
"1189 1484 OFFCURVE",
"1177 1484 CURVE SMOOTH",
"1101 1484 LINE SMOOTH",
"1089 1484 OFFCURVE",
"1085 1482 OFFCURVE",
"1079 1476 CURVE SMOOTH",
"313 644 LINE SMOOTH",
"303 634 OFFCURVE",
"299 634 OFFCURVE",
"299 646 CURVE SMOOTH",
"299 1468 LINE SMOOTH",
"299 1480 OFFCURVE",
"293 1484 OFFCURVE",
"283 1484 CURVE SMOOTH",
"223 1484 LINE SMOOTH",
"211 1484 OFFCURVE",
"207 1478 OFFCURVE",
"207 1468 CURVE SMOOTH",
"207 18 LINE SMOOTH",
"207 4 OFFCURVE",
"213 0 OFFCURVE",
"227 0 CURVE SMOOTH",
"279 0 LINE SMOOTH",
"293 0 OFFCURVE",
"299 6 OFFCURVE",
"299 18 CURVE SMOOTH",
"299 492 LINE SMOOTH",
"299 508 OFFCURVE",
"303 514 OFFCURVE",
"315 526 CURVE SMOOTH",
"579 818 LINE SMOOTH",
"589 828 OFFCURVE",
"595 830 OFFCURVE",
"603 818 CURVE SMOOTH",
"1119 10 LINE SMOOTH",
"1123 4 OFFCURVE",
"1131 0 OFFCURVE",
"1141 0 CURVE SMOOTH",
"1219 0 LINE SMOOTH",
"1227 0 OFFCURVE",
"1231 6 OFFCURVE",
"1225 14 CURVE SMOOTH"
);
}
);
};
layerId = "91AB5BCA-6A50-42DA-B2F7-8181BF189245";
paths = (
{
closed = 1;
nodes = (
"213 0 LINE",
"283 496 LINE",
"591 814 LINE",
"955 0 LINE",
"1049 0 LINE",
"661 876 LINE",
"1221 1446 LINE",
"1123 1446 LINE",
"299 612 LINE",
"415 1446 LINE",
"341 1446 LINE",
"137 0 LINE"
);
}
);
width = 1202;
}
);
leftKerningGroup = N;
leftMetricsKey = N;
rightKerningGroup = K;
unicode = 004B;
},
{
glyphname = L;
lastChange = "2019-04-22 13:43:20 +0000";
layers = (
{
anchors = (
{
name = bottom;
position = "{541, 0}";
},
{
name = top;
position = "{471, 1446}";
},
{
name = topright;
position = "{1123, 1446}";
}
);
background = {
anchors = (
{
name = bottom;
position = "{639, 0}";
},
{
name = top;
position = "{347, 1484}";
},
{
name = topright;
position = "{1031, 1484}";
}
);
paths = (
{
closed = 1;
nodes = (
"115 50 LINE SMOOTH",
"115 16 OFFCURVE",
"127 0 OFFCURVE",
"169 0 CURVE SMOOTH",
"1191 0 LINE SMOOTH",
"1225 0 OFFCURVE",
"1241 20 OFFCURVE",
"1241 44 CURVE SMOOTH",
"1241 290 LINE SMOOTH",
"1241 318 OFFCURVE",
"1223 328 OFFCURVE",
"1195 328 CURVE SMOOTH",
"593 328 LINE SMOOTH",
"575 328 OFFCURVE",
"569 334 OFFCURVE",
"569 356 CURVE SMOOTH",
"569 1442 LINE SMOOTH",
"569 1468 OFFCURVE",
"557 1484 OFFCURVE",
"533 1484 CURVE SMOOTH",
"153 1484 LINE SMOOTH",
"131 1484 OFFCURVE",
"115 1468 OFFCURVE",
"115 1438 CURVE SMOOTH"
);
}
);
};
layerId = "258ED206-D907-4350-8EBA-CBDDA1C16BF7";
paths = (
{
closed = 1;
nodes = (
"1029 0 LINE",
"1077 320 LINE",
"503 320 LINE",
"673 1446 LINE",
"287 1446 LINE",
"67 0 LINE"
);
}
);
width = 1155;
},
{
anchors = (
{
name = bottom;
position = "{505, 0}";
},
{
name = top;
position = "{381, 1446}";
},
{
name = topright;
position = "{891, 1446}";
}
);
background = {
anchors = (
{
name = bottom;
position = "{623, 0}";
},
{
name = top;
position = "{259, 1484}";
},
{
name = topright;
position = "{831, 1484}";
}
);
paths = (
{
closed = 1;
nodes = (
"213 20 LINE SMOOTH",
"213 6 OFFCURVE",
"217 0 OFFCURVE",
"231 0 CURVE",
"1051 0 LINE",
"1061 0 OFFCURVE",
"1065 4 OFFCURVE",
"1065 14 CURVE SMOOTH",
"1065 66 LINE SMOOTH",
"1065 78 OFFCURVE",
"1061 80 OFFCURVE",
"1049 80 CURVE SMOOTH",
"323 80 LINE SMOOTH",
"309 80 OFFCURVE",
"305 82 OFFCURVE",
"305 98 CURVE SMOOTH",
"305 1464 LINE SMOOTH",
"305 1480 OFFCURVE",
"301 1484 OFFCURVE",
"287 1484 CURVE SMOOTH",
"231 1484 LINE SMOOTH",
"217 1484 OFFCURVE",
"213 1480 OFFCURVE",
"213 1464 CURVE SMOOTH"
);
}
);
};
layerId = "91AB5BCA-6A50-42DA-B2F7-8181BF189245";
paths = (
{
closed = 1;
nodes = (
"895 0 LINE",
"907 86 LINE",
"227 86 LINE",
"419 1446 LINE",
"341 1446 LINE",
"137 0 LINE"
);
}
);
width = 1038;
}
);
leftKerningGroup = N;
leftMetricsKey = N;
rightKerningGroup = L;
unicode = 004C;
},
{
glyphname = Lslash;
lastChange = "2019-04-22 13:43:20 +0000";
layers = (
{
background = {
components = (
{
name = L;
transform = "{1, 0, 0, 1, 44, 0}";
}
);
paths = (
{
closed = 1;
nodes = (
"922 1072 OFFCURVE",
"908 1086 OFFCURVE",
"874 1076 CURVE SMOOTH",
"86 866 LINE SMOOTH",
"62 860 OFFCURVE",
"48 850 OFFCURVE",
"48 820 CURVE SMOOTH",
"48 586 LINE SMOOTH",
"48 554 OFFCURVE",
"60 540 OFFCURVE",
"98 552 CURVE SMOOTH",
"882 774 LINE SMOOTH",
"910 782 OFFCURVE",
"922 798 OFFCURVE",
"922 820 CURVE SMOOTH",
"922 1042 LINE SMOOTH"
);
}
);
};
components = (
{
name = L;
transform = "{1, 0, 0, 1, 88, 0}";
}
);
layerId = "258ED206-D907-4350-8EBA-CBDDA1C16BF7";
paths = (
{
closed = 1;
nodes = (
"922 786 LINE",
"922 1088 LINE",
"48 856 LINE",
"48 538 LINE"
);
}
);
width = 1243;
},
{
background = {
components = (
{
name = L;
transform = "{1, 0, 0, 1, 8, 0}";
}
);
paths = (
{
closed = 1;
nodes = (
"661 850 OFFCURVE",
"657 854 OFFCURVE",
"647 852 CURVE SMOOTH",
"97 712 LINE SMOOTH",
"91 710 OFFCURVE",
"87 704 OFFCURVE",
"87 694 CURVE SMOOTH",
"87 648 LINE SMOOTH",
"87 638 OFFCURVE",
"91 636 OFFCURVE",
"101 638 CURVE SMOOTH",
"649 780 LINE SMOOTH",
"657 782 OFFCURVE",
"661 788 OFFCURVE",
"661 796 CURVE SMOOTH",
"661 842 LINE SMOOTH"
);
}
);
};
components = (
{
name = L;
transform = "{1, 0, 0, 1, 17, 0}";
}
);
layerId = "91AB5BCA-6A50-42DA-B2F7-8181BF189245";
paths = (
{
closed = 1;
nodes = (
"661 784 LINE",
"661 856 LINE",
"87 710 LINE",
"87 634 LINE"
);
}
);
width = 1055;
}
);
leftKerningGroup = N;
rightKerningGroup = L;
rightMetricsKey = L;
unicode = 0141;
},
{
glyphname = M;
lastChange = "2019-04-22 13:43:20 +0000";
layers = (
{
background = {
paths = (
{
closed = 1;
nodes = (
"461 0 LINE SMOOTH",
"497 0 OFFCURVE",
"505 8 OFFCURVE",
"505 44 CURVE SMOOTH",
"505 928 LINE SMOOTH",
"505 954 OFFCURVE",
"519 962 OFFCURVE",
"529 930 CURVE SMOOTH",
"817 36 LINE SMOOTH",
"825 12 OFFCURVE",
"841 0 OFFCURVE",
"865 0 CURVE SMOOTH",
"1075 0 LINE SMOOTH",
"1097 0 OFFCURVE",
"1115 14 OFFCURVE",
"1123 36 CURVE SMOOTH",
"1411 946 LINE SMOOTH",
"1419 970 OFFCURVE",
"1435 970 OFFCURVE",
"1435 948 CURVE SMOOTH",
"1435 50 LINE SMOOTH",
"1435 16 OFFCURVE",
"1447 0 OFFCURVE",
"1487 0 CURVE SMOOTH",
"1825 0 LINE SMOOTH",
"1871 0 OFFCURVE",
"1889 16 OFFCURVE",
"1889 58 CURVE SMOOTH",
"1889 1442 LINE SMOOTH",
"1889 1468 OFFCURVE",
"1877 1484 OFFCURVE",
"1853 1484 CURVE SMOOTH",
"1275 1484 LINE SMOOTH",
"1247 1484 OFFCURVE",
"1231 1462 OFFCURVE",
"1221 1426 CURVE SMOOTH",
"1035 812 LINE SMOOTH",
"1029 794 OFFCURVE",
"1017 790 OFFCURVE",
"1009 812 CURVE SMOOTH",
"801 1448 LINE SMOOTH",
"791 1476 OFFCURVE",
"779 1484 OFFCURVE",
"745 1484 CURVE SMOOTH",
"185 1484 LINE SMOOTH",
"155 1484 OFFCURVE",
"143 1470 OFFCURVE",
"143 1438 CURVE SMOOTH",
"143 56 LINE SMOOTH",
"143 22 OFFCURVE",
"163 0 OFFCURVE",
"195 0 CURVE SMOOTH"
);
}
);
};
guideLines = (
{
angle = -105;
position = "{481, 261}";
},
{
angle = 105;
position = "{481, 261}";
}
);
layerId = "258ED206-D907-4350-8EBA-CBDDA1C16BF7";
paths = (
{
closed = 1;
nodes = (
"453 0 LINE",
"613 1048 LINE",
"735 0 LINE",
"1013 0 LINE",
"1451 1048 LINE",
"1293 0 LINE",
"1681 0 LINE",
"1899 1446 LINE",
"1327 1446 LINE",
"959 564 LINE",
"861 1446 LINE",
"285 1446 LINE",
"67 0 LINE"
);
}
);
width = 1908;
},
{
background = {
guideLines = (
{
position = "{24, 566}";
showMeasurement = 1;
}
);
paths = (
{
closed = 1;
nodes = (
"257 0 LINE SMOOTH",
"271 0 OFFCURVE",
"277 6 OFFCURVE",
"277 18 CURVE SMOOTH",
"277 1244 LINE SMOOTH",
"277 1252 OFFCURVE",
"281 1250 OFFCURVE",
"283 1244 CURVE SMOOTH",
"771 20 LINE SMOOTH",
"777 6 OFFCURVE",
"787 0 OFFCURVE",
"809 0 CURVE SMOOTH",
"863 0 LINE SMOOTH",
"881 0 OFFCURVE",
"889 6 OFFCURVE",
"895 22 CURVE SMOOTH",
"1393 1254 LINE SMOOTH",
"1395 1260 OFFCURVE",
"1399 1264 OFFCURVE",
"1399 1254 CURVE SMOOTH",
"1399 18 LINE SMOOTH",
"1399 4 OFFCURVE",
"1405 0 OFFCURVE",
"1419 0 CURVE SMOOTH",
"1473 0 LINE SMOOTH",
"1485 0 OFFCURVE",
"1491 6 OFFCURVE",
"1491 20 CURVE SMOOTH",
"1491 1464 LINE SMOOTH",
"1491 1480 OFFCURVE",
"1487 1484 OFFCURVE",
"1473 1484 CURVE SMOOTH",
"1415 1484 LINE SMOOTH",
"1403 1484 OFFCURVE",
"1397 1480 OFFCURVE",
"1393 1470 CURVE SMOOTH",
"851 130 LINE SMOOTH",
"839 102 OFFCURVE",
"829 102 OFFCURVE",
"819 128 CURVE SMOOTH",
"285 1468 LINE",
"281 1480 OFFCURVE",
"275 1484 OFFCURVE",
"259 1484 CURVE SMOOTH",
"207 1484 LINE SMOOTH",
"193 1484 OFFCURVE",
"189 1480 OFFCURVE",
"189 1464 CURVE SMOOTH",
"189 20 LINE SMOOTH",
"189 6 OFFCURVE",
"193 0 OFFCURVE",
"207 0 CURVE SMOOTH"
);
}
);
};
guideLines = (
{
position = "{95, 525}";
showMeasurement = 1;
},
{
angle = 68.255;
position = "{377, 0}";
}
);
layerId = "91AB5BCA-6A50-42DA-B2F7-8181BF189245";
paths = (
{
closed = 1;
nodes = (
"217 0 LINE",
"389 1216 LINE",
"665 0 LINE",
"771 0 LINE",
"1397 1232 LINE",
"1223 0 LINE",
"1303 0 LINE",
"1505 1446 LINE",
"1427 1446 LINE",
"729 88 LINE",
"423 1446 LINE",
"341 1446 LINE",
"139 0 LINE"
);
}
);
width = 1576;
}
);
leftKerningGroup = N;
leftMetricsKey = N;
rightKerningGroup = N;
rightMetricsKey = N;
unicode = 004D;
},
{
glyphname = N;
lastChange = "2019-04-22 13:43:20 +0000";
layers = (
{
anchors = (
{
name = bottom;
position = "{735, 0}";
},
{
name = top;
position = "{955, 1446}";
}
);
background = {
anchors = (
{
name = bottom;
position = "{843, 0}";
},
{
name = top;
position = "{843, 1484}";
}
);
paths = (
{
closed = 1;
nodes = (
"1149 1484 OFFCURVE",
"1135 1468 OFFCURVE",
"1135 1442 CURVE SMOOTH",
"1135 788 LINE SMOOTH",
"1135 756 OFFCURVE",
"1121 756 OFFCURVE",
"1103 780 CURVE SMOOTH",
"623 1448 LINE SMOOTH",
"601 1478 OFFCURVE",
"589 1484 OFFCURVE",
"555 1484 CURVE SMOOTH",
"229 1484 LINE SMOOTH",
"199 1484 OFFCURVE",
"185 1470 OFFCURVE",
"185 1438 CURVE SMOOTH",
"185 40 LINE SMOOTH",
"185 10 OFFCURVE",
"205 0 OFFCURVE",
"235 0 CURVE SMOOTH",
"507 0 LINE SMOOTH",
"543 0 OFFCURVE",
"557 12 OFFCURVE",
"555 44 CURVE SMOOTH",
"555 772 LINE SMOOTH",
"555 786 OFFCURVE",
"565 790 OFFCURVE",
"575 776 CURVE SMOOTH",
"1125 30 LINE SMOOTH",
"1145 4 OFFCURVE",
"1157 0 OFFCURVE",
"1179 0 CURVE SMOOTH",
"1453 0 LINE SMOOTH",
"1479 0 OFFCURVE",
"1499 14 OFFCURVE",
"1499 36 CURVE SMOOTH",
"1499 1450 LINE SMOOTH",
"1499 1472 OFFCURVE",
"1489 1484 OFFCURVE",
"1469 1484 CURVE SMOOTH",
"1179 1484 LINE SMOOTH"
);
}
);
};
guideLines = (
{
angle = 125.0467;
position = "{549, 296}";
}
);
layerId = "258ED206-D907-4350-8EBA-CBDDA1C16BF7";
paths = (
{
closed = 1;
nodes = (
"455 0 LINE",
"585 862 LINE",
"1055 0 LINE",
"1405 0 LINE",
"1625 1446 LINE",
"1237 1446 LINE",
"1115 640 LINE",
"677 1446 LINE",
"287 1446 LINE",
"67 0 LINE"
);
}
);
width = 1634;
},
{
anchors = (
{
name = bottom;
position = "{559, 0}";
},
{
name = top;
position = "{807, 1446}";
}
);
background = {
anchors = (
{
name = bottom;
position = "{689, 0}";
},
{
name = top;
position = "{759, 1484}";
}
);
guideLines = (
{
position = "{33, 576}";
showMeasurement = 1;
}
);
paths = (
{
closed = 1;
nodes = (
"1169 1484 OFFCURVE",
"1165 1478 OFFCURVE",
"1165 1466 CURVE SMOOTH",
"1165 214 LINE SMOOTH",
"1165 202 OFFCURVE",
"1151 190 OFFCURVE",
"1137 210 CURVE SMOOTH",
"283 1470 LINE SMOOTH",
"275 1482 OFFCURVE",
"269 1484 OFFCURVE",
"253 1484 CURVE SMOOTH",
"217 1484 LINE",
"203 1484 OFFCURVE",
"199 1480 OFFCURVE",
"199 1464 CURVE SMOOTH",
"199 20 LINE SMOOTH",
"199 6 OFFCURVE",
"203 0 OFFCURVE",
"217 0 CURVE SMOOTH",
"267 0 LINE SMOOTH",
"281 0 OFFCURVE",
"287 6 OFFCURVE",
"287 18 CURVE SMOOTH",
"287 1274 LINE SMOOTH",
"287 1290 OFFCURVE",
"297 1294 OFFCURVE",
"311 1274 CURVE SMOOTH",
"1167 12 LINE SMOOTH",
"1177 -2 OFFCURVE",
"1189 0 OFFCURVE",
"1205 0 CURVE SMOOTH",
"1235 0 LINE SMOOTH",
"1247 0 OFFCURVE",
"1253 6 OFFCURVE",
"1253 20 CURVE SMOOTH",
"1253 1464 LINE SMOOTH",
"1253 1480 OFFCURVE",
"1249 1484 OFFCURVE",
"1235 1484 CURVE SMOOTH",
"1181 1484 LINE SMOOTH"
);
}
);
};
guideLines = (
{
position = "{104, 534}";
showMeasurement = 1;
},
{
angle = 123.9688;
position = "{106, 610}";
}
);
layerId = "91AB5BCA-6A50-42DA-B2F7-8181BF189245";
paths = (
{
closed = 1;
nodes = (
"209 0 LINE",
"391 1286 LINE",
"1007 0 LINE",
"1069 0 LINE",
"1273 1446 LINE",
"1201 1446 LINE",
"1019 156 LINE",
"399 1446 LINE",
"341 1446 LINE",
"137 0 LINE"
);
}
);
width = 1342;
}
);
leftKerningGroup = N;
rightKerningGroup = N;
unicode = 004E;
},
{
glyphname = Eng;
lastChange = "2019-04-24 18:08:47 +0000";
layers = (
{
background = {
paths = (
{
closed = 1;
nodes = (
"1114 1484 LINE SMOOTH",
"1084 1484 OFFCURVE",
"1070 1468 OFFCURVE",
"1070 1442 CURVE SMOOTH",
"1070 868 LINE SMOOTH",
"1070 836 OFFCURVE",
"1056 836 OFFCURVE",
"1038 860 CURVE",
"558 1448 LINE SMOOTH",
"534 1478 OFFCURVE",
"524 1484 OFFCURVE",
"490 1484 CURVE SMOOTH",
"164 1484 LINE SMOOTH",
"134 1484 OFFCURVE",
"120 1470 OFFCURVE",
"120 1438 CURVE SMOOTH",
"120 40 LINE SMOOTH",
"120 10 OFFCURVE",
"140 0 OFFCURVE",
"170 0 CURVE SMOOTH",
"442 0 LINE SMOOTH",
"478 0 OFFCURVE",
"492 12 OFFCURVE",
"490 44 CURVE",
"490 772 LINE",
"490 786 OFFCURVE",
"498 790 OFFCURVE",
"510 776 CURVE SMOOTH",
"990 194 LINE",
"990 176 LINE SMOOTH",
"984 62 OFFCURVE",
"924 20 OFFCURVE",
"834 20 CURVE SMOOTH",
"790 20 OFFCURVE",
"744 30 OFFCURVE",
"712 34 CURVE SMOOTH",
"680 38 OFFCURVE",
"666 18 OFFCURVE",
"664 -12 CURVE SMOOTH",
"646 -240 LINE SMOOTH",
"642 -296 OFFCURVE",
"662 -318 OFFCURVE",
"708 -326 CURVE SMOOTH",
"798 -342 OFFCURVE",
"886 -350 OFFCURVE",
"968 -350 CURVE SMOOTH",
"1272 -350 OFFCURVE",
"1434 -228 OFFCURVE",
"1434 94 CURVE SMOOTH",
"1434 1450 LINE SMOOTH",
"1434 1472 OFFCURVE",
"1424 1484 OFFCURVE",
"1404 1484 CURVE SMOOTH"
);
}
);
};
components = (
{
name = N;
},
{
alignment = -1;
name = "_j-hook";
transform = "{1, 0, 0, 1, 668, -460}";
}
);
layerId = "258ED206-D907-4350-8EBA-CBDDA1C16BF7";
width = 1634;
},
{
background = {
paths = (
{
closed = 1;
nodes = (
"1206 1484 LINE SMOOTH",
"1194 1484 OFFCURVE",
"1190 1478 OFFCURVE",
"1190 1466 CURVE SMOOTH",
"1190 214 LINE SMOOTH",
"1190 202 OFFCURVE",
"1176 188 OFFCURVE",
"1162 208 CURVE SMOOTH",
"310 1470 LINE SMOOTH",
"302 1482 OFFCURVE",
"296 1484 OFFCURVE",
"282 1484 CURVE SMOOTH",
"240 1484 LINE SMOOTH",
"226 1484 OFFCURVE",
"222 1480 OFFCURVE",
"222 1464 CURVE SMOOTH",
"222 20 LINE SMOOTH",
"222 6 OFFCURVE",
"226 0 OFFCURVE",
"240 0 CURVE SMOOTH",
"290 0 LINE SMOOTH",
"304 0 OFFCURVE",
"310 6 OFFCURVE",
"310 18 CURVE SMOOTH",
"310 1280 LINE SMOOTH",
"310 1296 OFFCURVE",
"314 1300 OFFCURVE",
"328 1280 CURVE SMOOTH",
"1184 24 LINE",
"1184 -82 LINE SMOOTH",
"1184 -224 OFFCURVE",
"1122 -270 OFFCURVE",
"1014 -270 CURVE SMOOTH",
"954 -270 OFFCURVE",
"906 -256 OFFCURVE",
"874 -244 CURVE SMOOTH",
"864 -240 OFFCURVE",
"860 -242 OFFCURVE",
"858 -252 CURVE",
"852 -302 LINE",
"852 -310 OFFCURVE",
"854 -316 OFFCURVE",
"860 -320 CURVE SMOOTH",
"874 -330 OFFCURVE",
"940 -350 OFFCURVE",
"1022 -350 CURVE SMOOTH",
"1210 -350 OFFCURVE",
"1276 -248 OFFCURVE",
"1276 -92 CURVE SMOOTH",
"1276 1464 LINE SMOOTH",
"1276 1480 OFFCURVE",
"1272 1484 OFFCURVE",
"1258 1484 CURVE SMOOTH"
);
}
);
};
components = (
{
name = N;
},
{
alignment = -1;
name = "_j-hook";
transform = "{1, 0, 0, 1, 610, -460}";
}
);
layerId = "91AB5BCA-6A50-42DA-B2F7-8181BF189245";
width = 1348;
}
);
leftKerningGroup = N;
leftMetricsKey = N;
rightKerningGroup = N;
rightMetricsKey = N;
unicode = 014A;
},
{
glyphname = O;
lastChange = "2019-04-22 13:43:20 +0000";
layers = (
{
anchors = (
{
name = bottom;
position = "{709, 0}";
},
{
name = horn;
position = "{1359, 1094}";
},
{
name = ogonek;
position = "{889, 20}";
},
{
name = top;
position = "{907, 1446}";
}
);
background = {
anchors = (
{
name = bottom;
position = "{817, 0}";
},
{
name = ogonek;
position = "{999, 20}";
},
{
name = top;
position = "{813, 1484}";
}
);
paths = (
{
closed = 1;
nodes = (
"1251 -20 OFFCURVE",
"1531 278 OFFCURVE",
"1531 738 CURVE SMOOTH",
"1531 1202 OFFCURVE",
"1245 1504 OFFCURVE",
"815 1504 CURVE SMOOTH",
"381 1504 OFFCURVE",
"95 1202 OFFCURVE",
"95 738 CURVE SMOOTH",
"95 276 OFFCURVE",
"373 -20 OFFCURVE",
"815 -20 CURVE SMOOTH"
);
},
{
closed = 1;
nodes = (
"637 292 OFFCURVE",
"571 412 OFFCURVE",
"571 732 CURVE SMOOTH",
"571 1062 OFFCURVE",
"641 1196 OFFCURVE",
"815 1196 CURVE SMOOTH",
"985 1196 OFFCURVE",
"1055 1062 OFFCURVE",
"1055 732 CURVE SMOOTH",
"1055 412 OFFCURVE",
"989 292 OFFCURVE",
"815 292 CURVE SMOOTH"
);
}
);
};
guideLines = (
{
angle = 90;
position = "{-495, 389}";
}
);
layerId = "258ED206-D907-4350-8EBA-CBDDA1C16BF7";
paths = (
{
closed = 1;
nodes = (
"1127 -20 OFFCURVE",
"1443 272 OFFCURVE",
"1511 720 CURVE SMOOTH",
"1579 1172 OFFCURVE",
"1347 1466 OFFCURVE",
"929 1466 CURVE SMOOTH",
"511 1466 OFFCURVE",
"187 1172 OFFCURVE",
"119 720 CURVE SMOOTH",
"51 270 OFFCURVE",
"277 -20 OFFCURVE",
"705 -20 CURVE SMOOTH"
);
},
{
closed = 1;
nodes = (
"593 292 OFFCURVE",
"493 402 OFFCURVE",
"539 714 CURVE SMOOTH",
"589 1036 OFFCURVE",
"723 1154 OFFCURVE",
"883 1154 CURVE SMOOTH",
"1041 1154 OFFCURVE",
"1139 1036 OFFCURVE",
"1089 714 CURVE SMOOTH",
"1043 402 OFFCURVE",
"911 292 OFFCURVE",
"751 292 CURVE SMOOTH"
);
}
);
width = 1573;
},
{
anchors = (
{
name = bottom;
position = "{612, 0}";
},
{
name = horn;
position = "{1128, 1212}";
},
{
name = ogonek;
position = "{740, 18}";
},
{
name = top;
position = "{816, 1446}";
}
);
background = {
anchors = (
{
name = bottom;
position = "{734, 0}";
},
{
name = ogonek;
position = "{874, 18}";
},
{
name = top;
position = "{734, 1484}";
}
);
paths = (
{
closed = 1;
nodes = (
"1106 -20 OFFCURVE",
"1332 244 OFFCURVE",
"1332 738 CURVE SMOOTH",
"1332 1236 OFFCURVE",
"1106 1504 OFFCURVE",
"732 1504 CURVE SMOOTH",
"356 1504 OFFCURVE",
"128 1234 OFFCURVE",
"128 734 CURVE SMOOTH",
"128 242 OFFCURVE",
"352 -20 OFFCURVE",
"730 -20 CURVE SMOOTH"
);
},
{
closed = 1;
nodes = (
"402 64 OFFCURVE",
"224 286 OFFCURVE",
"224 738 CURVE SMOOTH",
"224 1194 OFFCURVE",
"402 1420 OFFCURVE",
"732 1420 CURVE SMOOTH",
"1060 1420 OFFCURVE",
"1236 1196 OFFCURVE",
"1236 738 CURVE SMOOTH",
"1236 284 OFFCURVE",
"1064 64 OFFCURVE",
"734 64 CURVE SMOOTH"
);
}
);
};
guideLines = (
{
angle = 90;
position = "{-444, 400}";
},
{
angle = 90;
position = "{399, 593}";
}
);
layerId = "91AB5BCA-6A50-42DA-B2F7-8181BF189245";
paths = (
{
closed = 1;
nodes = (
"942 -20 OFFCURVE",
"1180 238 OFFCURVE",
"1248 720 CURVE SMOOTH",
"1316 1206 OFFCURVE",
"1152 1466 OFFCURVE",
"816 1466 CURVE SMOOTH",
"478 1466 OFFCURVE",
"236 1204 OFFCURVE",
"168 716 CURVE SMOOTH",
"100 236 OFFCURVE",
"266 -20 OFFCURVE",
"606 -20 CURVE SMOOTH"
);
},
{
closed = 1;
nodes = (
"322 62 OFFCURVE",
"188 278 OFFCURVE",
"250 720 CURVE SMOOTH",
"312 1164 OFFCURVE",
"508 1384 OFFCURVE",
"804 1384 CURVE SMOOTH",
"1100 1384 OFFCURVE",
"1230 1166 OFFCURVE",
"1168 720 CURVE SMOOTH",
"1106 276 OFFCURVE",
"916 62 OFFCURVE",
"620 62 CURVE SMOOTH"
);
}
);
width = 1359;
}
);
leftKerningGroup = O;
rightKerningGroup = O;
unicode = 004F;
},
{
glyphname = Oslash;
lastChange = "2019-04-23 21:00:37 +0000";
layers = (
{
anchors = (
{
name = top;
position = "{928, 1446}";
}
);
background = {
anchors = (
{
name = top;
position = "{818, 1446}";
}
);
paths = (
{
closed = 1;
nodes = (
"1460 1446 LINE SMOOTH",
"1444 1462 OFFCURVE",
"1420 1458 OFFCURVE",
"1400 1438 CURVE SMOOTH",
"1272 1314 LINE",
"1156 1412 OFFCURVE",
"1002 1466 OFFCURVE",
"820 1466 CURVE SMOOTH",
"396 1466 OFFCURVE",
"118 1172 OFFCURVE",
"118 720 CURVE SMOOTH",
"118 552 OFFCURVE",
"156 408 OFFCURVE",
"224 292 CURVE",
"92 164 LINE SMOOTH",
"70 140 OFFCURVE",
"72 120 OFFCURVE",
"100 92 CURVE SMOOTH",
"176 14 LINE SMOOTH",
"208 -18 OFFCURVE",
"232 -16 OFFCURVE",
"260 14 CURVE SMOOTH",
"372 122 LINE",
"488 32 OFFCURVE",
"640 -20 OFFCURVE",
"820 -20 CURVE SMOOTH",
"1246 -20 OFFCURVE",
"1518 272 OFFCURVE",
"1518 720 CURVE SMOOTH",
"1518 884 OFFCURVE",
"1482 1026 OFFCURVE",
"1414 1140 CURVE",
"1562 1286 LINE",
"1582 1302 OFFCURVE",
"1580 1322 OFFCURVE",
"1564 1338 CURVE SMOOTH"
);
},
{
closed = 1;
nodes = (
"582 1036 OFFCURVE",
"650 1166 OFFCURVE",
"820 1166 CURVE SMOOTH",
"906 1166 OFFCURVE",
"966 1132 OFFCURVE",
"1004 1052 CURVE",
"584 642 LINE",
"582 666 OFFCURVE",
"582 690 OFFCURVE",
"582 714 CURVE"
);
},
{
closed = 1;
nodes = (
"1054 402 OFFCURVE",
"990 284 OFFCURVE",
"820 284 CURVE SMOOTH",
"734 284 OFFCURVE",
"674 314 OFFCURVE",
"636 380 CURVE",
"1052 788 LINE",
"1054 762 OFFCURVE",
"1054 740 OFFCURVE",
"1054 714 CURVE SMOOTH"
);
}
);
};
layerId = "258ED206-D907-4350-8EBA-CBDDA1C16BF7";
paths = (
{
closed = 1;
nodes = (
"284 122 LINE",
"386 32 OFFCURVE",
"528 -20 OFFCURVE",
"708 -20 CURVE SMOOTH",
"1130 -20 OFFCURVE",
"1446 272 OFFCURVE",
"1514 720 CURVE SMOOTH",
"1538 884 OFFCURVE",
"1524 1026 OFFCURVE",
"1474 1140 CURVE",
"1672 1312 LINE",
"1546 1472 LINE",
"1358 1314 LINE",
"1258 1412 OFFCURVE",
"1114 1466 OFFCURVE",
"932 1466 CURVE SMOOTH",
"512 1466 OFFCURVE",
"190 1172 OFFCURVE",
"122 720 CURVE SMOOTH",
"96 552 OFFCURVE",
"112 408 OFFCURVE",
"162 292 CURVE",
"-24 134 LINE",
"106 -28 LINE"
);
},
{
closed = 1;
nodes = (
"668 284 OFFCURVE",
"614 314 OFFCURVE",
"586 380 CURVE",
"1062 790 LINE",
"1044 670 OFFCURVE",
"1024 576 OFFCURVE",
"998 502 CURVE SMOOTH",
"944 348 OFFCURVE",
"866 284 OFFCURVE",
"754 284 CURVE SMOOTH"
);
},
{
closed = 1;
nodes = (
"586 740 OFFCURVE",
"604 824 OFFCURVE",
"626 894 CURVE SMOOTH",
"682 1084 OFFCURVE",
"764 1166 OFFCURVE",
"888 1166 CURVE SMOOTH",
"972 1166 OFFCURVE",
"1028 1132 OFFCURVE",
"1052 1052 CURVE",
"572 640 LINE"
);
}
);
width = 1600;
},
{
anchors = (
{
name = top;
position = "{805, 1446}";
}
);
background = {
anchors = (
{
name = top;
position = "{703, 1446}";
}
);
paths = (
{
closed = 1;
nodes = (
"1295 1460 LINE",
"1287 1468 OFFCURVE",
"1279 1464 OFFCURVE",
"1271 1454 CURVE",
"1125 1286 LINE",
"1023 1404 OFFCURVE",
"881 1466 OFFCURVE",
"703 1466 CURVE SMOOTH",
"337 1466 OFFCURVE",
"115 1204 OFFCURVE",
"115 716 CURVE SMOOTH",
"115 518 OFFCURVE",
"151 358 OFFCURVE",
"221 240 CURVE",
"57 50 LINE",
"49 40 OFFCURVE",
"51 36 OFFCURVE",
"65 22 CURVE SMOOTH",
"99 -10 LINE",
"115 -22 OFFCURVE",
"125 -22 OFFCURVE",
"135 -6 CURVE",
"279 158 LINE",
"377 40 OFFCURVE",
"521 -20 OFFCURVE",
"701 -20 CURVE SMOOTH",
"1067 -20 OFFCURVE",
"1289 238 OFFCURVE",
"1289 720 CURVE SMOOTH",
"1289 920 OFFCURVE",
"1251 1082 OFFCURVE",
"1181 1204 CURVE",
"1347 1396 LINE",
"1353 1404 OFFCURVE",
"1351 1412 OFFCURVE",
"1345 1418 CURVE"
);
},
{
closed = 1;
nodes = (
"213 1164 OFFCURVE",
"381 1382 OFFCURVE",
"703 1382 CURVE SMOOTH",
"863 1382 OFFCURVE",
"983 1328 OFFCURVE",
"1065 1218 CURVE",
"285 314 LINE",
"237 418 OFFCURVE",
"213 552 OFFCURVE",
"213 720 CURVE SMOOTH"
);
},
{
closed = 1;
nodes = (
"1189 276 OFFCURVE",
"1027 64 OFFCURVE",
"705 64 CURVE SMOOTH",
"543 64 OFFCURVE",
"421 118 OFFCURVE",
"337 228 CURVE",
"1117 1132 LINE",
"1165 1026 OFFCURVE",
"1189 890 OFFCURVE",
"1189 720 CURVE SMOOTH"
);
}
);
};
layerId = "91AB5BCA-6A50-42DA-B2F7-8181BF189245";
paths = (
{
closed = 1;
nodes = (
"233 158 LINE",
"307 40 OFFCURVE",
"431 -20 OFFCURVE",
"597 -20 CURVE SMOOTH",
"933 -20 OFFCURVE",
"1175 238 OFFCURVE",
"1241 720 CURVE SMOOTH",
"1269 920 OFFCURVE",
"1257 1082 OFFCURVE",
"1211 1204 CURVE",
"1401 1408 LINE",
"1343 1470 LINE",
"1171 1286 LINE",
"1093 1404 OFFCURVE",
"971 1466 OFFCURVE",
"807 1466 CURVE SMOOTH",
"471 1466 OFFCURVE",
"229 1204 OFFCURVE",
"161 716 CURVE SMOOTH",
"133 518 OFFCURVE",
"143 358 OFFCURVE",
"191 240 CURVE",
"3 38 LINE",
"59 -26 LINE"
);
},
{
closed = 1;
nodes = (
"463 64 OFFCURVE",
"359 118 OFFCURVE",
"297 228 CURVE",
"1141 1132 LINE",
"1171 1026 OFFCURVE",
"1173 890 OFFCURVE",
"1149 720 CURVE SMOOTH",
"1087 276 OFFCURVE",
"909 64 OFFCURVE",
"613 64 CURVE SMOOTH"
);
},
{
closed = 1;
nodes = (
"231 418 OFFCURVE",
"229 552 OFFCURVE",
"251 720 CURVE SMOOTH",
"315 1164 OFFCURVE",
"499 1382 OFFCURVE",
"795 1382 CURVE SMOOTH",
"943 1382 OFFCURVE",
"1045 1328 OFFCURVE",
"1105 1218 CURVE",
"261 314 LINE"
);
}
);
width = 1346;
}
);
leftKerningGroup = Oslash;
rightKerningGroup = Oslash;
unicode = 00D8;
},
{
glyphname = OE;
lastChange = "2019-04-22 13:43:20 +0000";
layers = (
{
background = {
paths = (
{
closed = 1;
nodes = (
"1509 328 LINE",
"1509 584 LINE",
"1947 584 LINE",
"1947 906 LINE",
"1509 906 LINE",
"1509 1156 LINE",
"2207 1156 LINE",
"2209 1484 LINE",
"1245 1484 LINE",
"1121 1484 LINE",
"1051 1498 OFFCURVE",
"965 1504 OFFCURVE",
"863 1504 CURVE SMOOTH",
"381 1504 OFFCURVE",
"95 1202 OFFCURVE",
"95 738 CURVE SMOOTH",
"95 276 OFFCURVE",
"373 -20 OFFCURVE",
"839 -20 CURVE SMOOTH",
"951 -20 OFFCURVE",
"1045 -14 OFFCURVE",
"1121 0 CURVE",
"1221 0 LINE",
"1235 0 OFFCURVE",
"1249 0 OFFCURVE",
"1263 0 CURVE",
"2179 0 LINE SMOOTH",
"2213 0 OFFCURVE",
"2227 20 OFFCURVE",
"2227 44 CURVE SMOOTH",
"2227 290 LINE SMOOTH",
"2227 318 OFFCURVE",
"2211 328 OFFCURVE",
"2183 328 CURVE SMOOTH"
);
},
{
closed = 1;
nodes = (
"637 292 OFFCURVE",
"571 412 OFFCURVE",
"571 732 CURVE SMOOTH",
"571 1062 OFFCURVE",
"641 1196 OFFCURVE",
"815 1196 CURVE SMOOTH",
"985 1196 OFFCURVE",
"1055 1062 OFFCURVE",
"1055 732 CURVE SMOOTH",
"1055 412 OFFCURVE",
"989 292 OFFCURVE",
"815 292 CURVE SMOOTH"
);
}
);
};
layerId = "258ED206-D907-4350-8EBA-CBDDA1C16BF7";
paths = (
{
closed = 1;
nodes = (
"835 -20 OFFCURVE",
"927 -14 OFFCURVE",
"1003 0 CURVE",
"1099 0 LINE",
"2073 0 LINE",
"2123 320 LINE",
"1427 320 LINE",
"1465 570 LINE",
"1889 570 LINE",
"1937 884 LINE",
"1513 884 LINE",
"1549 1128 LINE",
"2227 1128 LINE",
"2277 1446 LINE",
"1343 1446 LINE",
"1221 1446 LINE",
"1157 1460 OFFCURVE",
"1073 1466 OFFCURVE",
"975 1466 CURVE SMOOTH",
"509 1466 OFFCURVE",
"187 1172 OFFCURVE",
"119 720 CURVE SMOOTH",
"49 270 OFFCURVE",
"277 -20 OFFCURVE",
"727 -20 CURVE SMOOTH"
);
},
{
closed = 1;
nodes = (
"577 284 OFFCURVE",
"531 402 OFFCURVE",
"579 714 CURVE SMOOTH",
"627 1036 OFFCURVE",
"715 1166 OFFCURVE",
"883 1166 CURVE SMOOTH",
"1049 1166 OFFCURVE",
"1097 1036 OFFCURVE",
"1047 714 CURVE SMOOTH",
"999 402 OFFCURVE",
"919 284 OFFCURVE",
"749 284 CURVE SMOOTH"
);
}
);
width = 2261;
},
{
background = {
paths = (
{
closed = 1;
nodes = (
"1320 80 LINE SMOOTH",
"1306 80 OFFCURVE",
"1302 82 OFFCURVE",
"1302 98 CURVE SMOOTH",
"1302 692 LINE SMOOTH",
"1302 708 OFFCURVE",
"1306 710 OFFCURVE",
"1320 710 CURVE SMOOTH",
"1874 710 LINE SMOOTH",
"1886 710 OFFCURVE",
"1890 712 OFFCURVE",
"1890 724 CURVE SMOOTH",
"1890 776 LINE SMOOTH",
"1890 786 OFFCURVE",
"1886 790 OFFCURVE",
"1876 790 CURVE SMOOTH",
"1320 790 LINE SMOOTH",
"1306 790 OFFCURVE",
"1302 792 OFFCURVE",
"1302 804 CURVE SMOOTH",
"1302 1386 LINE SMOOTH",
"1302 1402 OFFCURVE",
"1306 1404 OFFCURVE",
"1320 1404 CURVE SMOOTH",
"2036 1404 LINE SMOOTH",
"2048 1404 OFFCURVE",
"2052 1406 OFFCURVE",
"2052 1418 CURVE SMOOTH",
"2052 1470 LINE SMOOTH",
"2052 1480 OFFCURVE",
"2048 1484 OFFCURVE",
"2038 1484 CURVE SMOOTH",
"1228 1484 LINE SMOOTH",
"1214 1484 OFFCURVE",
"1210 1480 OFFCURVE",
"1210 1464 CURVE SMOOTH",
"1210 1200 LINE",
"1110 1400 OFFCURVE",
"936 1504 OFFCURVE",
"702 1504 CURVE SMOOTH",
"326 1504 OFFCURVE",
"98 1234 OFFCURVE",
"98 734 CURVE SMOOTH",
"98 242 OFFCURVE",
"322 -20 OFFCURVE",
"700 -20 CURVE SMOOTH",
"934 -20 OFFCURVE",
"1110 82 OFFCURVE",
"1210 280 CURVE",
"1210 20 LINE SMOOTH",
"1210 4 OFFCURVE",
"1214 0 OFFCURVE",
"1228 0 CURVE SMOOTH",
"2068 0 LINE SMOOTH",
"2078 0 OFFCURVE",
"2082 4 OFFCURVE",
"2082 14 CURVE SMOOTH",
"2082 66 LINE SMOOTH",
"2082 78 OFFCURVE",
"2078 80 OFFCURVE",
"2066 80 CURVE SMOOTH"
);
},
{
closed = 1;
nodes = (
"372 64 OFFCURVE",
"194 286 OFFCURVE",
"194 738 CURVE SMOOTH",
"194 1194 OFFCURVE",
"372 1420 OFFCURVE",
"702 1420 CURVE SMOOTH",
"1030 1420 OFFCURVE",
"1200 1196 OFFCURVE",
"1200 738 CURVE SMOOTH",
"1200 284 OFFCURVE",
"1034 64 OFFCURVE",
"704 64 CURVE SMOOTH"
);
}
);
};
layerId = "91AB5BCA-6A50-42DA-B2F7-8181BF189245";
paths = (
{
closed = 1;
nodes = (
"816 -20 OFFCURVE",
"988 80 OFFCURVE",
"1104 274 CURVE",
"1066 0 LINE",
"1848 0 LINE",
"1860 78 LINE",
"1158 78 LINE",
"1246 692 LINE",
"1774 692 LINE",
"1784 770 LINE",
"1256 770 LINE",
"1340 1368 LINE",
"2014 1368 LINE",
"2024 1446 LINE",
"1268 1446 LINE",
"1230 1170 LINE",
"1168 1366 OFFCURVE",
"1026 1466 OFFCURVE",
"816 1466 CURVE SMOOTH",
"480 1466 OFFCURVE",
"238 1204 OFFCURVE",
"168 716 CURVE SMOOTH",
"100 236 OFFCURVE",
"268 -20 OFFCURVE",
"606 -20 CURVE SMOOTH"
);
},
{
closed = 1;
nodes = (
"324 62 OFFCURVE",
"194 278 OFFCURVE",
"256 720 CURVE SMOOTH",
"318 1164 OFFCURVE",
"508 1384 OFFCURVE",
"806 1384 CURVE SMOOTH",
"1100 1384 OFFCURVE",
"1222 1166 OFFCURVE",
"1158 720 CURVE SMOOTH",
"1096 276 OFFCURVE",
"918 62 OFFCURVE",
"622 62 CURVE SMOOTH"
);
}
);
width = 2062;
}
);
leftKerningGroup = O;
leftMetricsKey = O;
rightKerningGroup = E;
rightMetricsKey = E;
unicode = 0152;
},
{
glyphname = P;
lastChange = "2019-04-22 13:43:20 +0000";
layers = (
{
background = {
paths = (
{
closed = 1;
nodes = (
"1421 1324 OFFCURVE",
"1147 1484 OFFCURVE",
"819 1484 CURVE SMOOTH",
"157 1484 LINE SMOOTH",
"133 1484 OFFCURVE",
"119 1468 OFFCURVE",
"119 1438 CURVE SMOOTH",
"119 50 LINE SMOOTH",
"119 16 OFFCURVE",
"131 0 OFFCURVE",
"171 0 CURVE SMOOTH",
"507 0 LINE SMOOTH",
"553 0 OFFCURVE",
"573 16 OFFCURVE",
"573 58 CURVE SMOOTH",
"573 510 LINE SMOOTH",
"573 524 OFFCURVE",
"579 532 OFFCURVE",
"597 532 CURVE SMOOTH",
"871 532 LINE SMOOTH",
"1197 532 OFFCURVE",
"1421 710 OFFCURVE",
"1421 1002 CURVE SMOOTH"
);
},
{
closed = 1;
nodes = (
"957 922 OFFCURVE",
"899 852 OFFCURVE",
"803 852 CURVE SMOOTH",
"607 852 LINE SMOOTH",
"581 852 OFFCURVE",
"573 866 OFFCURVE",
"573 896 CURVE SMOOTH",
"573 1122 LINE SMOOTH",
"573 1152 OFFCURVE",
"585 1164 OFFCURVE",
"619 1164 CURVE SMOOTH",
"791 1164 LINE SMOOTH",
"883 1164 OFFCURVE",
"957 1104 OFFCURVE",
"957 1008 CURVE SMOOTH"
);
}
);
};
layerId = "258ED206-D907-4350-8EBA-CBDDA1C16BF7";
paths = (
{
closed = 1;
nodes = (
"455 0 LINE",
"531 498 LINE",
"761 498 LINE SMOOTH",
"1077 498 OFFCURVE",
"1301 670 OFFCURVE",
"1345 956 CURVE SMOOTH",
"1393 1270 OFFCURVE",
"1173 1446 OFFCURVE",
"855 1446 CURVE SMOOTH",
"287 1446 LINE",
"67 0 LINE"
);
},
{
closed = 1;
nodes = (
"627 1158 LINE",
"849 1158 LINE SMOOTH",
"935 1158 OFFCURVE",
"1007 1076 OFFCURVE",
"993 976 CURVE SMOOTH",
"979 882 OFFCURVE",
"891 788 OFFCURVE",
"793 788 CURVE SMOOTH",
"571 788 LINE"
);
}
);
width = 1343;
},
{
background = {
paths = (
{
closed = 1;
nodes = (
"1203 1368 OFFCURVE",
"981 1484 OFFCURVE",
"671 1484 CURVE SMOOTH",
"227 1484 LINE SMOOTH",
"213 1484 OFFCURVE",
"209 1480 OFFCURVE",
"209 1464 CURVE SMOOTH",
"209 16 LINE SMOOTH",
"209 6 OFFCURVE",
"215 0 OFFCURVE",
"225 0 CURVE SMOOTH",
"285 0 LINE SMOOTH",
"295 0 OFFCURVE",
"301 6 OFFCURVE",
"301 18 CURVE SMOOTH",
"301 636 LINE SMOOTH",
"301 648 OFFCURVE",
"305 654 OFFCURVE",
"317 654 CURVE SMOOTH",
"683 654 LINE SMOOTH",
"985 654 OFFCURVE",
"1203 774 OFFCURVE",
"1203 1070 CURVE SMOOTH"
);
},
{
closed = 1;
nodes = (
"1107 830 OFFCURVE",
"939 734 OFFCURVE",
"683 734 CURVE SMOOTH",
"315 734 LINE SMOOTH",
"305 734 OFFCURVE",
"301 740 OFFCURVE",
"301 754 CURVE SMOOTH",
"301 1388 LINE SMOOTH",
"301 1400 OFFCURVE",
"307 1404 OFFCURVE",
"319 1404 CURVE SMOOTH",
"669 1404 LINE SMOOTH",
"939 1404 OFFCURVE",
"1107 1324 OFFCURVE",
"1107 1076 CURVE SMOOTH"
);
}
);
};
layerId = "91AB5BCA-6A50-42DA-B2F7-8181BF189245";
paths = (
{
closed = 1;
nodes = (
"217 0 LINE",
"295 554 LINE",
"637 554 LINE SMOOTH",
"909 554 OFFCURVE",
"1127 716 OFFCURVE",
"1169 1006 CURVE SMOOTH",
"1209 1296 OFFCURVE",
"1031 1446 OFFCURVE",
"751 1446 CURVE SMOOTH",
"341 1446 LINE",
"139 0 LINE"
);
},
{
closed = 1;
nodes = (
"409 1362 LINE",
"737 1362 LINE SMOOTH",
"981 1362 OFFCURVE",
"1121 1252 OFFCURVE",
"1089 1012 CURVE SMOOTH",
"1055 772 OFFCURVE",
"879 640 OFFCURVE",
"649 640 CURVE SMOOTH",
"307 640 LINE"
);
}
);
width = 1170;
}
);
leftKerningGroup = N;
leftMetricsKey = N;
rightKerningGroup = P;
unicode = 0050;
},
{
glyphname = Thorn;
lastChange = "2019-04-22 13:43:20 +0000";
layers = (
{
background = {
paths = (
{
closed = 1;
nodes = (
"1479 1060 OFFCURVE",
"1205 1216 OFFCURVE",
"877 1216 CURVE SMOOTH",
"625 1216 LINE SMOOTH",
"611 1216 OFFCURVE",
"605 1224 OFFCURVE",
"605 1240 CURVE SMOOTH",
"605 1442 LINE SMOOTH",
"605 1468 OFFCURVE",
"593 1484 OFFCURVE",
"569 1484 CURVE SMOOTH",
"189 1484 LINE SMOOTH",
"167 1484 OFFCURVE",
"151 1468 OFFCURVE",
"151 1438 CURVE SMOOTH",
"151 50 LINE SMOOTH",
"151 16 OFFCURVE",
"163 0 OFFCURVE",
"203 0 CURVE SMOOTH",
"539 0 LINE SMOOTH",
"585 0 OFFCURVE",
"605 16 OFFCURVE",
"605 58 CURVE SMOOTH",
"605 262 LINE SMOOTH",
"605 276 OFFCURVE",
"611 284 OFFCURVE",
"629 284 CURVE SMOOTH",
"929 284 LINE SMOOTH",
"1255 284 OFFCURVE",
"1479 458 OFFCURVE",
"1479 744 CURVE SMOOTH"
);
},
{
closed = 1;
nodes = (
"1015 670 OFFCURVE",
"957 604 OFFCURVE",
"861 604 CURVE SMOOTH",
"639 604 LINE SMOOTH",
"613 604 OFFCURVE",
"605 618 OFFCURVE",
"605 648 CURVE SMOOTH",
"605 854 LINE SMOOTH",
"605 884 OFFCURVE",
"617 896 OFFCURVE",
"651 896 CURVE SMOOTH",
"849 896 LINE SMOOTH",
"941 896 OFFCURVE",
"1015 840 OFFCURVE",
"1015 750 CURVE SMOOTH"
);
}
);
};
layerId = "258ED206-D907-4350-8EBA-CBDDA1C16BF7";
paths = (
{
closed = 1;
nodes = (
"509 0 LINE",
"551 276 LINE",
"865 276 LINE SMOOTH",
"1181 276 OFFCURVE",
"1423 446 OFFCURVE",
"1465 726 CURVE SMOOTH",
"1511 1034 OFFCURVE",
"1269 1186 OFFCURVE",
"951 1186 CURVE SMOOTH",
"689 1186 LINE",
"727 1446 LINE",
"287 1446 LINE",
"67 0 LINE"
);
},
{
closed = 1;
nodes = (
"641 874 LINE",
"877 874 LINE SMOOTH",
"965 874 OFFCURVE",
"1031 820 OFFCURVE",
"1017 732 CURVE SMOOTH",
"1005 654 OFFCURVE",
"937 588 OFFCURVE",
"845 588 CURVE SMOOTH",
"597 588 LINE"
);
}
);
width = 1496;
},
{
background = {
paths = (
{
closed = 1;
nodes = (
"1203 1044 OFFCURVE",
"983 1158 OFFCURVE",
"671 1158 CURVE SMOOTH",
"313 1158 LINE SMOOTH",
"305 1158 OFFCURVE",
"301 1162 OFFCURVE",
"301 1168 CURVE SMOOTH",
"301 1464 LINE SMOOTH",
"301 1480 OFFCURVE",
"297 1484 OFFCURVE",
"283 1484 CURVE SMOOTH",
"227 1484 LINE SMOOTH",
"213 1484 OFFCURVE",
"209 1480 OFFCURVE",
"209 1464 CURVE SMOOTH",
"209 16 LINE SMOOTH",
"209 6 OFFCURVE",
"215 0 OFFCURVE",
"225 0 CURVE SMOOTH",
"285 0 LINE SMOOTH",
"295 0 OFFCURVE",
"301 6 OFFCURVE",
"301 18 CURVE SMOOTH",
"301 346 LINE SMOOTH",
"301 358 OFFCURVE",
"305 364 OFFCURVE",
"317 364 CURVE SMOOTH",
"683 364 LINE SMOOTH",
"983 364 OFFCURVE",
"1203 478 OFFCURVE",
"1203 780 CURVE SMOOTH"
);
},
{
closed = 1;
nodes = (
"1107 536 OFFCURVE",
"939 444 OFFCURVE",
"683 444 CURVE SMOOTH",
"315 444 LINE SMOOTH",
"305 444 OFFCURVE",
"301 450 OFFCURVE",
"301 464 CURVE SMOOTH",
"301 1062 LINE SMOOTH",
"301 1074 OFFCURVE",
"307 1078 OFFCURVE",
"319 1078 CURVE SMOOTH",
"669 1078 LINE SMOOTH",
"939 1078 OFFCURVE",
"1107 1002 OFFCURVE",
"1107 780 CURVE SMOOTH"
);
}
);
};
layerId = "91AB5BCA-6A50-42DA-B2F7-8181BF189245";
paths = (
{
closed = 1;
nodes = (
"221 0 LINE",
"271 354 LINE",
"613 354 LINE SMOOTH",
"883 354 OFFCURVE",
"1097 466 OFFCURVE",
"1137 760 CURVE SMOOTH",
"1173 1018 OFFCURVE",
"993 1130 OFFCURVE",
"711 1130 CURVE SMOOTH",
"379 1130 LINE",
"425 1446 LINE",
"341 1446 LINE",
"139 0 LINE"
);
},
{
closed = 1;
nodes = (
"369 1052 LINE",
"699 1052 LINE SMOOTH",
"941 1052 OFFCURVE",
"1081 976 OFFCURVE",
"1051 760 CURVE SMOOTH",
"1017 522 OFFCURVE",
"853 432 OFFCURVE",
"623 432 CURVE SMOOTH",
"281 432 LINE"
);
}
);
width = 1173;
}
);
leftKerningGroup = N;
leftMetricsKey = P;
rightKerningGroup = P;
rightMetricsKey = P;
unicode = 00DE;
},
{
glyphname = Q;
lastChange = "2019-04-23 21:00:37 +0000";
layers = (
{
background = {
paths = (
{
closed = 1;
nodes = (
"49 276 OFFCURVE",
"327 -20 OFFCURVE",
"769 -20 CURVE SMOOTH",
"821 -20 OFFCURVE",
"863 -18 OFFCURVE",
"911 -12 CURVE SMOOTH",
"925 -10 OFFCURVE",
"935 -12 OFFCURVE",
"941 -20 CURVE SMOOTH",
"1055 -168 OFFCURVE",
"1199 -256 OFFCURVE",
"1399 -256 CURVE SMOOTH",
"1463 -256 OFFCURVE",
"1487 -244 OFFCURVE",
"1487 -194 CURVE SMOOTH",
"1487 26 LINE SMOOTH",
"1487 40 OFFCURVE",
"1481 56 OFFCURVE",
"1453 60 CURVE SMOOTH",
"1367 72 OFFCURVE",
"1273 122 OFFCURVE",
"1273 156 CURVE SMOOTH",
"1273 164 OFFCURVE",
"1273 168 OFFCURVE",
"1277 172 CURVE",
"1411 304 OFFCURVE",
"1487 498 OFFCURVE",
"1487 738 CURVE SMOOTH",
"1487 1202 OFFCURVE",
"1201 1504 OFFCURVE",
"769 1504 CURVE SMOOTH",
"335 1504 OFFCURVE",
"49 1202 OFFCURVE",
"49 738 CURVE SMOOTH"
);
},
{
closed = 1;
nodes = (
"525 1064 OFFCURVE",
"595 1196 OFFCURVE",
"769 1196 CURVE SMOOTH",
"941 1196 OFFCURVE",
"1011 1064 OFFCURVE",
"1011 734 CURVE SMOOTH",
"1011 412 OFFCURVE",
"945 292 OFFCURVE",
"769 292 CURVE SMOOTH",
"591 292 OFFCURVE",
"525 412 OFFCURVE",
"525 734 CURVE SMOOTH"
);
}
);
};
layerId = "258ED206-D907-4350-8EBA-CBDDA1C16BF7";
paths = (
{
closed = 1;
nodes = (
"1381 54 LINE",
"1283 54 OFFCURVE",
"1201 104 OFFCURVE",
"1195 160 CURVE",
"1345 300 OFFCURVE",
"1447 486 OFFCURVE",
"1483 720 CURVE SMOOTH",
"1551 1172 OFFCURVE",
"1319 1466 OFFCURVE",
"899 1466 CURVE SMOOTH",
"481 1466 OFFCURVE",
"157 1172 OFFCURVE",
"89 720 CURVE SMOOTH",
"21 270 OFFCURVE",
"247 -20 OFFCURVE",
"675 -20 CURVE SMOOTH",
"725 -20 OFFCURVE",
"765 -18 OFFCURVE",
"835 -10 CURVE",
"973 -226 OFFCURVE",
"1105 -250 OFFCURVE",
"1335 -250 CURVE"
);
},
{
closed = 1;
nodes = (
"551 292 OFFCURVE",
"465 402 OFFCURVE",
"511 716 CURVE SMOOTH",
"561 1038 OFFCURVE",
"685 1154 OFFCURVE",
"853 1154 CURVE SMOOTH",
"1019 1154 OFFCURVE",
"1109 1038 OFFCURVE",
"1061 716 CURVE SMOOTH",
"1013 402 OFFCURVE",
"893 292 OFFCURVE",
"721 292 CURVE SMOOTH"
);
}
);
width = 1565;
},
{
background = {
paths = (
{
closed = 1;
nodes = (
"83 232 OFFCURVE",
"317 -20 OFFCURVE",
"685 -20 CURVE SMOOTH",
"737 -20 OFFCURVE",
"797 -14 OFFCURVE",
"847 -2 CURVE SMOOTH",
"861 2 OFFCURVE",
"871 -2 OFFCURVE",
"877 -10 CURVE SMOOTH",
"1007 -192 OFFCURVE",
"1139 -244 OFFCURVE",
"1227 -244 CURVE SMOOTH",
"1255 -244 OFFCURVE",
"1267 -240 OFFCURVE",
"1267 -218 CURVE SMOOTH",
"1267 -174 LINE SMOOTH",
"1267 -168 OFFCURVE",
"1265 -162 OFFCURVE",
"1253 -160 CURVE SMOOTH",
"1103 -140 OFFCURVE",
"969 -22 OFFCURVE",
"969 32 CURVE SMOOTH",
"969 40 OFFCURVE",
"971 44 OFFCURVE",
"981 50 CURVE SMOOTH",
"1175 166 OFFCURVE",
"1287 378 OFFCURVE",
"1287 738 CURVE SMOOTH",
"1287 1240 OFFCURVE",
"1061 1504 OFFCURVE",
"685 1504 CURVE SMOOTH",
"309 1504 OFFCURVE",
"83 1240 OFFCURVE",
"83 738 CURVE SMOOTH"
);
},
{
closed = 1;
nodes = (
"179 1184 OFFCURVE",
"351 1420 OFFCURVE",
"685 1420 CURVE SMOOTH",
"1019 1420 OFFCURVE",
"1191 1184 OFFCURVE",
"1191 738 CURVE SMOOTH",
"1191 282 OFFCURVE",
"1013 64 OFFCURVE",
"685 64 CURVE SMOOTH",
"357 64 OFFCURVE",
"179 282 OFFCURVE",
"179 734 CURVE SMOOTH"
);
}
);
};
layerId = "91AB5BCA-6A50-42DA-B2F7-8181BF189245";
paths = (
{
closed = 1;
nodes = (
"1079 -158 LINE",
"963 -152 OFFCURVE",
"867 -100 OFFCURVE",
"825 36 CURVE",
"1057 158 OFFCURVE",
"1173 388 OFFCURVE",
"1219 720 CURVE SMOOTH",
"1287 1210 OFFCURVE",
"1121 1466 OFFCURVE",
"785 1466 CURVE SMOOTH",
"447 1466 OFFCURVE",
"207 1210 OFFCURVE",
"139 720 CURVE SMOOTH",
"69 226 OFFCURVE",
"247 -20 OFFCURVE",
"575 -20 CURVE SMOOTH",
"627 -20 OFFCURVE",
"679 -12 OFFCURVE",
"741 2 CURVE",
"807 -196 OFFCURVE",
"979 -238 OFFCURVE",
"1067 -238 CURVE"
);
},
{
closed = 1;
nodes = (
"293 62 OFFCURVE",
"157 274 OFFCURVE",
"219 716 CURVE SMOOTH",
"281 1154 OFFCURVE",
"473 1384 OFFCURVE",
"773 1384 CURVE SMOOTH",
"1073 1384 OFFCURVE",
"1201 1154 OFFCURVE",
"1139 720 CURVE SMOOTH",
"1077 274 OFFCURVE",
"881 62 OFFCURVE",
"587 62 CURVE SMOOTH"
);
}
);
width = 1320;
}
);
leftKerningGroup = O;
rightKerningGroup = O;
unicode = 0051;
},
{
glyphname = R;
lastChange = "2019-04-23 05:35:57 +0000";
layers = (
{
anchors = (
{
name = bottom;
position = "{647, 0}";
},
{
name = top;
position = "{847, 1446}";
}
);
background = {
anchors = (
{
name = bottom;
position = "{749, 0}";
},
{
name = top;
position = "{729, 1484}";
}
);
paths = (
{
closed = 1;
nodes = (
"1163 624 LINE SMOOTH",
"1157 640 OFFCURVE",
"1157 656 OFFCURVE",
"1171 662 CURVE SMOOTH",
"1323 720 OFFCURVE",
"1433 872 OFFCURVE",
"1433 1060 CURVE SMOOTH",
"1433 1328 OFFCURVE",
"1209 1484 OFFCURVE",
"823 1484 CURVE SMOOTH",
"155 1484 LINE SMOOTH",
"131 1484 OFFCURVE",
"117 1468 OFFCURVE",
"117 1438 CURVE SMOOTH",
"117 50 LINE SMOOTH",
"117 16 OFFCURVE",
"129 0 OFFCURVE",
"169 0 CURVE SMOOTH",
"505 0 LINE SMOOTH",
"551 0 OFFCURVE",
"571 16 OFFCURVE",
"571 58 CURVE SMOOTH",
"571 568 LINE SMOOTH",
"571 574 OFFCURVE",
"577 590 OFFCURVE",
"595 590 CURVE SMOOTH",
"687 590 LINE SMOOTH",
"725 590 OFFCURVE",
"741 580 OFFCURVE",
"749 558 CURVE SMOOTH",
"937 42 LINE SMOOTH",
"945 14 OFFCURVE",
"963 0 OFFCURVE",
"991 0 CURVE SMOOTH",
"1379 0 LINE SMOOTH",
"1411 0 OFFCURVE",
"1429 30 OFFCURVE",
"1415 64 CURVE SMOOTH"
);
},
{
closed = 1;
nodes = (
"605 888 LINE SMOOTH",
"579 888 OFFCURVE",
"571 900 OFFCURVE",
"571 930 CURVE SMOOTH",
"571 1148 LINE SMOOTH",
"571 1178 OFFCURVE",
"583 1188 OFFCURVE",
"617 1188 CURVE SMOOTH",
"793 1188 LINE SMOOTH",
"883 1188 OFFCURVE",
"963 1134 OFFCURVE",
"963 1032 CURVE SMOOTH",
"963 946 OFFCURVE",
"907 888 OFFCURVE",
"805 888 CURVE SMOOTH"
);
}
);
};
layerId = "258ED206-D907-4350-8EBA-CBDDA1C16BF7";
paths = (
{
closed = 1;
nodes = (
"453 0 LINE",
"529 498 LINE",
"733 498 LINE",
"865 0 LINE",
"1261 0 LINE",
"1093 560 LINE",
"1239 642 OFFCURVE",
"1351 758 OFFCURVE",
"1385 980 CURVE SMOOTH",
"1425 1242 OFFCURVE",
"1311 1446 OFFCURVE",
"937 1446 CURVE SMOOTH",
"285 1446 LINE",
"67 0 LINE"
);
},
{
closed = 1;
nodes = (
"629 1158 LINE",
"851 1158 LINE SMOOTH",
"937 1158 OFFCURVE",
"1011 1076 OFFCURVE",
"995 976 CURVE SMOOTH",
"981 882 OFFCURVE",
"893 788 OFFCURVE",
"795 788 CURVE SMOOTH",
"573 788 LINE"
);
}
);
width = 1424;
},
{
anchors = (
{
name = bottom;
position = "{535, 0}";
},
{
name = top;
position = "{725, 1446}";
}
);
background = {
anchors = (
{
name = bottom;
position = "{651, 0}";
},
{
name = top;
position = "{637, 1484}";
}
);
paths = (
{
closed = 1;
nodes = (
"875 718 LINE",
"873 724 OFFCURVE",
"875 730 OFFCURVE",
"883 732 CURVE SMOOTH",
"1021 768 OFFCURVE",
"1187 870 OFFCURVE",
"1187 1116 CURVE SMOOTH",
"1187 1360 OFFCURVE",
"1019 1484 OFFCURVE",
"731 1484 CURVE SMOOTH",
"215 1484 LINE SMOOTH",
"201 1484 OFFCURVE",
"197 1480 OFFCURVE",
"197 1464 CURVE SMOOTH",
"197 18 LINE SMOOTH",
"197 6 OFFCURVE",
"201 0 OFFCURVE",
"217 0 CURVE SMOOTH",
"269 0 LINE SMOOTH",
"285 0 OFFCURVE",
"289 6 OFFCURVE",
"289 22 CURVE SMOOTH",
"289 688 LINE SMOOTH",
"289 702 OFFCURVE",
"295 710 OFFCURVE",
"313 710 CURVE SMOOTH",
"745 710 LINE SMOOTH",
"771 710 OFFCURVE",
"781 704 OFFCURVE",
"787 690 CURVE SMOOTH",
"1071 18 LINE SMOOTH",
"1077 6 OFFCURVE",
"1081 0 OFFCURVE",
"1095 0 CURVE SMOOTH",
"1151 0 LINE SMOOTH",
"1165 0 OFFCURVE",
"1173 14 OFFCURVE",
"1167 28 CURVE SMOOTH"
);
},
{
closed = 1;
nodes = (
"303 790 LINE SMOOTH",
"293 790 OFFCURVE",
"289 796 OFFCURVE",
"289 808 CURVE SMOOTH",
"289 1388 LINE SMOOTH",
"289 1400 OFFCURVE",
"295 1404 OFFCURVE",
"311 1404 CURVE SMOOTH",
"729 1404 LINE SMOOTH",
"971 1404 OFFCURVE",
"1091 1306 OFFCURVE",
"1091 1102 CURVE SMOOTH",
"1091 878 OFFCURVE",
"947 790 OFFCURVE",
"661 790 CURVE SMOOTH"
);
}
);
};
layerId = "91AB5BCA-6A50-42DA-B2F7-8181BF189245";
paths = (
{
closed = 1;
nodes = (
"209 0 LINE",
"307 688 LINE",
"753 688 LINE",
"925 0 LINE",
"1007 0 LINE",
"831 706 LINE",
"965 742 OFFCURVE",
"1135 846 OFFCURVE",
"1169 1088 CURVE SMOOTH",
"1201 1326 OFFCURVE",
"1067 1446 OFFCURVE",
"809 1446 CURVE SMOOTH",
"341 1446 LINE",
"137 0 LINE"
);
},
{
closed = 1;
nodes = (
"401 1366 LINE",
"797 1366 LINE SMOOTH",
"1015 1366 OFFCURVE",
"1117 1280 OFFCURVE",
"1089 1074 CURVE SMOOTH",
"1059 856 OFFCURVE",
"909 770 OFFCURVE",
"653 770 CURVE SMOOTH",
"317 770 LINE"
);
}
);
width = 1239;
}
);
leftKerningGroup = N;
leftMetricsKey = N;
rightKerningGroup = R;
unicode = 0052;
},
{
glyphname = S;
lastChange = "2019-04-23 21:00:37 +0000";
layers = (
{
anchors = (
{
name = bottom;
position = "{645, 0}";
},
{
name = top;
position = "{865, 1446}";
}
);
background = {
anchors = (
{
name = bottom;
position = "{751, 0}";
},
{
name = top;
position = "{751, 1484}";
}
);
paths = (
{
closed = 1;
nodes = (
"1057 1058 OFFCURVE",
"1069 1056 OFFCURVE",
"1089 1070 CURVE SMOOTH",
"1307 1228 LINE SMOOTH",
"1333 1248 OFFCURVE",
"1319 1270 OFFCURVE",
"1307 1288 CURVE SMOOTH",
"1215 1418 OFFCURVE",
"989 1504 OFFCURVE",
"751 1504 CURVE SMOOTH",
"373 1504 OFFCURVE",
"135 1290 OFFCURVE",
"135 1030 CURVE SMOOTH",
"135 820 OFFCURVE",
"287 646 OFFCURVE",
"527 586 CURVE SMOOTH",
"831 512 LINE SMOOTH",
"917 492 OFFCURVE",
"957 452 OFFCURVE",
"957 404 CURVE SMOOTH",
"957 330 OFFCURVE",
"861 288 OFFCURVE",
"715 288 CURVE SMOOTH",
"557 288 OFFCURVE",
"479 334 OFFCURVE",
"391 448 CURVE SMOOTH",
"375 468 OFFCURVE",
"351 476 OFFCURVE",
"315 452 CURVE SMOOTH",
"109 310 LINE SMOOTH",
"81 288 OFFCURVE",
"81 272 OFFCURVE",
"97 244 CURVE SMOOTH",
"191 86 OFFCURVE",
"457 -20 OFFCURVE",
"749 -20 CURVE SMOOTH",
"1143 -20 OFFCURVE",
"1389 172 OFFCURVE",
"1389 468 CURVE SMOOTH",
"1389 674 OFFCURVE",
"1273 842 OFFCURVE",
"1023 904 CURVE SMOOTH",
"691 990 LINE SMOOTH",
"591 1014 OFFCURVE",
"563 1056 OFFCURVE",
"563 1092 CURVE SMOOTH",
"563 1142 OFFCURVE",
"617 1194 OFFCURVE",
"767 1194 CURVE SMOOTH",
"923 1194 OFFCURVE",
"981 1138 OFFCURVE",
"1029 1086 CURVE SMOOTH"
);
}
);
};
guideLines = (
{
angle = 214.3236;
position = "{678, 302}";
}
);
layerId = "258ED206-D907-4350-8EBA-CBDDA1C16BF7";
paths = (
{
closed = 1;
nodes = (
"1009 -20 OFFCURVE",
"1307 164 OFFCURVE",
"1343 410 CURVE SMOOTH",
"1365 554 OFFCURVE",
"1379 814 OFFCURVE",
"973 886 CURVE SMOOTH",
"755 924 LINE SMOOTH",
"633 946 OFFCURVE",
"607 984 OFFCURVE",
"617 1050 CURVE SMOOTH",
"625 1102 OFFCURVE",
"679 1164 OFFCURVE",
"831 1164 CURVE SMOOTH",
"965 1164 OFFCURVE",
"1039 1120 OFFCURVE",
"1033 1008 CURVE",
"1425 1008 LINE",
"1435 1246 OFFCURVE",
"1219 1464 OFFCURVE",
"867 1464 CURVE SMOOTH",
"537 1464 OFFCURVE",
"237 1294 OFFCURVE",
"195 1002 CURVE SMOOTH",
"163 756 OFFCURVE",
"289 612 OFFCURVE",
"509 576 CURVE SMOOTH",
"727 538 LINE SMOOTH",
"845 518 OFFCURVE",
"961 498 OFFCURVE",
"949 410 CURVE SMOOTH",
"933 308 OFFCURVE",
"813 278 OFFCURVE",
"691 278 CURVE SMOOTH",
"557 278 OFFCURVE",
"477 338 OFFCURVE",
"471 440 CURVE",
"69 440 LINE",
"45 118 OFFCURVE",
"347 -20 OFFCURVE",
"649 -20 CURVE SMOOTH"
);
}
);
width = 1438;
},
{
anchors = (
{
name = bottom;
position = "{540, 0}";
},
{
name = top;
position = "{754, 1446}";
}
);
background = {
anchors = (
{
name = bottom;
position = "{678, 0}";
},
{
name = top;
position = "{670, 1484}";
}
);
paths = (
{
closed = 1;
nodes = (
"1044 1240 OFFCURVE",
"1048 1236 OFFCURVE",
"1058 1244 CURVE SMOOTH",
"1102 1284 LINE SMOOTH",
"1114 1294 OFFCURVE",
"1110 1304 OFFCURVE",
"1102 1312 CURVE SMOOTH",
"988 1432 OFFCURVE",
"854 1504 OFFCURVE",
"668 1504 CURVE SMOOTH",
"394 1504 OFFCURVE",
"204 1362 OFFCURVE",
"204 1112 CURVE SMOOTH",
"204 984 OFFCURVE",
"264 842 OFFCURVE",
"480 760 CURVE SMOOTH",
"782 644 LINE SMOOTH",
"1000 560 OFFCURVE",
"1046 478 OFFCURVE",
"1046 360 CURVE SMOOTH",
"1046 146 OFFCURVE",
"888 64 OFFCURVE",
"650 64 CURVE SMOOTH",
"436 64 OFFCURVE",
"340 138 OFFCURVE",
"228 282 CURVE SMOOTH",
"218 294 OFFCURVE",
"208 296 OFFCURVE",
"188 282 CURVE SMOOTH",
"166 266 LINE SMOOTH",
"146 252 OFFCURVE",
"144 240 OFFCURVE",
"154 226 CURVE SMOOTH",
"272 58 OFFCURVE",
"428 -20 OFFCURVE",
"650 -20 CURVE SMOOTH",
"952 -20 OFFCURVE",
"1138 120 OFFCURVE",
"1138 364 CURVE SMOOTH",
"1138 532 OFFCURVE",
"1052 652 OFFCURVE",
"816 738 CURVE SMOOTH",
"540 838 LINE SMOOTH",
"326 916 OFFCURVE",
"296 1036 OFFCURVE",
"296 1114 CURVE SMOOTH",
"296 1312 OFFCURVE",
"444 1420 OFFCURVE",
"662 1420 CURVE SMOOTH",
"830 1420 OFFCURVE",
"952 1348 OFFCURVE",
"1032 1254 CURVE SMOOTH"
);
}
);
};
layerId = "91AB5BCA-6A50-42DA-B2F7-8181BF189245";
paths = (
{
closed = 1;
nodes = (
"874 -20 OFFCURVE",
"1056 150 OFFCURVE",
"1084 354 CURVE SMOOTH",
"1108 518 OFFCURVE",
"1052 668 OFFCURVE",
"852 728 CURVE SMOOTH",
"580 808 LINE SMOOTH",
"378 868 OFFCURVE",
"320 942 OFFCURVE",
"338 1066 CURVE SMOOTH",
"368 1286 OFFCURVE",
"586 1382 OFFCURVE",
"744 1382 CURVE SMOOTH",
"926 1382 OFFCURVE",
"1080 1300 OFFCURVE",
"1084 1064 CURVE",
"1160 1080 LINE",
"1170 1280 OFFCURVE",
"1062 1464 OFFCURVE",
"760 1464 CURVE SMOOTH",
"492 1464 OFFCURVE",
"290 1292 OFFCURVE",
"258 1064 CURVE SMOOTH",
"234 892 OFFCURVE",
"332 798 OFFCURVE",
"520 744 CURVE SMOOTH",
"806 664 LINE SMOOTH",
"970 618 OFFCURVE",
"1026 504 OFFCURVE",
"1004 350 CURVE SMOOTH",
"980 180 OFFCURVE",
"802 58 OFFCURVE",
"570 58 CURVE SMOOTH",
"374 58 OFFCURVE",
"206 156 OFFCURVE",
"194 352 CURVE",
"114 334 LINE",
"122 110 OFFCURVE",
"316 -20 OFFCURVE",
"558 -20 CURVE SMOOTH"
);
}
);
width = 1267;
}
);
leftKerningGroup = S;
rightKerningGroup = S;
unicode = 0053;
},
{
glyphname = Schwa;
lastChange = "2019-04-23 05:35:57 +0000";
layers = (
{
background = {
paths = (
{
closed = 1;
nodes = (
"1047 862 OFFCURVE",
"1033 850 OFFCURVE",
"1007 850 CURVE SMOOTH",
"141 850 LINE SMOOTH",
"97 850 OFFCURVE",
"95 828 OFFCURVE",
"95 784 CURVE SMOOTH",
"95 272 OFFCURVE",
"337 -20 OFFCURVE",
"803 -20 CURVE SMOOTH",
"1189 -20 OFFCURVE",
"1527 316 OFFCURVE",
"1527 760 CURVE SMOOTH",
"1527 1198 OFFCURVE",
"1253 1504 OFFCURVE",
"809 1504 CURVE SMOOTH",
"517 1504 OFFCURVE",
"305 1378 OFFCURVE",
"181 1134 CURVE SMOOTH",
"165 1102 OFFCURVE",
"167 1084 OFFCURVE",
"191 1072 CURVE SMOOTH",
"467 936 LINE SMOOTH",
"501 918 OFFCURVE",
"513 924 OFFCURVE",
"521 938 CURVE SMOOTH",
"613 1088 OFFCURVE",
"689 1156 OFFCURVE",
"813 1156 CURVE SMOOTH",
"1009 1156 OFFCURVE",
"1047 1012 OFFCURVE",
"1047 894 CURVE SMOOTH"
);
},
{
closed = 1;
nodes = (
"1019 384 OFFCURVE",
"961 292 OFFCURVE",
"799 292 CURVE SMOOTH",
"663 292 OFFCURVE",
"581 402 OFFCURVE",
"581 534 CURVE SMOOTH",
"581 564 OFFCURVE",
"591 570 OFFCURVE",
"625 570 CURVE SMOOTH",
"1043 568 LINE"
);
}
);
};
layerId = "258ED206-D907-4350-8EBA-CBDDA1C16BF7";
paths = (
{
closed = 1;
nodes = (
"1065 -20 OFFCURVE",
"1443 308 OFFCURVE",
"1509 742 CURVE SMOOTH",
"1573 1168 OFFCURVE",
"1355 1466 OFFCURVE",
"923 1466 CURVE SMOOTH",
"641 1466 OFFCURVE",
"417 1344 OFFCURVE",
"261 1106 CURVE SMOOTH",
"241 1074 OFFCURVE",
"239 1056 OFFCURVE",
"261 1046 CURVE SMOOTH",
"507 912 LINE SMOOTH",
"539 896 OFFCURVE",
"551 900 OFFCURVE",
"561 914 CURVE SMOOTH",
"673 1060 OFFCURVE",
"757 1128 OFFCURVE",
"877 1128 CURVE SMOOTH",
"1067 1128 OFFCURVE",
"1081 986 OFFCURVE",
"1065 872 CURVE SMOOTH",
"1059 840 OFFCURVE",
"1043 828 OFFCURVE",
"1019 828 CURVE SMOOTH",
"181 828 LINE SMOOTH",
"137 828 OFFCURVE",
"133 808 OFFCURVE",
"125 764 CURVE SMOOTH",
"49 266 OFFCURVE",
"241 -20 OFFCURVE",
"693 -20 CURVE SMOOTH"
);
},
{
closed = 1;
nodes = (
"603 284 OFFCURVE",
"541 392 OFFCURVE",
"559 520 CURVE SMOOTH",
"565 550 OFFCURVE",
"575 556 OFFCURVE",
"607 556 CURVE SMOOTH",
"1011 554 LINE",
"963 374 OFFCURVE",
"891 284 OFFCURVE",
"735 284 CURVE SMOOTH"
);
}
);
width = 1567;
},
{
background = {
paths = (
{
closed = 1;
nodes = (
"1227 762 OFFCURVE",
"1225 760 OFFCURVE",
"1215 760 CURVE SMOOTH",
"145 760 LINE SMOOTH",
"129 760 OFFCURVE",
"129 750 OFFCURVE",
"129 738 CURVE SMOOTH",
"129 348 OFFCURVE",
"261 -20 OFFCURVE",
"731 -20 CURVE SMOOTH",
"1189 -20 OFFCURVE",
"1331 360 OFFCURVE",
"1331 732 CURVE SMOOTH",
"1331 1062 OFFCURVE",
"1231 1504 OFFCURVE",
"731 1504 CURVE SMOOTH",
"275 1504 OFFCURVE",
"187 1120 OFFCURVE",
"157 1044 CURVE SMOOTH",
"153 1034 OFFCURVE",
"151 1028 OFFCURVE",
"159 1026 CURVE SMOOTH",
"235 1000 LINE SMOOTH",
"243 998 OFFCURVE",
"247 996 OFFCURVE",
"249 1000 CURVE SMOOTH",
"277 1062 OFFCURVE",
"313 1418 OFFCURVE",
"731 1418 CURVE SMOOTH",
"1167 1418 OFFCURVE",
"1227 1008 OFFCURVE",
"1227 772 CURVE SMOOTH"
);
},
{
closed = 1;
nodes = (
"1221 382 OFFCURVE",
"1123 66 OFFCURVE",
"731 66 CURVE SMOOTH",
"337 66 OFFCURVE",
"233 384 OFFCURVE",
"233 664 CURVE SMOOTH",
"233 672 OFFCURVE",
"237 676 OFFCURVE",
"249 676 CURVE SMOOTH",
"1227 676 LINE"
);
}
);
};
layerId = "91AB5BCA-6A50-42DA-B2F7-8181BF189245";
paths = (
{
closed = 1;
nodes = (
"1017 -20 OFFCURVE",
"1195 352 OFFCURVE",
"1247 714 CURVE SMOOTH",
"1293 1036 OFFCURVE",
"1265 1466 OFFCURVE",
"815 1466 CURVE SMOOTH",
"407 1466 OFFCURVE",
"275 1092 OFFCURVE",
"237 1018 CURVE SMOOTH",
"233 1008 OFFCURVE",
"229 1002 OFFCURVE",
"237 1000 CURVE SMOOTH",
"301 976 LINE SMOOTH",
"309 974 OFFCURVE",
"311 972 OFFCURVE",
"313 976 CURVE SMOOTH",
"349 1036 OFFCURVE",
"429 1382 OFFCURVE",
"803 1382 CURVE SMOOTH",
"1193 1382 OFFCURVE",
"1193 982 OFFCURVE",
"1161 752 CURVE SMOOTH",
"1159 742 OFFCURVE",
"1157 742 OFFCURVE",
"1147 742 CURVE SMOOTH",
"187 742 LINE SMOOTH",
"173 742 OFFCURVE",
"171 732 OFFCURVE",
"169 720 CURVE SMOOTH",
"117 340 OFFCURVE",
"185 -20 OFFCURVE",
"607 -20 CURVE SMOOTH"
);
},
{
closed = 1;
nodes = (
"265 64 OFFCURVE",
"215 374 OFFCURVE",
"253 648 CURVE SMOOTH",
"255 656 OFFCURVE",
"259 660 OFFCURVE",
"269 660 CURVE SMOOTH",
"1147 660 LINE",
"1101 372 OFFCURVE",
"969 64 OFFCURVE",
"619 64 CURVE SMOOTH"
);
}
);
width = 1359;
}
);
leftKerningGroup = e;
leftMetricsKey = O;
rightKerningGroup = e;
rightMetricsKey = O;
unicode = 018F;
},
{
glyphname = T;
lastChange = "2019-04-23 05:35:57 +0000";
layers = (
{
anchors = (
{
name = bottom;
position = "{564, 0}";
},
{
name = top;
position = "{784, 1446}";
}
);
background = {
anchors = (
{
name = bottom;
position = "{682, 0}";
},
{
name = top;
position = "{682, 1484}";
}
);
paths = (
{
closed = 1;
nodes = (
"34 1172 OFFCURVE",
"52 1162 OFFCURVE",
"80 1162 CURVE SMOOTH",
"432 1162 LINE SMOOTH",
"448 1162 OFFCURVE",
"454 1154 OFFCURVE",
"454 1134 CURVE SMOOTH",
"454 40 LINE SMOOTH",
"454 14 OFFCURVE",
"468 0 OFFCURVE",
"490 0 CURVE SMOOTH",
"870 0 LINE SMOOTH",
"892 0 OFFCURVE",
"908 14 OFFCURVE",
"908 44 CURVE SMOOTH",
"908 1142 LINE SMOOTH",
"908 1156 OFFCURVE",
"916 1162 OFFCURVE",
"932 1162 CURVE SMOOTH",
"1286 1162 LINE SMOOTH",
"1312 1162 OFFCURVE",
"1330 1172 OFFCURVE",
"1330 1200 CURVE SMOOTH",
"1330 1438 LINE SMOOTH",
"1330 1464 OFFCURVE",
"1314 1484 OFFCURVE",
"1280 1484 CURVE SMOOTH",
"84 1484 LINE SMOOTH",
"50 1484 OFFCURVE",
"34 1464 OFFCURVE",
"34 1438 CURVE SMOOTH",
"34 1200 LINE SMOOTH"
);
}
);
};
layerId = "258ED206-D907-4350-8EBA-CBDDA1C16BF7";
paths = (
{
closed = 1;
nodes = (
"738 0 LINE",
"906 1104 LINE",
"1318 1104 LINE",
"1370 1446 LINE",
"164 1446 LINE",
"112 1104 LINE",
"518 1104 LINE",
"352 0 LINE"
);
}
);
width = 1269;
},
{
anchors = (
{
name = bottom;
position = "{455, 4}";
},
{
name = top;
position = "{657, 1446}";
}
);
background = {
anchors = (
{
name = bottom;
position = "{573, 0}";
},
{
name = top;
position = "{573, 1484}";
}
);
paths = (
{
closed = 1;
nodes = (
"21 1406 OFFCURVE",
"25 1404 OFFCURVE",
"37 1404 CURVE SMOOTH",
"505 1404 LINE SMOOTH",
"521 1404 OFFCURVE",
"525 1402 OFFCURVE",
"525 1386 CURVE SMOOTH",
"525 20 LINE SMOOTH",
"525 4 OFFCURVE",
"529 0 OFFCURVE",
"545 0 CURVE SMOOTH",
"599 0 LINE SMOOTH",
"613 0 OFFCURVE",
"617 4 OFFCURVE",
"617 20 CURVE SMOOTH",
"617 1386 LINE SMOOTH",
"617 1402 OFFCURVE",
"621 1404 OFFCURVE",
"637 1404 CURVE SMOOTH",
"1063 1404 LINE SMOOTH",
"1075 1404 OFFCURVE",
"1079 1406 OFFCURVE",
"1079 1418 CURVE SMOOTH",
"1079 1470 LINE SMOOTH",
"1079 1480 OFFCURVE",
"1075 1484 OFFCURVE",
"1065 1484 CURVE SMOOTH",
"35 1484 LINE SMOOTH",
"25 1484 OFFCURVE",
"21 1480 OFFCURVE",
"21 1470 CURVE SMOOTH",
"21 1418 LINE SMOOTH"
);
}
);
};
layerId = "91AB5BCA-6A50-42DA-B2F7-8181BF189245";
paths = (
{
closed = 1;
nodes = (
"487 0 LINE",
"679 1366 LINE",
"1099 1366 LINE",
"1109 1446 LINE",
"161 1446 LINE",
"151 1366 LINE",
"607 1366 LINE",
"415 0 LINE"
);
}
);
width = 1010;
}
);
leftKerningGroup = T;
rightKerningGroup = T;
unicode = 0054;
},
{
glyphname = Tbar;
lastChange = "2019-04-24 18:08:47 +0000";
layers = (
{
background = {
components = (
{
name = T;
transform = "{1, 0, 0, 1, -22, 0}";
}
);
paths = (
{
closed = 1;
nodes = (
"1064 828 OFFCURVE",
"1050 844 OFFCURVE",
"1028 844 CURVE SMOOTH",
"226 844 LINE SMOOTH",
"202 844 OFFCURVE",
"188 828 OFFCURVE",
"188 798 CURVE SMOOTH",
"188 612 LINE SMOOTH",
"188 578 OFFCURVE",
"200 562 OFFCURVE",
"240 562 CURVE SMOOTH",
"998 562 LINE SMOOTH",
"1044 562 OFFCURVE",
"1064 578 OFFCURVE",
"1064 618 CURVE SMOOTH",
"1064 804 LINE SMOOTH"
);
}
);
};
components = (
{
name = T;
}
);
layerId = "258ED206-D907-4350-8EBA-CBDDA1C16BF7";
paths = (
{
closed = 1;
nodes = (
"1052 548 LINE",
"1092 822 LINE",
"238 822 LINE",
"198 548 LINE"
);
}
);
width = 1269;
},
{
background = {
components = (
{
name = T;
transform = "{1, 0, 0, 1, 4, 0}";
}
);
guideLines = (
{
angle = 90;
position = "{179, 188}";
showMeasurement = 1;
}
);
paths = (
{
closed = 1;
nodes = (
"1016 798 OFFCURVE",
"1012 804 OFFCURVE",
"1002 804 CURVE SMOOTH",
"298 804 LINE SMOOTH",
"288 804 OFFCURVE",
"284 798 OFFCURVE",
"284 786 CURVE SMOOTH",
"284 740 LINE SMOOTH",
"284 726 OFFCURVE",
"288 720 OFFCURVE",
"304 720 CURVE SMOOTH",
"990 720 LINE SMOOTH",
"1008 720 OFFCURVE",
"1016 726 OFFCURVE",
"1016 742 CURVE SMOOTH",
"1016 788 LINE SMOOTH"
);
}
);
};
components = (
{
name = T;
}
);
guideLines = (
{
angle = 90;
position = "{233, 175}";
showMeasurement = 1;
}
);
layerId = "91AB5BCA-6A50-42DA-B2F7-8181BF189245";
paths = (
{
closed = 1;
nodes = (
"928 702 LINE",
"928 784 LINE",
"214 784 LINE",
"214 702 LINE"
);
}
);
width = 1010;
}
);
leftKerningGroup = T;
leftMetricsKey = T;
rightKerningGroup = T;
rightMetricsKey = T;
unicode = 0166;
},
{
glyphname = U;
lastChange = "2019-04-22 13:43:20 +0000";
layers = (
{
anchors = (
{
name = bottom;
position = "{679, 0}";
},
{
name = horn;
position = "{1399, 1094}";
},
{
name = ogonek;
position = "{841, 24}";
},
{
name = top;
position = "{899, 1446}";
}
);
background = {
anchors = (
{
name = ogonek;
position = "{981, 20}";
},
{
name = top;
position = "{791, 1484}";
}
);
paths = (
{
closed = 1;
nodes = (
"1397 1442 LINE SMOOTH",
"1397 1468 OFFCURVE",
"1385 1484 OFFCURVE",
"1361 1484 CURVE SMOOTH",
"1061 1484 LINE SMOOTH",
"1037 1484 OFFCURVE",
"1023 1468 OFFCURVE",
"1023 1438 CURVE SMOOTH",
"1023 584 LINE SMOOTH",
"1023 362 OFFCURVE",
"915 298 OFFCURVE",
"791 298 CURVE SMOOTH",
"655 298 OFFCURVE",
"571 374 OFFCURVE",
"571 578 CURVE SMOOTH",
"571 1442 LINE SMOOTH",
"571 1468 OFFCURVE",
"559 1484 OFFCURVE",
"535 1484 CURVE SMOOTH",
"155 1484 LINE SMOOTH",
"133 1484 OFFCURVE",
"117 1468 OFFCURVE",
"117 1438 CURVE SMOOTH",
"117 626 LINE SMOOTH",
"117 208 OFFCURVE",
"279 -20 OFFCURVE",
"757 -20 CURVE SMOOTH",
"1139 -20 OFFCURVE",
"1397 124 OFFCURVE",
"1397 586 CURVE SMOOTH"
);
}
);
};
layerId = "258ED206-D907-4350-8EBA-CBDDA1C16BF7";
paths = (
{
closed = 1;
nodes = (
"1139 -20 OFFCURVE",
"1335 230 OFFCURVE",
"1391 598 CURVE SMOOTH",
"1519 1446 LINE",
"1127 1446 LINE",
"997 582 LINE SMOOTH",
"967 382 OFFCURVE",
"845 306 OFFCURVE",
"727 306 CURVE SMOOTH",
"605 306 OFFCURVE",
"509 382 OFFCURVE",
"539 582 CURVE SMOOTH",
"671 1446 LINE",
"279 1446 LINE",
"151 598 LINE SMOOTH",
"95 230 OFFCURVE",
"213 -20 OFFCURVE",
"677 -20 CURVE SMOOTH"
);
}
);
width = 1498;
},
{
anchors = (
{
name = bottom;
position = "{575, 4}";
},
{
name = horn;
position = "{1161, 1212}";
},
{
name = ogonek;
position = "{709, 18}";
},
{
name = top;
position = "{783, 1446}";
}
);
background = {
anchors = (
{
name = ogonek;
position = "{839, 18}";
},
{
name = top;
position = "{703, 1484}";
}
);
paths = (
{
closed = 1;
nodes = (
"1189 1466 LINE SMOOTH",
"1189 1478 OFFCURVE",
"1185 1484 OFFCURVE",
"1173 1484 CURVE SMOOTH",
"1125 1484 LINE SMOOTH",
"1113 1484 OFFCURVE",
"1109 1478 OFFCURVE",
"1109 1466 CURVE SMOOTH",
"1109 458 LINE SMOOTH",
"1109 194 OFFCURVE",
"975 64 OFFCURVE",
"699 64 CURVE SMOOTH",
"427 64 OFFCURVE",
"293 192 OFFCURVE",
"293 452 CURVE SMOOTH",
"293 1464 LINE SMOOTH",
"293 1480 OFFCURVE",
"289 1484 OFFCURVE",
"273 1484 CURVE SMOOTH",
"217 1484 LINE SMOOTH",
"205 1484 OFFCURVE",
"201 1478 OFFCURVE",
"201 1462 CURVE SMOOTH",
"201 490 LINE SMOOTH",
"201 142 OFFCURVE",
"359 -20 OFFCURVE",
"695 -20 CURVE SMOOTH",
"1027 -20 OFFCURVE",
"1189 138 OFFCURVE",
"1189 460 CURVE SMOOTH"
);
}
);
};
layerId = "91AB5BCA-6A50-42DA-B2F7-8181BF189245";
paths = (
{
closed = 1;
nodes = (
"871 -20 OFFCURVE",
"1037 134 OFFCURVE",
"1081 448 CURVE SMOOTH",
"1221 1446 LINE",
"1149 1446 LINE",
"1009 444 LINE SMOOTH",
"973 188 OFFCURVE",
"831 56 OFFCURVE",
"585 56 CURVE SMOOTH",
"341 56 OFFCURVE",
"243 192 OFFCURVE",
"279 444 CURVE SMOOTH",
"419 1446 LINE",
"341 1446 LINE",
"205 478 LINE SMOOTH",
"157 138 OFFCURVE",
"273 -20 OFFCURVE",
"575 -20 CURVE SMOOTH"
);
}
);
width = 1301;
}
);
leftKerningGroup = U;
rightKerningGroup = U;
unicode = 0055;
},
{
glyphname = V;
lastChange = "2019-04-23 21:00:37 +0000";
layers = (
{
background = {
paths = (
{
closed = 1;
nodes = (
"1107 1484 LINE SMOOTH",
"1083 1484 OFFCURVE",
"1061 1468 OFFCURVE",
"1055 1442 CURVE SMOOTH",
"805 566 LINE SMOOTH",
"799 546 OFFCURVE",
"791 546 OFFCURVE",
"785 564 CURVE SMOOTH",
"517 1442 LINE SMOOTH",
"509 1468 OFFCURVE",
"491 1484 OFFCURVE",
"467 1484 CURVE SMOOTH",
"81 1484 LINE SMOOTH",
"49 1484 OFFCURVE",
"31 1456 OFFCURVE",
"43 1426 CURVE SMOOTH",
"507 50 LINE SMOOTH",
"517 16 OFFCURVE",
"541 0 OFFCURVE",
"581 0 CURVE SMOOTH",
"905 0 LINE SMOOTH",
"945 0 OFFCURVE",
"969 16 OFFCURVE",
"979 50 CURVE SMOOTH",
"1443 1426 LINE SMOOTH",
"1453 1456 OFFCURVE",
"1437 1484 OFFCURVE",
"1405 1484 CURVE SMOOTH"
);
}
);
};
guideLines = (
{
angle = -108.62;
position = "{373, 211}";
}
);
layerId = "258ED206-D907-4350-8EBA-CBDDA1C16BF7";
paths = (
{
closed = 1;
nodes = (
"841 0 LINE",
"1547 1446 LINE",
"1181 1446 LINE",
"699 456 LINE",
"515 1446 LINE",
"151 1446 LINE",
"417 0 LINE"
);
}
);
width = 1436;
},
{
background = {
paths = (
{
closed = 1;
nodes = (
"1127 1484 LINE SMOOTH",
"1115 1484 OFFCURVE",
"1109 1480 OFFCURVE",
"1105 1470 CURVE SMOOTH",
"617 130 LINE SMOOTH",
"607 102 OFFCURVE",
"595 102 OFFCURVE",
"585 128 CURVE SMOOTH",
"111 1468 LINE SMOOTH",
"107 1480 OFFCURVE",
"101 1484 OFFCURVE",
"85 1484 CURVE SMOOTH",
"39 1484 LINE SMOOTH",
"25 1484 OFFCURVE",
"19 1476 OFFCURVE",
"23 1464 CURVE SMOOTH",
"533 20 LINE SMOOTH",
"537 6 OFFCURVE",
"549 0 OFFCURVE",
"571 0 CURVE SMOOTH",
"635 0 LINE SMOOTH",
"653 0 OFFCURVE",
"661 6 OFFCURVE",
"667 22 CURVE SMOOTH",
"1191 1466 LINE SMOOTH",
"1195 1476 OFFCURVE",
"1189 1484 OFFCURVE",
"1177 1484 CURVE SMOOTH"
);
}
);
};
layerId = "91AB5BCA-6A50-42DA-B2F7-8181BF189245";
paths = (
{
closed = 1;
nodes = (
"535 0 LINE",
"1221 1446 LINE",
"1143 1446 LINE",
"493 82 LINE",
"239 1446 LINE",
"161 1446 LINE",
"429 0 LINE"
);
}
);
width = 1120;
}
);
leftKerningGroup = V;
rightKerningGroup = V;
unicode = 0056;
},
{
glyphname = W;
lastChange = "2019-04-23 21:00:37 +0000";
layers = (
{
anchors = (
{
name = top;
position = "{1107, 1446}";
}
);
background = {
anchors = (
{
name = top;
position = "{1053, 1484}";
}
);
paths = (
{
closed = 1;
nodes = (
"1813 1484 LINE SMOOTH",
"1771 1484 OFFCURVE",
"1755 1468 OFFCURVE",
"1749 1442 CURVE SMOOTH",
"1545 678 LINE SMOOTH",
"1541 662 OFFCURVE",
"1527 666 OFFCURVE",
"1523 682 CURVE SMOOTH",
"1303 1442 LINE SMOOTH",
"1295 1468 OFFCURVE",
"1281 1484 OFFCURVE",
"1239 1484 CURVE SMOOTH",
"959 1484 LINE SMOOTH",
"917 1484 OFFCURVE",
"901 1468 OFFCURVE",
"895 1442 CURVE SMOOTH",
"685 692 LINE SMOOTH",
"679 670 OFFCURVE",
"669 670 OFFCURVE",
"661 700 CURVE SMOOTH",
"449 1442 LINE SMOOTH",
"441 1468 OFFCURVE",
"427 1484 OFFCURVE",
"385 1484 CURVE SMOOTH",
"55 1484 LINE SMOOTH",
"3 1484 OFFCURVE",
"-17 1450 OFFCURVE",
"-5 1404 CURVE SMOOTH",
"403 50 LINE SMOOTH",
"415 16 OFFCURVE",
"435 0 OFFCURVE",
"475 0 CURVE SMOOTH",
"761 0 LINE SMOOTH",
"803 0 OFFCURVE",
"823 16 OFFCURVE",
"833 50 CURVE SMOOTH",
"1039 750 LINE SMOOTH",
"1053 790 OFFCURVE",
"1063 786 OFFCURVE",
"1071 754 CURVE SMOOTH",
"1279 50 LINE SMOOTH",
"1289 16 OFFCURVE",
"1311 0 OFFCURVE",
"1351 0 CURVE SMOOTH",
"1627 0 LINE SMOOTH",
"1667 0 OFFCURVE",
"1687 16 OFFCURVE",
"1699 50 CURVE SMOOTH",
"2105 1404 LINE SMOOTH",
"2117 1450 OFFCURVE",
"2097 1484 OFFCURVE",
"2045 1484 CURVE SMOOTH"
);
}
);
};
guideLines = (
{
angle = -73.94;
position = "{226, 670}";
},
{
angle = 74.3834;
position = "{429, 670}";
}
);
layerId = "258ED206-D907-4350-8EBA-CBDDA1C16BF7";
paths = (
{
closed = 1;
nodes = (
"659 0 LINE",
"1007 786 LINE",
"1115 0 LINE",
"1403 0 LINE",
"2053 1446 LINE",
"1679 1446 LINE",
"1347 670 LINE",
"1241 1446 LINE",
"971 1446 LINE",
"639 670 LINE",
"535 1446 LINE",
"161 1446 LINE",
"375 0 LINE"
);
}
);
width = 1952;
},
{
anchors = (
{
name = top;
position = "{1003, 1446}";
}
);
background = {
anchors = (
{
name = top;
position = "{939, 1484}";
}
);
guideLines = (
{
position = "{4, 125}";
showMeasurement = 1;
}
);
paths = (
{
closed = 1;
nodes = (
"1783 1484 LINE SMOOTH",
"1771 1484 OFFCURVE",
"1761 1480 OFFCURVE",
"1759 1470 CURVE SMOOTH",
"1381 144 LINE SMOOTH",
"1373 116 OFFCURVE",
"1365 116 OFFCURVE",
"1357 142 CURVE SMOOTH",
"987 1468 LINE SMOOTH",
"983 1480 OFFCURVE",
"979 1484 OFFCURVE",
"963 1484 CURVE SMOOTH",
"913 1484 LINE SMOOTH",
"895 1484 OFFCURVE",
"889 1476 OFFCURVE",
"887 1470 CURVE SMOOTH",
"509 144 LINE SMOOTH",
"501 116 OFFCURVE",
"493 116 OFFCURVE",
"485 142 CURVE SMOOTH",
"115 1468 LINE SMOOTH",
"111 1480 OFFCURVE",
"107 1484 OFFCURVE",
"91 1484 CURVE SMOOTH",
"41 1484 LINE SMOOTH",
"27 1484 OFFCURVE",
"21 1476 OFFCURVE",
"25 1464 CURVE SMOOTH",
"429 20 LINE SMOOTH",
"433 6 OFFCURVE",
"445 0 OFFCURVE",
"465 0 CURVE SMOOTH",
"529 0 LINE SMOOTH",
"549 0 OFFCURVE",
"557 6 OFFCURVE",
"561 22 CURVE SMOOTH",
"931 1316 LINE SMOOTH",
"933 1324 OFFCURVE",
"937 1324 OFFCURVE",
"939 1316 CURVE SMOOTH",
"1301 20 LINE SMOOTH",
"1305 6 OFFCURVE",
"1317 0 OFFCURVE",
"1337 0 CURVE SMOOTH",
"1401 0 LINE SMOOTH",
"1421 0 OFFCURVE",
"1429 6 OFFCURVE",
"1433 22 CURVE SMOOTH",
"1847 1466 LINE SMOOTH",
"1849 1476 OFFCURVE",
"1845 1484 OFFCURVE",
"1833 1484 CURVE SMOOTH"
);
}
);
};
guideLines = (
{
position = "{77, 116}";
showMeasurement = 1;
}
);
layerId = "91AB5BCA-6A50-42DA-B2F7-8181BF189245";
paths = (
{
closed = 1;
nodes = (
"457 0 LINE",
"979 1296 LINE",
"1131 0 LINE",
"1231 0 LINE",
"1817 1446 LINE",
"1739 1446 LINE",
"1197 98 LINE",
"1037 1446 LINE",
"965 1446 LINE",
"423 98 LINE",
"273 1446 LINE",
"191 1446 LINE",
"361 0 LINE"
);
}
);
width = 1746;
}
);
leftKerningGroup = W;
rightKerningGroup = W;
unicode = 0057;
},
{
glyphname = X;
lastChange = "2019-04-23 21:00:37 +0000";
layers = (
{
background = {
paths = (
{
closed = 1;
nodes = (
"1005 806 LINE",
"1449 1484 LINE",
"1015 1484 LINE",
"787 1082 LINE",
"559 1484 LINE",
"49 1484 LINE",
"521 748 LINE",
"103 102 LINE SMOOTH",
"51 22 OFFCURVE",
"73 0 OFFCURVE",
"129 0 CURVE SMOOTH",
"477 0 LINE",
"743 466 LINE",
"1015 0 LINE",
"1435 0 LINE SMOOTH",
"1491 0 OFFCURVE",
"1513 24 OFFCURVE",
"1463 102 CURVE SMOOTH"
);
}
);
};
layerId = "258ED206-D907-4350-8EBA-CBDDA1C16BF7";
paths = (
{
closed = 1;
nodes = (
"369 0 LINE",
"695 454 LINE",
"891 0 LINE",
"1373 0 LINE",
"987 786 LINE",
"1515 1446 LINE",
"1111 1446 LINE",
"831 1054 LINE",
"667 1446 LINE",
"189 1446 LINE",
"537 730 LINE",
"-43 0 LINE"
);
}
);
width = 1476;
},
{
background = {
guideLines = (
{
angle = 90;
position = "{36, 437}";
},
{
angle = 90;
position = "{547, 372}";
},
{
position = "{2, 716}";
showMeasurement = 1;
},
{
position = "{-4, 32}";
showMeasurement = 1;
},
{
position = "{66, 454}";
showMeasurement = 1;
},
{
position = "{64, 290}";
showMeasurement = 1;
},
{
angle = 236.602;
position = "{279, 374}";
},
{
angle = 123.344;
position = "{336, 374}";
},
{
angle = 56.5817;
position = "{324, 370}";
},
{
angle = 123.4;
position = "{289, 370}";
}
);
paths = (
{
closed = 1;
nodes = (
"677 748 LINE SMOOTH",
"669 760 OFFCURVE",
"671 768 OFFCURVE",
"679 780 CURVE SMOOTH",
"1147 1472 LINE SMOOTH",
"1151 1478 OFFCURVE",
"1151 1484 OFFCURVE",
"1143 1484 CURVE SMOOTH",
"1061 1484 LINE SMOOTH",
"1053 1484 OFFCURVE",
"1049 1482 OFFCURVE",
"1045 1476 CURVE SMOOTH",
"631 862 LINE SMOOTH",
"617 842 OFFCURVE",
"609 844 OFFCURVE",
"597 860 CURVE SMOOTH",
"183 1476 LINE SMOOTH",
"179 1482 OFFCURVE",
"177 1484 OFFCURVE",
"165 1484 CURVE SMOOTH",
"87 1484 LINE SMOOTH",
"79 1484 OFFCURVE",
"77 1474 OFFCURVE",
"81 1468 CURVE SMOOTH",
"545 782 LINE SMOOTH",
"555 766 OFFCURVE",
"557 754 OFFCURVE",
"547 740 CURVE SMOOTH",
"63 20 LINE SMOOTH",
"53 4 OFFCURVE",
"57 0 OFFCURVE",
"69 0 CURVE SMOOTH",
"141 0 LINE SMOOTH",
"147 0 OFFCURVE",
"153 2 OFFCURVE",
"157 8 CURVE SMOOTH",
"591 648 LINE SMOOTH",
"611 678 OFFCURVE",
"619 676 OFFCURVE",
"633 654 CURVE SMOOTH",
"1073 8 LINE SMOOTH",
"1077 2 OFFCURVE",
"1079 0 OFFCURVE",
"1087 0 CURVE SMOOTH",
"1159 0 LINE SMOOTH",
"1171 0 OFFCURVE",
"1179 4 OFFCURVE",
"1167 20 CURVE SMOOTH"
);
}
);
};
guideLines = (
{
angle = 90;
position = "{107, 405}";
},
{
angle = 90;
position = "{557, 345}";
},
{
position = "{77, 664}";
showMeasurement = 1;
},
{
position = "{72, 29}";
showMeasurement = 1;
},
{
position = "{133, 421}";
showMeasurement = 1;
},
{
position = "{131, 269}";
showMeasurement = 1;
},
{
angle = 236.602;
position = "{321, 347}";
},
{
angle = 123.344;
position = "{370, 347}";
},
{
angle = 56.5817;
position = "{361, 343}";
},
{
angle = 123.4;
position = "{329, 343}";
}
);
layerId = "91AB5BCA-6A50-42DA-B2F7-8181BF189245";
paths = (
{
closed = 1;
nodes = (
"79 0 LINE",
"589 664 LINE",
"911 0 LINE",
"1003 0 LINE",
"645 742 LINE",
"1183 1446 LINE",
"1091 1446 LINE",
"609 816 LINE",
"307 1446 LINE",
"211 1446 LINE",
"551 742 LINE",
"-13 0 LINE"
);
}
);
width = 1136;
}
);
leftKerningGroup = X;
rightKerningGroup = X;
unicode = 0058;
},
{
glyphname = Y;
lastChange = "2019-04-23 21:00:37 +0000";
layers = (
{
anchors = (
{
name = bottom;
position = "{623, 0}";
},
{
name = top;
position = "{825, 1446}";
}
);
background = {
anchors = (
{
name = top;
position = "{789, 1484}";
}
);
paths = (
{
closed = 1;
nodes = (
"1135 1484 LINE SMOOTH",
"1097 1484 OFFCURVE",
"1083 1476 OFFCURVE",
"1067 1442 CURVE SMOOTH",
"825 996 LINE SMOOTH",
"811 972 OFFCURVE",
"803 974 OFFCURVE",
"791 998 CURVE SMOOTH",
"545 1442 LINE SMOOTH",
"527 1474 OFFCURVE",
"517 1484 OFFCURVE",
"477 1484 CURVE SMOOTH",
"75 1484 LINE SMOOTH",
"33 1484 OFFCURVE",
"19 1460 OFFCURVE",
"39 1428 CURVE SMOOTH",
"507 664 LINE SMOOTH",
"525 634 OFFCURVE",
"535 618 OFFCURVE",
"535 576 CURVE SMOOTH",
"535 50 LINE SMOOTH",
"535 16 OFFCURVE",
"547 0 OFFCURVE",
"587 0 CURVE SMOOTH",
"923 0 LINE SMOOTH",
"969 0 OFFCURVE",
"989 16 OFFCURVE",
"989 58 CURVE SMOOTH",
"989 550 LINE SMOOTH",
"989 634 OFFCURVE",
"991 654 OFFCURVE",
"1009 682 CURVE SMOOTH",
"1477 1438 LINE SMOOTH",
"1493 1464 OFFCURVE",
"1483 1484 OFFCURVE",
"1449 1484 CURVE SMOOTH"
);
}
);
};
guideLines = (
{
angle = 58.823;
position = "{501, 670}";
}
);
layerId = "258ED206-D907-4350-8EBA-CBDDA1C16BF7";
paths = (
{
closed = 1;
nodes = (
"815 0 LINE",
"907 602 LINE",
"1547 1446 LINE",
"1125 1446 LINE",
"765 932 LINE",
"559 1446 LINE",
"141 1446 LINE",
"519 602 LINE",
"429 0 LINE"
);
}
);
width = 1426;
},
{
anchors = (
{
name = bottom;
position = "{429, 0}";
},
{
name = top;
position = "{629, 1450}";
}
);
background = {
anchors = (
{
name = top;
position = "{535, 1484}";
}
);
paths = (
{
closed = 1;
nodes = (
"1019 1484 LINE SMOOTH",
"1001 1484 OFFCURVE",
"997 1482 OFFCURVE",
"987 1466 CURVE SMOOTH",
"569 748 LINE SMOOTH",
"553 722 OFFCURVE",
"539 720 OFFCURVE",
"521 752 CURVE SMOOTH",
"101 1466 LINE SMOOTH",
"93 1480 OFFCURVE",
"87 1484 OFFCURVE",
"69 1484 CURVE SMOOTH",
"23 1484 LINE SMOOTH",
"3 1484 OFFCURVE",
"-1 1474 OFFCURVE",
"7 1460 CURVE SMOOTH",
"495 630 LINE SMOOTH",
"503 616 OFFCURVE",
"505 610 OFFCURVE",
"505 590 CURVE SMOOTH",
"505 22 LINE SMOOTH",
"505 8 OFFCURVE",
"511 0 OFFCURVE",
"529 0 CURVE SMOOTH",
"567 0 LINE SMOOTH",
"589 0 OFFCURVE",
"597 8 OFFCURVE",
"597 26 CURVE SMOOTH",
"597 612 LINE SMOOTH",
"597 632 OFFCURVE",
"597 640 OFFCURVE",
"605 652 CURVE SMOOTH",
"1083 1462 LINE SMOOTH",
"1091 1474 OFFCURVE",
"1085 1484 OFFCURVE",
"1071 1484 CURVE SMOOTH"
);
}
);
};
guideLines = (
{
angle = 239.8907;
position = "{223, 335}";
},
{
angle = -59.5603;
position = "{188, 328}";
}
);
layerId = "91AB5BCA-6A50-42DA-B2F7-8181BF189245";
paths = (
{
closed = 1;
nodes = (
"463 0 LINE",
"551 622 LINE",
"1105 1446 LINE",
"1025 1446 LINE",
"527 702 LINE",
"231 1446 LINE",
"151 1446 LINE",
"479 624 LINE",
"393 0 LINE"
);
}
);
width = 994;
}
);
leftKerningGroup = Y;
rightKerningGroup = Y;
unicode = 0059;
},
{
glyphname = Z;
lastChange = "2019-04-23 21:00:37 +0000";
layers = (
{
anchors = (
{
name = bottom;
position = "{639, 0}";
},
{
name = top;
position = "{905, 1446}";
}
);
background = {
anchors = (
{
name = bottom;
position = "{745, 0}";
},
{
name = top;
position = "{793, 1484}";
}
);
paths = (
{
closed = 1;
nodes = (
"1405 0 LINE",
"1405 332 LINE",
"723 332 LINE",
"1417 1308 LINE",
"1417 1484 LINE",
"169 1484 LINE",
"169 1154 LINE",
"783 1154 LINE",
"103 182 LINE",
"103 0 LINE"
);
}
);
};
layerId = "258ED206-D907-4350-8EBA-CBDDA1C16BF7";
paths = (
{
closed = 1;
nodes = (
"1239 0 LINE",
"1289 324 LINE",
"609 324 LINE",
"1445 1276 LINE",
"1471 1446 LINE",
"301 1446 LINE",
"251 1126 LINE",
"865 1126 LINE",
"45 178 LINE",
"17 0 LINE"
);
}
);
width = 1420;
},
{
anchors = (
{
name = bottom;
position = "{497, 0}";
},
{
name = top;
position = "{687, 1446}";
}
);
background = {
anchors = (
{
name = bottom;
position = "{619, 0}";
},
{
name = top;
position = "{605, 1484}";
}
);
paths = (
{
closed = 1;
nodes = (
"1083 0 LINE",
"1083 80 LINE",
"215 80 LINE",
"1083 1430 LINE",
"1083 1484 LINE",
"125 1484 LINE",
"125 1404 LINE",
"967 1404 LINE",
"105 56 LINE",
"105 0 LINE"
);
}
);
};
guideLines = (
{
angle = 237.1304;
position = "{457, 659}";
}
);
layerId = "91AB5BCA-6A50-42DA-B2F7-8181BF189245";
paths = (
{
closed = 1;
nodes = (
"913 0 LINE",
"925 78 LINE",
"139 78 LINE",
"1109 1386 LINE",
"1117 1446 LINE",
"257 1446 LINE",
"247 1368 LINE",
"1011 1368 LINE",
"47 62 LINE",
"37 0 LINE"
);
}
);
width = 1097;
}
);
leftKerningGroup = Z;
rightKerningGroup = Z;
unicode = 005A;
},
{
glyphname = a;
lastChange = "2019-04-23 05:35:57 +0000";
layers = (
{
anchors = (
{
name = bottom;
position = "{503, 0}";
},
{
name = ogonek;
position = "{917, 20}";
},
{
name = top;
position = "{661, 1034}";
}
);
background = {
anchors = (
{
name = ogonek;
position = "{983, 20}";
},
{
name = top;
position = "{559, 1060}";
}
);
guideLines = (
{
angle = 90;
position = "{330, 102}";
}
);
paths = (
{
closed = 1;
nodes = (
"645 112 OFFCURVE",
"661 110 OFFCURVE",
"665 84 CURVE SMOOTH",
"667 70 LINE SMOOTH",
"673 32 OFFCURVE",
"683 0 OFFCURVE",
"719 0 CURVE SMOOTH",
"993 0 LINE SMOOTH",
"1031 0 OFFCURVE",
"1039 14 OFFCURVE",
"1039 54 CURVE SMOOTH",
"1039 750 LINE SMOOTH",
"1039 946 OFFCURVE",
"929 1080 OFFCURVE",
"559 1080 CURVE SMOOTH",
"297 1080 OFFCURVE",
"115 1012 OFFCURVE",
"55 842 CURVE SMOOTH",
"37 792 OFFCURVE",
"49 782 OFFCURVE",
"69 778 CURVE SMOOTH",
"331 726 LINE SMOOTH",
"367 720 OFFCURVE",
"375 726 OFFCURVE",
"385 748 CURVE SMOOTH",
"419 822 OFFCURVE",
"485 842 OFFCURVE",
"541 842 CURVE SMOOTH",
"621 842 OFFCURVE",
"659 800 OFFCURVE",
"659 726 CURVE SMOOTH",
"659 692 LINE SMOOTH",
"659 668 OFFCURVE",
"639 664 OFFCURVE",
"629 664 CURVE SMOOTH",
"615 664 LINE SMOOTH",
"237 664 OFFCURVE",
"1 506 OFFCURVE",
"1 272 CURVE SMOOTH",
"1 106 OFFCURVE",
"121 -20 OFFCURVE",
"321 -20 CURVE SMOOTH",
"445 -20 OFFCURVE",
"539 24 OFFCURVE",
"611 84 CURVE SMOOTH"
);
},
{
closed = 1;
nodes = (
"659 342 LINE SMOOTH",
"659 312 OFFCURVE",
"637 290 OFFCURVE",
"613 270 CURVE SMOOTH",
"591 252 OFFCURVE",
"555 232 OFFCURVE",
"503 232 CURVE SMOOTH",
"431 232 OFFCURVE",
"389 270 OFFCURVE",
"389 326 CURVE SMOOTH",
"389 438 OFFCURVE",
"557 484 OFFCURVE",
"621 484 CURVE SMOOTH",
"629 484 LINE SMOOTH",
"653 484 OFFCURVE",
"659 472 OFFCURVE",
"659 448 CURVE SMOOTH"
);
}
);
};
guideLines = (
{
angle = 270;
position = "{327, 93}";
},
{
angle = 270;
position = "{292, 516}";
}
);
layerId = "258ED206-D907-4350-8EBA-CBDDA1C16BF7";
paths = (
{
closed = 1;
nodes = (
"465 -20 OFFCURVE",
"557 24 OFFCURVE",
"641 164 CURVE",
"649 0 LINE",
"969 0 LINE",
"1081 732 LINE SMOOTH",
"1109 922 OFFCURVE",
"1021 1054 OFFCURVE",
"665 1054 CURVE SMOOTH",
"399 1054 OFFCURVE",
"171 956 OFFCURVE",
"121 712 CURVE",
"435 712 LINE",
"477 782 OFFCURVE",
"555 800 OFFCURVE",
"609 802 CURVE SMOOTH",
"685 804 OFFCURVE",
"717 774 OFFCURVE",
"707 708 CURVE SMOOTH",
"701 664 LINE",
"621 664 LINE SMOOTH",
"247 664 OFFCURVE",
"55 534 OFFCURVE",
"21 310 CURVE SMOOTH",
"-11 96 OFFCURVE",
"131 -20 OFFCURVE",
"327 -20 CURVE SMOOTH"
);
},
{
closed = 1;
nodes = (
"433 226 OFFCURVE",
"379 272 OFFCURVE",
"391 350 CURVE SMOOTH",
"405 452 OFFCURVE",
"549 480 OFFCURVE",
"611 480 CURVE SMOOTH",
"673 480 LINE",
"653 350 LINE",
"641 284 OFFCURVE",
"575 226 OFFCURVE",
"499 226 CURVE SMOOTH"
);
}
);
width = 1141;
},
{
anchors = (
{
name = bottom;
position = "{430, 0}";
},
{
name = ogonek;
position = "{764, 28}";
},
{
name = top;
position = "{574, 1034}";
}
);
background = {
anchors = (
{
name = ogonek;
position = "{890, 28}";
},
{
name = top;
position = "{520, 1060}";
}
);
paths = (
{
closed = 1;
nodes = (
"814 156 OFFCURVE",
"822 154 OFFCURVE",
"824 140 CURVE SMOOTH",
"828 18 LINE SMOOTH",
"828 4 OFFCURVE",
"834 0 OFFCURVE",
"846 0 CURVE SMOOTH",
"882 0 LINE SMOOTH",
"894 0 OFFCURVE",
"902 4 OFFCURVE",
"902 20 CURVE SMOOTH",
"902 734 LINE SMOOTH",
"902 950 OFFCURVE",
"754 1080 OFFCURVE",
"528 1080 CURVE SMOOTH",
"338 1080 OFFCURVE",
"204 986 OFFCURVE",
"120 862 CURVE SMOOTH",
"112 852 OFFCURVE",
"114 846 OFFCURVE",
"120 842 CURVE SMOOTH",
"168 812 LINE SMOOTH",
"176 806 OFFCURVE",
"180 810 OFFCURVE",
"188 820 CURVE SMOOTH",
"278 940 OFFCURVE",
"386 1004 OFFCURVE",
"524 1004 CURVE SMOOTH",
"704 1004 OFFCURVE",
"822 896 OFFCURVE",
"822 726 CURVE SMOOTH",
"822 664 LINE SMOOTH",
"822 646 OFFCURVE",
"810 636 OFFCURVE",
"788 634 CURVE SMOOTH",
"578 616 LINE SMOOTH",
"250 588 OFFCURVE",
"84 472 OFFCURVE",
"84 270 CURVE SMOOTH",
"84 90 OFFCURVE",
"214 -20 OFFCURVE",
"424 -20 CURVE SMOOTH",
"572 -20 OFFCURVE",
"694 34 OFFCURVE",
"804 144 CURVE SMOOTH"
);
},
{
closed = 1;
nodes = (
"822 342 LINE SMOOTH",
"822 282 OFFCURVE",
"782 214 OFFCURVE",
"708 154 CURVE SMOOTH",
"632 94 OFFCURVE",
"534 56 OFFCURVE",
"436 56 CURVE SMOOTH",
"274 56 OFFCURVE",
"168 138 OFFCURVE",
"168 276 CURVE SMOOTH",
"168 430 OFFCURVE",
"302 522 OFFCURVE",
"616 546 CURVE SMOOTH",
"794 560 LINE SMOOTH",
"812 562 OFFCURVE",
"822 554 OFFCURVE",
"822 532 CURVE SMOOTH"
);
}
);
};
guideLines = (
{
position = "{352, 208}";
showMeasurement = 1;
}
);
hints = (
{
horizontal = 1;
place = "{7018, 302}";
type = Stem;
}
);
layerId = "91AB5BCA-6A50-42DA-B2F7-8181BF189245";
paths = (
{
closed = 1;
nodes = (
"480 -20 OFFCURVE",
"622 28 OFFCURVE",
"730 200 CURVE",
"706 0 LINE",
"772 0 LINE",
"872 716 LINE SMOOTH",
"902 926 OFFCURVE",
"778 1054 OFFCURVE",
"576 1054 CURVE SMOOTH",
"354 1054 OFFCURVE",
"212 904 OFFCURVE",
"182 758 CURVE",
"260 758 LINE",
"300 900 OFFCURVE",
"424 978 OFFCURVE",
"562 978 CURVE SMOOTH",
"724 978 OFFCURVE",
"824 880 OFFCURVE",
"800 714 CURVE SMOOTH",
"786 614 LINE",
"566 606 LINE SMOOTH",
"248 594 OFFCURVE",
"106 496 OFFCURVE",
"74 264 CURVE SMOOTH",
"50 88 OFFCURVE",
"152 -20 OFFCURVE",
"340 -20 CURVE SMOOTH"
);
},
{
closed = 1;
nodes = (
"216 54 OFFCURVE",
"132 134 OFFCURVE",
"150 270 CURVE SMOOTH",
"176 450 OFFCURVE",
"286 526 OFFCURVE",
"590 532 CURVE SMOOTH",
"774 536 LINE",
"746 334 LINE SMOOTH",
"726 194 OFFCURVE",
"520 54 OFFCURVE",
"362 54 CURVE SMOOTH"
);
}
);
width = 1005;
}
);
leftKerningGroup = a;
rightKerningGroup = n;
unicode = 0061;
},
{
glyphname = ae;
lastChange = "2019-04-23 05:35:58 +0000";
layers = (
{
anchors = (
{
name = top;
position = "{980, 1034}";
}
);
background = {
anchors = (
{
name = top;
position = "{886, 1060}";
}
);
paths = (
{
closed = 1;
nodes = (
"1730 458 LINE SMOOTH",
"1764 460 OFFCURVE",
"1766 474 OFFCURVE",
"1766 508 CURVE SMOOTH",
"1766 870 OFFCURVE",
"1536 1080 OFFCURVE",
"1222 1080 CURVE SMOOTH",
"1118 1080 OFFCURVE",
"1018 1052 OFFCURVE",
"932 1000 CURVE",
"856 1050 OFFCURVE",
"738 1078 OFFCURVE",
"560 1080 CURVE SMOOTH",
"254 1080 OFFCURVE",
"140 998 OFFCURVE",
"64 842 CURVE SMOOTH",
"54 820 OFFCURVE",
"60 782 OFFCURVE",
"78 778 CURVE SMOOTH",
"340 726 LINE SMOOTH",
"376 720 OFFCURVE",
"384 722 OFFCURVE",
"394 748 CURVE",
"428 822 OFFCURVE",
"494 842 OFFCURVE",
"550 842 CURVE SMOOTH",
"630 842 OFFCURVE",
"668 800 OFFCURVE",
"668 726 CURVE SMOOTH",
"668 692 LINE SMOOTH",
"668 668 OFFCURVE",
"648 664 OFFCURVE",
"632 664 CURVE",
"586 662 LINE SMOOTH",
"202 644 OFFCURVE",
"10 500 OFFCURVE",
"10 286 CURVE SMOOTH",
"10 104 OFFCURVE",
"130 -20 OFFCURVE",
"356 -20 CURVE SMOOTH",
"540 -20 OFFCURVE",
"670 24 OFFCURVE",
"792 142 CURVE SMOOTH",
"800 150 OFFCURVE",
"806 150 OFFCURVE",
"814 142 CURVE SMOOTH",
"914 40 OFFCURVE",
"1062 -20 OFFCURVE",
"1230 -20 CURVE SMOOTH",
"1454 -20 OFFCURVE",
"1590 34 OFFCURVE",
"1734 236 CURVE",
"1752 258 OFFCURVE",
"1746 276 OFFCURVE",
"1726 284 CURVE SMOOTH",
"1544 358 LINE SMOOTH",
"1518 368 OFFCURVE",
"1512 366 OFFCURVE",
"1502 356 CURVE SMOOTH",
"1414 270 OFFCURVE",
"1352 244 OFFCURVE",
"1284 244 CURVE SMOOTH",
"1168 244 OFFCURVE",
"1078 302 OFFCURVE",
"1078 424 CURVE SMOOTH",
"1078 448 OFFCURVE",
"1088 458 OFFCURVE",
"1108 458 CURVE SMOOTH"
);
},
{
closed = 1;
nodes = (
"1340 846 OFFCURVE",
"1378 744 OFFCURVE",
"1378 692 CURVE SMOOTH",
"1378 668 OFFCURVE",
"1370 664 OFFCURVE",
"1344 664 CURVE SMOOTH",
"1084 666 LINE",
"1082 790 OFFCURVE",
"1158 846 OFFCURVE",
"1240 846 CURVE SMOOTH"
);
},
{
closed = 1;
nodes = (
"668 320 LINE SMOOTH",
"668 254 OFFCURVE",
"594 216 OFFCURVE",
"518 216 CURVE SMOOTH",
"440 216 OFFCURVE",
"398 254 OFFCURVE",
"398 312 CURVE SMOOTH",
"398 410 OFFCURVE",
"528 460 OFFCURVE",
"604 466 CURVE SMOOTH",
"632 468 LINE SMOOTH",
"656 468 OFFCURVE",
"668 456 OFFCURVE",
"668 432 CURVE SMOOTH"
);
}
);
};
layerId = "258ED206-D907-4350-8EBA-CBDDA1C16BF7";
paths = (
{
closed = 1;
nodes = (
"486 -20 OFFCURVE",
"618 24 OFFCURVE",
"754 138 CURVE SMOOTH",
"762 146 OFFCURVE",
"768 146 OFFCURVE",
"774 138 CURVE SMOOTH",
"856 40 OFFCURVE",
"990 -20 OFFCURVE",
"1154 -20 CURVE SMOOTH",
"1380 -20 OFFCURVE",
"1528 40 OFFCURVE",
"1710 264 CURVE",
"1490 360 LINE",
"1384 268 OFFCURVE",
"1316 238 OFFCURVE",
"1244 238 CURVE SMOOTH",
"1134 238 OFFCURVE",
"1056 304 OFFCURVE",
"1078 446 CURVE",
"1744 446 LINE",
"1802 830 OFFCURVE",
"1612 1054 OFFCURVE",
"1308 1054 CURVE SMOOTH",
"1210 1054 OFFCURVE",
"1108 1026 OFFCURVE",
"1016 976 CURVE",
"950 1024 OFFCURVE",
"840 1052 OFFCURVE",
"668 1054 CURVE SMOOTH",
"358 1054 OFFCURVE",
"222 954 OFFCURVE",
"116 766 CURVE",
"440 700 LINE",
"490 796 OFFCURVE",
"564 820 OFFCURVE",
"624 820 CURVE SMOOTH",
"702 820 OFFCURVE",
"730 780 OFFCURVE",
"720 708 CURVE SMOOTH",
"712 650 LINE",
"630 646 LINE SMOOTH",
"256 628 OFFCURVE",
"48 488 OFFCURVE",
"16 278 CURVE SMOOTH",
"-10 102 OFFCURVE",
"88 -20 OFFCURVE",
"308 -20 CURVE SMOOTH"
);
},
{
closed = 1;
nodes = (
"424 210 OFFCURVE",
"390 248 OFFCURVE",
"398 304 CURVE SMOOTH",
"412 400 OFFCURVE",
"546 448 OFFCURVE",
"620 454 CURVE SMOOTH",
"682 458 LINE",
"660 312 LINE SMOOTH",
"650 248 OFFCURVE",
"572 210 OFFCURVE",
"500 210 CURVE SMOOTH"
);
},
{
closed = 1;
nodes = (
"1114 650 LINE",
"1130 770 OFFCURVE",
"1212 824 OFFCURVE",
"1292 824 CURVE SMOOTH",
"1390 824 OFFCURVE",
"1408 708 OFFCURVE",
"1398 648 CURVE"
);
}
);
width = 1794;
},
{
anchors = (
{
name = top;
position = "{909, 1034}";
}
);
background = {
anchors = (
{
name = top;
position = "{861, 1060}";
}
);
paths = (
{
closed = 1;
nodes = (
"1681 508 LINE SMOOTH",
"1709 508 OFFCURVE",
"1717 522 OFFCURVE",
"1717 548 CURVE SMOOTH",
"1717 888 OFFCURVE",
"1533 1080 OFFCURVE",
"1259 1080 CURVE SMOOTH",
"1071 1080 OFFCURVE",
"927 1000 OFFCURVE",
"847 842 CURVE",
"807 1002 OFFCURVE",
"695 1080 OFFCURVE",
"497 1080 CURVE SMOOTH",
"327 1080 OFFCURVE",
"173 1000 OFFCURVE",
"87 862 CURVE SMOOTH",
"81 852 OFFCURVE",
"81 846 OFFCURVE",
"87 842 CURVE SMOOTH",
"131 812 LINE SMOOTH",
"139 806 OFFCURVE",
"143 808 OFFCURVE",
"153 820 CURVE SMOOTH",
"245 940 OFFCURVE",
"353 1004 OFFCURVE",
"481 1004 CURVE SMOOTH",
"681 1004 OFFCURVE",
"789 896 OFFCURVE",
"789 726 CURVE SMOOTH",
"789 664 LINE SMOOTH",
"789 646 OFFCURVE",
"777 636 OFFCURVE",
"753 634 CURVE SMOOTH",
"529 616 LINE SMOOTH",
"203 588 OFFCURVE",
"51 468 OFFCURVE",
"51 272 CURVE SMOOTH",
"51 90 OFFCURVE",
"175 -20 OFFCURVE",
"383 -20 CURVE SMOOTH",
"645 -20 OFFCURVE",
"761 124 OFFCURVE",
"833 216 CURVE SMOOTH",
"837 222 OFFCURVE",
"839 222 OFFCURVE",
"843 216 CURVE SMOOTH",
"901 130 OFFCURVE",
"1009 -20 OFFCURVE",
"1253 -20 CURVE SMOOTH",
"1447 -20 OFFCURVE",
"1609 74 OFFCURVE",
"1677 200 CURVE SMOOTH",
"1683 212 OFFCURVE",
"1681 216 OFFCURVE",
"1675 220 CURVE SMOOTH",
"1631 250 LINE SMOOTH",
"1621 256 OFFCURVE",
"1619 254 OFFCURVE",
"1609 242 CURVE SMOOTH",
"1551 162 OFFCURVE",
"1465 56 OFFCURVE",
"1257 56 CURVE SMOOTH",
"1033 56 OFFCURVE",
"857 268 OFFCURVE",
"857 456 CURVE SMOOTH",
"857 498 OFFCURVE",
"863 506 OFFCURVE",
"897 506 CURVE SMOOTH"
);
},
{
closed = 1;
nodes = (
"1473 1004 OFFCURVE",
"1631 828 OFFCURVE",
"1631 612 CURVE SMOOTH",
"1631 588 OFFCURVE",
"1629 580 OFFCURVE",
"1597 580 CURVE SMOOTH",
"861 582 LINE",
"863 836 OFFCURVE",
"1033 1004 OFFCURVE",
"1253 1004 CURVE SMOOTH"
);
},
{
closed = 1;
nodes = (
"789 354 LINE",
"789 198 OFFCURVE",
"617 68 OFFCURVE",
"403 58 CURVE SMOOTH",
"235 50 OFFCURVE",
"137 142 OFFCURVE",
"137 276 CURVE SMOOTH",
"137 430 OFFCURVE",
"269 520 OFFCURVE",
"569 544 CURVE SMOOTH",
"759 558 LINE SMOOTH",
"785 560 OFFCURVE",
"789 550 OFFCURVE",
"789 530 CURVE SMOOTH"
);
}
);
};
hints = (
{
horizontal = 1;
place = "{7052, 336}";
type = Stem;
}
);
layerId = "91AB5BCA-6A50-42DA-B2F7-8181BF189245";
paths = (
{
closed = 1;
nodes = (
"569 -20 OFFCURVE",
"693 120 OFFCURVE",
"769 210 CURVE SMOOTH",
"775 216 OFFCURVE",
"777 216 OFFCURVE",
"779 210 CURVE SMOOTH",
"819 126 OFFCURVE",
"893 -20 OFFCURVE",
"1113 -20 CURVE SMOOTH",
"1291 -20 OFFCURVE",
"1453 78 OFFCURVE",
"1533 208 CURVE",
"1483 252 LINE",
"1417 166 OFFCURVE",
"1321 54 OFFCURVE",
"1127 54 CURVE SMOOTH",
"927 54 OFFCURVE",
"801 286 OFFCURVE",
"829 494 CURVE",
"1603 496 LINE",
"1653 852 OFFCURVE",
"1515 1054 OFFCURVE",
"1269 1054 CURVE SMOOTH",
"1101 1054 OFFCURVE",
"963 976 OFFCURVE",
"869 820 CURVE",
"853 976 OFFCURVE",
"763 1054 OFFCURVE",
"587 1054 CURVE SMOOTH",
"431 1054 OFFCURVE",
"279 970 OFFCURVE",
"179 826 CURVE",
"229 784 LINE",
"333 910 OFFCURVE",
"443 978 OFFCURVE",
"561 978 CURVE SMOOTH",
"741 978 OFFCURVE",
"823 874 OFFCURVE",
"799 708 CURVE SMOOTH",
"787 620 LINE",
"551 600 LINE SMOOTH",
"257 574 OFFCURVE",
"101 456 OFFCURVE",
"75 266 CURVE SMOOTH",
"49 88 OFFCURVE",
"147 -20 OFFCURVE",
"333 -20 CURVE SMOOTH"
);
},
{
closed = 1;
nodes = (
"209 48 OFFCURVE",
"135 138 OFFCURVE",
"153 270 CURVE SMOOTH",
"173 420 OFFCURVE",
"305 508 OFFCURVE",
"577 530 CURVE SMOOTH",
"777 546 LINE",
"749 346 LINE",
"727 194 OFFCURVE",
"555 66 OFFCURVE",
"361 56 CURVE SMOOTH"
);
},
{
closed = 1;
nodes = (
"845 568 LINE",
"881 816 OFFCURVE",
"1057 978 OFFCURVE",
"1253 978 CURVE SMOOTH",
"1451 978 OFFCURVE",
"1567 794 OFFCURVE",
"1535 566 CURVE"
);
}
);
width = 1716;
}
);
leftKerningGroup = a;
leftMetricsKey = a;
rightKerningGroup = e;
rightMetricsKey = e;
unicode = 00E6;
},
{
glyphname = b;
lastChange = "2019-04-23 05:35:58 +0000";
layers = (
{
background = {
paths = (
{
closed = 1;
nodes = (
"347 0 OFFCURVE",
"363 14 OFFCURVE",
"373 46 CURVE SMOOTH",
"405 140 LINE SMOOTH",
"411 156 OFFCURVE",
"419 158 OFFCURVE",
"431 146 CURVE SMOOTH",
"509 44 OFFCURVE",
"617 -20 OFFCURVE",
"743 -20 CURVE SMOOTH",
"1035 -20 OFFCURVE",
"1197 198 OFFCURVE",
"1197 538 CURVE SMOOTH",
"1197 872 OFFCURVE",
"1045 1080 OFFCURVE",
"785 1080 CURVE SMOOTH",
"695 1080 OFFCURVE",
"613 1054 OFFCURVE",
"531 976 CURVE SMOOTH",
"511 960 OFFCURVE",
"493 960 OFFCURVE",
"493 992 CURVE SMOOTH",
"493 1442 LINE SMOOTH",
"493 1468 OFFCURVE",
"481 1484 OFFCURVE",
"457 1484 CURVE SMOOTH",
"131 1484 LINE SMOOTH",
"109 1484 OFFCURVE",
"93 1468 OFFCURVE",
"93 1438 CURVE SMOOTH",
"93 50 LINE SMOOTH",
"93 16 OFFCURVE",
"105 0 OFFCURVE",
"147 0 CURVE SMOOTH",
"321 0 LINE SMOOTH"
);
},
{
closed = 1;
nodes = (
"533 806 OFFCURVE",
"579 836 OFFCURVE",
"641 836 CURVE SMOOTH",
"739 836 OFFCURVE",
"793 762 OFFCURVE",
"793 530 CURVE SMOOTH",
"793 296 OFFCURVE",
"739 214 OFFCURVE",
"635 214 CURVE SMOOTH",
"551 214 OFFCURVE",
"493 270 OFFCURVE",
"493 370 CURVE SMOOTH",
"493 756 LINE"
);
}
);
};
layerId = "258ED206-D907-4350-8EBA-CBDDA1C16BF7";
paths = (
{
closed = 1;
nodes = (
"935 -20 OFFCURVE",
"1125 194 OFFCURVE",
"1175 524 CURVE SMOOTH",
"1225 850 OFFCURVE",
"1109 1054 OFFCURVE",
"855 1054 CURVE SMOOTH",
"755 1054 OFFCURVE",
"635 1004 OFFCURVE",
"547 878 CURVE",
"639 1486 LINE",
"251 1486 LINE",
"27 0 LINE",
"299 0 LINE",
"359 144 LINE",
"399 32 OFFCURVE",
"523 -20 OFFCURVE",
"651 -20 CURVE SMOOTH"
);
},
{
closed = 1;
nodes = (
"503 252 OFFCURVE",
"465 336 OFFCURVE",
"493 528 CURVE",
"493 528 LINE",
"521 706 OFFCURVE",
"587 780 OFFCURVE",
"675 780 CURVE SMOOTH",
"755 780 OFFCURVE",
"815 736 OFFCURVE",
"783 528 CURVE SMOOTH",
"753 320 OFFCURVE",
"681 252 OFFCURVE",
"589 252 CURVE"
);
}
);
width = 1214;
},
{
background = {
paths = (
{
closed = 1;
nodes = (
"250 0 OFFCURVE",
"256 6 OFFCURVE",
"256 26 CURVE SMOOTH",
"260 128 LINE SMOOTH",
"260 146 OFFCURVE",
"270 148 OFFCURVE",
"280 134 CURVE SMOOTH",
"304 100 OFFCURVE",
"404 -20 OFFCURVE",
"610 -20 CURVE SMOOTH",
"898 -20 OFFCURVE",
"1066 192 OFFCURVE",
"1066 534 CURVE SMOOTH",
"1066 832 OFFCURVE",
"938 1080 OFFCURVE",
"632 1080 CURVE SMOOTH",
"420 1080 OFFCURVE",
"308 964 OFFCURVE",
"288 946 CURVE SMOOTH",
"270 930 OFFCURVE",
"262 930 OFFCURVE",
"262 956 CURVE SMOOTH",
"262 1462 LINE SMOOTH",
"262 1478 OFFCURVE",
"258 1484 OFFCURVE",
"246 1484 CURVE SMOOTH",
"200 1484 LINE SMOOTH",
"188 1484 OFFCURVE",
"182 1478 OFFCURVE",
"182 1464 CURVE SMOOTH",
"182 26 LINE SMOOTH",
"182 6 OFFCURVE",
"188 0 OFFCURVE",
"204 0 CURVE SMOOTH",
"226 0 LINE SMOOTH"
);
},
{
closed = 1;
nodes = (
"342 926 OFFCURVE",
"470 1004 OFFCURVE",
"618 1004 CURVE SMOOTH",
"854 1004 OFFCURVE",
"980 818 OFFCURVE",
"980 534 CURVE SMOOTH",
"980 206 OFFCURVE",
"810 56 OFFCURVE",
"602 56 CURVE SMOOTH",
"434 56 OFFCURVE",
"262 192 OFFCURVE",
"262 354 CURVE SMOOTH",
"262 830 LINE"
);
}
);
};
layerId = "91AB5BCA-6A50-42DA-B2F7-8181BF189245";
paths = (
{
closed = 1;
nodes = (
"768 -20 OFFCURVE",
"926 188 OFFCURVE",
"974 520 CURVE SMOOTH",
"1014 812 OFFCURVE",
"932 1054 OFFCURVE",
"658 1054 CURVE SMOOTH",
"420 1054 OFFCURVE",
"322 884 OFFCURVE",
"298 840 CURVE",
"388 1486 LINE",
"316 1486 LINE",
"108 0 LINE",
"172 0 LINE",
"208 212 LINE",
"216 164 OFFCURVE",
"254 -20 OFFCURVE",
"508 -20 CURVE SMOOTH"
);
},
{
closed = 1;
nodes = (
"320 54 OFFCURVE",
"212 208 OFFCURVE",
"230 356 CURVE",
"274 678 LINE",
"288 722 OFFCURVE",
"352 978 OFFCURVE",
"640 978 CURVE SMOOTH",
"856 978 OFFCURVE",
"936 798 OFFCURVE",
"896 520 CURVE SMOOTH",
"852 200 OFFCURVE",
"704 54 OFFCURVE",
"516 54 CURVE SMOOTH"
);
}
);
width = 1084;
}
);
leftKerningGroup = h;
leftMetricsKey = n;
rightKerningGroup = o;
rightMetricsKey = o;
unicode = 0062;
},
{
glyphname = c;
lastChange = "2019-04-23 05:35:58 +0000";
layers = (
{
anchors = (
{
name = bottom;
position = "{477, 0}";
},
{
name = top;
position = "{637, 1034}";
}
);
background = {
anchors = (
{
name = bottom;
position = "{533, 0}";
},
{
name = top;
position = "{535, 1060}";
}
);
paths = (
{
closed = 1;
nodes = (
"219 1080 OFFCURVE",
"-19 856 OFFCURVE",
"-19 526 CURVE SMOOTH",
"-19 202 OFFCURVE",
"215 -20 OFFCURVE",
"535 -20 CURVE SMOOTH",
"859 -20 OFFCURVE",
"991 210 OFFCURVE",
"1011 314 CURVE SMOOTH",
"1019 344 OFFCURVE",
"1015 356 OFFCURVE",
"993 360 CURVE SMOOTH",
"805 396 LINE SMOOTH",
"779 400 OFFCURVE",
"771 396 OFFCURVE",
"765 386 CURVE SMOOTH",
"715 296 OFFCURVE",
"677 228 OFFCURVE",
"567 228 CURVE SMOOTH",
"453 228 OFFCURVE",
"385 308 OFFCURVE",
"385 530 CURVE SMOOTH",
"385 744 OFFCURVE",
"447 828 OFFCURVE",
"545 828 CURVE SMOOTH",
"641 828 OFFCURVE",
"659 752 OFFCURVE",
"667 702 CURVE SMOOTH",
"671 680 OFFCURVE",
"679 672 OFFCURVE",
"701 674 CURVE SMOOTH",
"975 688 LINE SMOOTH",
"1009 690 OFFCURVE",
"1021 706 OFFCURVE",
"1011 740 CURVE SMOOTH",
"979 894 OFFCURVE",
"821 1080 OFFCURVE",
"535 1080 CURVE SMOOTH"
);
}
);
};
guideLines = (
{
angle = -0.5577;
position = "{-492, 167}";
},
{
position = "{512, 123}";
},
{
angle = 3.769;
position = "{407, 307}";
}
);
layerId = "258ED206-D907-4350-8EBA-CBDDA1C16BF7";
paths = (
{
closed = 1;
nodes = (
"757 -20 OFFCURVE",
"953 180 OFFCURVE",
"985 400 CURVE",
"681 400 LINE",
"669 358 OFFCURVE",
"625 248 OFFCURVE",
"527 248 CURVE SMOOTH",
"429 248 OFFCURVE",
"369 346 OFFCURVE",
"395 516 CURVE SMOOTH",
"421 682 OFFCURVE",
"499 766 OFFCURVE",
"599 766 CURVE SMOOTH",
"697 766 OFFCURVE",
"711 670 OFFCURVE",
"709 612 CURVE",
"1023 612 LINE",
"1053 844 OFFCURVE",
"931 1054 OFFCURVE",
"639 1054 CURVE SMOOTH",
"341 1054 OFFCURVE",
"87 832 OFFCURVE",
"39 512 CURVE SMOOTH",
"-9 196 OFFCURVE",
"183 -20 OFFCURVE",
"477 -20 CURVE SMOOTH"
);
}
);
width = 1050;
},
{
anchors = (
{
name = bottom;
position = "{451, 0}";
},
{
name = top;
position = "{593, 1034}";
}
);
background = {
anchors = (
{
name = bottom;
position = "{543, 0}";
},
{
name = top;
position = "{539, 1060}";
}
);
paths = (
{
closed = 1;
nodes = (
"259 1080 OFFCURVE",
"61 850 OFFCURVE",
"61 526 CURVE SMOOTH",
"61 200 OFFCURVE",
"255 -20 OFFCURVE",
"541 -20 CURVE SMOOTH",
"711 -20 OFFCURVE",
"855 58 OFFCURVE",
"951 214 CURVE SMOOTH",
"955 222 OFFCURVE",
"953 230 OFFCURVE",
"947 234 CURVE SMOOTH",
"901 264 LINE SMOOTH",
"893 270 OFFCURVE",
"889 268 OFFCURVE",
"881 256 CURVE SMOOTH",
"793 120 OFFCURVE",
"685 56 OFFCURVE",
"549 56 CURVE SMOOTH",
"305 56 OFFCURVE",
"145 246 OFFCURVE",
"145 530 CURVE SMOOTH",
"145 814 OFFCURVE",
"305 1004 OFFCURVE",
"551 1004 CURVE SMOOTH",
"663 1004 OFFCURVE",
"753 956 OFFCURVE",
"863 822 CURVE SMOOTH",
"871 812 OFFCURVE",
"879 810 OFFCURVE",
"885 814 CURVE SMOOTH",
"933 846 LINE SMOOTH",
"939 850 OFFCURVE",
"941 854 OFFCURVE",
"933 866 CURVE SMOOTH",
"841 998 OFFCURVE",
"719 1080 OFFCURVE",
"541 1080 CURVE SMOOTH"
);
}
);
};
layerId = "91AB5BCA-6A50-42DA-B2F7-8181BF189245";
paths = (
{
closed = 1;
nodes = (
"603 -20 OFFCURVE",
"775 56 OFFCURVE",
"849 276 CURVE",
"773 276 LINE",
"719 122 OFFCURVE",
"593 54 OFFCURVE",
"465 54 CURVE SMOOTH",
"249 54 OFFCURVE",
"147 238 OFFCURVE",
"185 516 CURVE SMOOTH",
"225 792 OFFCURVE",
"383 978 OFFCURVE",
"597 978 CURVE SMOOTH",
"717 978 OFFCURVE",
"821 918 OFFCURVE",
"839 754 CURVE",
"917 758 LINE",
"907 966 OFFCURVE",
"759 1054 OFFCURVE",
"599 1054 CURVE SMOOTH",
"341 1054 OFFCURVE",
"155 830 OFFCURVE",
"109 512 CURVE SMOOTH",
"65 196 OFFCURVE",
"189 -20 OFFCURVE",
"447 -20 CURVE SMOOTH"
);
}
);
width = 993;
}
);
leftKerningGroup = o;
leftMetricsKey = e;
rightKerningGroup = o;
unicode = 0063;
},
{
glyphname = d;
lastChange = "2019-04-24 18:08:52 +0000";
layers = (
{
anchors = (
{
name = bottom;
position = "{503, 0}";
},
{
name = center;
position = "{581, 516}";
},
{
name = topright;
position = "{1215, 1034}";
}
);
background = {
anchors = (
{
name = bottom;
position = "{595, 0}";
},
{
name = center;
position = "{595, 530}";
},
{
name = topright;
position = "{1167, 1060}";
}
);
paths = (
{
closed = 1;
nodes = (
"1077 0 LINE SMOOTH",
"1119 0 OFFCURVE",
"1131 16 OFFCURVE",
"1131 50 CURVE SMOOTH",
"1131 1438 LINE SMOOTH",
"1131 1468 OFFCURVE",
"1115 1484 OFFCURVE",
"1093 1484 CURVE SMOOTH",
"769 1484 LINE SMOOTH",
"745 1484 OFFCURVE",
"733 1468 OFFCURVE",
"733 1442 CURVE SMOOTH",
"733 992 LINE SMOOTH",
"733 960 OFFCURVE",
"715 960 OFFCURVE",
"695 976 CURVE SMOOTH",
"613 1056 OFFCURVE",
"537 1080 OFFCURVE",
"447 1080 CURVE SMOOTH",
"227 1080 OFFCURVE",
"27 862 OFFCURVE",
"27 526 CURVE SMOOTH",
"27 164 OFFCURVE",
"191 -20 OFFCURVE",
"427 -20 CURVE SMOOTH",
"551 -20 OFFCURVE",
"629 20 OFFCURVE",
"707 92 CURVE SMOOTH",
"721 104 OFFCURVE",
"737 102 OFFCURVE",
"737 84 CURVE SMOOTH",
"737 46 LINE SMOOTH",
"737 12 OFFCURVE",
"761 0 OFFCURVE",
"787 0 CURVE SMOOTH"
);
},
{
closed = 1;
nodes = (
"731 352 LINE SMOOTH",
"731 274 OFFCURVE",
"669 220 OFFCURVE",
"591 220 CURVE SMOOTH",
"489 220 OFFCURVE",
"431 298 OFFCURVE",
"431 528 CURVE SMOOTH",
"431 760 OFFCURVE",
"497 832 OFFCURVE",
"591 832 CURVE SMOOTH",
"653 832 OFFCURVE",
"689 806 OFFCURVE",
"731 756 CURVE"
);
}
);
};
layerId = "258ED206-D907-4350-8EBA-CBDDA1C16BF7";
paths = (
{
closed = 1;
nodes = (
"565 -20 OFFCURVE",
"677 68 OFFCURVE",
"743 212 CURVE",
"757 0 LINE",
"1031 0 LINE",
"1257 1486 LINE",
"869 1486 LINE",
"783 916 LINE",
"735 1022 OFFCURVE",
"621 1054 OFFCURVE",
"519 1054 CURVE SMOOTH",
"267 1054 OFFCURVE",
"89 850 OFFCURVE",
"41 524 CURVE SMOOTH",
"-11 194 OFFCURVE",
"115 -20 OFFCURVE",
"399 -20 CURVE SMOOTH"
);
},
{
closed = 1;
nodes = (
"443 252 OFFCURVE",
"383 320 OFFCURVE",
"415 528 CURVE SMOOTH",
"445 736 OFFCURVE",
"531 780 OFFCURVE",
"609 780 CURVE SMOOTH",
"695 780 OFFCURVE",
"755 728 OFFCURVE",
"731 568 CURVE",
"717 478 LINE",
"693 324 OFFCURVE",
"619 252 OFFCURVE",
"533 252 CURVE"
);
}
);
width = 1211;
},
{
anchors = (
{
name = bottom;
position = "{456, 0}";
},
{
name = center;
position = "{550, 516}";
},
{
name = topright;
position = "{1242, 1446}";
}
);
background = {
anchors = (
{
name = bottom;
position = "{576, 0}";
},
{
name = center;
position = "{600, 530}";
},
{
name = topright;
position = "{1226, 1484}";
}
);
paths = (
{
closed = 1;
nodes = (
"950 0 LINE SMOOTH",
"968 0 OFFCURVE",
"974 6 OFFCURVE",
"974 24 CURVE SMOOTH",
"974 1466 LINE SMOOTH",
"974 1478 OFFCURVE",
"968 1484 OFFCURVE",
"958 1484 CURVE SMOOTH",
"912 1484 LINE SMOOTH",
"898 1484 OFFCURVE",
"894 1478 OFFCURVE",
"894 1464 CURVE SMOOTH",
"894 986 LINE SMOOTH",
"894 960 OFFCURVE",
"890 952 OFFCURVE",
"866 972 CURVE SMOOTH",
"804 1020 OFFCURVE",
"718 1080 OFFCURVE",
"572 1080 CURVE SMOOTH",
"278 1080 OFFCURVE",
"86 850 OFFCURVE",
"86 510 CURVE SMOOTH",
"86 156 OFFCURVE",
"292 -20 OFFCURVE",
"548 -20 CURVE SMOOTH",
"740 -20 OFFCURVE",
"842 98 OFFCURVE",
"874 132 CURVE SMOOTH",
"890 148 OFFCURVE",
"898 146 OFFCURVE",
"898 124 CURVE SMOOTH",
"898 22 LINE SMOOTH",
"898 8 OFFCURVE",
"904 0 OFFCURVE",
"918 0 CURVE SMOOTH"
);
},
{
closed = 1;
nodes = (
"894 340 LINE SMOOTH",
"894 220 OFFCURVE",
"750 56 OFFCURVE",
"558 56 CURVE SMOOTH",
"354 56 OFFCURVE",
"170 200 OFFCURVE",
"170 518 CURVE SMOOTH",
"170 822 OFFCURVE",
"340 1004 OFFCURVE",
"574 1004 CURVE SMOOTH",
"696 1004 OFFCURVE",
"796 948 OFFCURVE",
"894 852 CURVE"
);
}
);
};
layerId = "91AB5BCA-6A50-42DA-B2F7-8181BF189245";
paths = (
{
closed = 1;
nodes = (
"678 -20 OFFCURVE",
"768 164 OFFCURVE",
"790 212 CURVE",
"766 0 LINE",
"830 0 LINE",
"1040 1486 LINE",
"968 1486 LINE",
"880 856 LINE",
"866 900 OFFCURVE",
"798 1054 OFFCURVE",
"576 1054 CURVE SMOOTH",
"302 1054 OFFCURVE",
"152 812 OFFCURVE",
"110 520 CURVE SMOOTH",
"64 188 OFFCURVE",
"166 -20 OFFCURVE",
"424 -20 CURVE SMOOTH"
);
},
{
closed = 1;
nodes = (
"250 54 OFFCURVE",
"142 200 OFFCURVE",
"188 520 CURVE SMOOTH",
"226 798 OFFCURVE",
"358 978 OFFCURVE",
"572 978 CURVE SMOOTH",
"840 978 OFFCURVE",
"852 722 OFFCURVE",
"854 678 CURVE",
"808 356 LINE",
"784 208 OFFCURVE",
"634 54 OFFCURVE",
"436 54 CURVE SMOOTH"
);
}
);
width = 1064;
}
);
leftKerningGroup = o;
leftMetricsKey = e;
rightKerningGroup = u;
rightMetricsKey = u;
unicode = 0064;
},
{
glyphname = eth;
lastChange = "2019-04-23 05:35:58 +0000";
layers = (
{
background = {
paths = (
{
closed = 1;
nodes = (
"1147 880 OFFCURVE",
"997 1164 OFFCURVE",
"749 1338 CURVE",
"841 1390 LINE SMOOTH",
"853 1398 OFFCURVE",
"855 1408 OFFCURVE",
"849 1418 CURVE SMOOTH",
"807 1494 LINE SMOOTH",
"799 1504 OFFCURVE",
"785 1508 OFFCURVE",
"771 1498 CURVE SMOOTH",
"621 1414 LINE",
"547 1452 OFFCURVE",
"465 1480 OFFCURVE",
"379 1500 CURVE SMOOTH",
"355 1506 OFFCURVE",
"351 1504 OFFCURVE",
"337 1492 CURVE SMOOTH",
"169 1354 LINE SMOOTH",
"155 1342 OFFCURVE",
"161 1330 OFFCURVE",
"173 1326 CURVE SMOOTH",
"233 1306 OFFCURVE",
"287 1282 OFFCURVE",
"337 1256 CURVE",
"195 1178 LINE SMOOTH",
"181 1172 OFFCURVE",
"175 1156 OFFCURVE",
"191 1134 CURVE SMOOTH",
"221 1086 LINE SMOOTH",
"235 1064 OFFCURVE",
"247 1060 OFFCURVE",
"269 1072 CURVE SMOOTH",
"461 1180 LINE",
"517 1138 OFFCURVE",
"555 1102 OFFCURVE",
"593 1050 CURVE SMOOTH",
"597 1044 OFFCURVE",
"597 1040 OFFCURVE",
"589 1040 CURVE SMOOTH",
"273 1040 OFFCURVE",
"31 818 OFFCURVE",
"31 504 CURVE SMOOTH",
"31 206 OFFCURVE",
"259 -20 OFFCURVE",
"587 -20 CURVE SMOOTH",
"921 -20 OFFCURVE",
"1147 204 OFFCURVE",
"1147 564 CURVE SMOOTH"
);
},
{
closed = 1;
nodes = (
"483 236 OFFCURVE",
"435 324 OFFCURVE",
"435 512 CURVE SMOOTH",
"435 702 OFFCURVE",
"483 792 OFFCURVE",
"589 792 CURVE SMOOTH",
"697 792 OFFCURVE",
"743 702 OFFCURVE",
"743 512 CURVE SMOOTH",
"743 326 OFFCURVE",
"697 236 OFFCURVE",
"589 236 CURVE SMOOTH"
);
}
);
};
layerId = "258ED206-D907-4350-8EBA-CBDDA1C16BF7";
paths = (
{
closed = 1;
nodes = (
"821 -20 OFFCURVE",
"1073 198 OFFCURVE",
"1127 550 CURVE SMOOTH",
"1173 858 OFFCURVE",
"1071 1134 OFFCURVE",
"855 1304 CURVE",
"973 1366 LINE",
"929 1474 LINE",
"743 1378 LINE",
"671 1418 OFFCURVE",
"587 1446 OFFCURVE",
"497 1468 CURVE",
"273 1302 LINE",
"335 1280 OFFCURVE",
"393 1254 OFFCURVE",
"447 1224 CURVE",
"271 1136 LINE",
"321 1030 LINE",
"555 1150 LINE",
"601 1110 OFFCURVE",
"635 1074 OFFCURVE",
"663 1024 CURVE SMOOTH",
"665 1018 OFFCURVE",
"665 1014 OFFCURVE",
"657 1014 CURVE SMOOTH",
"351 1014 OFFCURVE",
"83 798 OFFCURVE",
"37 492 CURVE SMOOTH",
"-7 200 OFFCURVE",
"181 -20 OFFCURVE",
"497 -20 CURVE SMOOTH"
);
},
{
closed = 1;
nodes = (
"437 230 OFFCURVE",
"401 316 OFFCURVE",
"429 500 CURVE SMOOTH",
"457 684 OFFCURVE",
"519 772 OFFCURVE",
"619 772 CURVE SMOOTH",
"725 772 OFFCURVE",
"755 684 OFFCURVE",
"727 500 CURVE SMOOTH",
"701 318 OFFCURVE",
"643 230 OFFCURVE",
"537 230 CURVE SMOOTH"
);
}
);
width = 1162;
},
{
background = {
paths = (
{
closed = 1;
nodes = (
"1076 844 OFFCURVE",
"966 1126 OFFCURVE",
"654 1338 CURVE",
"834 1438 LINE SMOOTH",
"840 1442 OFFCURVE",
"840 1448 OFFCURVE",
"836 1454 CURVE SMOOTH",
"812 1498 LINE SMOOTH",
"810 1502 OFFCURVE",
"800 1504 OFFCURVE",
"794 1500 CURVE SMOOTH",
"586 1384 LINE",
"516 1426 OFFCURVE",
"442 1462 OFFCURVE",
"354 1498 CURVE SMOOTH",
"336 1506 OFFCURVE",
"330 1502 OFFCURVE",
"318 1494 CURVE SMOOTH",
"282 1470 LINE SMOOTH",
"272 1462 OFFCURVE",
"274 1452 OFFCURVE",
"284 1448 CURVE SMOOTH",
"368 1414 OFFCURVE",
"442 1378 OFFCURVE",
"510 1340 CURVE",
"200 1166 LINE SMOOTH",
"194 1162 OFFCURVE",
"190 1156 OFFCURVE",
"198 1144 CURVE SMOOTH",
"216 1116 LINE SMOOTH",
"224 1104 OFFCURVE",
"230 1100 OFFCURVE",
"242 1106 CURVE SMOOTH",
"578 1296 LINE",
"750 1180 OFFCURVE",
"856 1046 OFFCURVE",
"918 902 CURVE",
"832 988 OFFCURVE",
"714 1040 OFFCURVE",
"572 1040 CURVE SMOOTH",
"300 1040 OFFCURVE",
"104 816 OFFCURVE",
"104 504 CURVE SMOOTH",
"104 196 OFFCURVE",
"298 -20 OFFCURVE",
"586 -20 CURVE SMOOTH",
"894 -20 OFFCURVE",
"1076 202 OFFCURVE",
"1076 510 CURVE SMOOTH"
);
},
{
closed = 1;
nodes = (
"362 56 OFFCURVE",
"188 256 OFFCURVE",
"188 508 CURVE SMOOTH",
"188 760 OFFCURVE",
"362 964 OFFCURVE",
"592 964 CURVE SMOOTH",
"820 964 OFFCURVE",
"992 762 OFFCURVE",
"992 508 CURVE SMOOTH",
"992 254 OFFCURVE",
"824 56 OFFCURVE",
"594 56 CURVE SMOOTH"
);
}
);
};
layerId = "91AB5BCA-6A50-42DA-B2F7-8181BF189245";
paths = (
{
closed = 1;
nodes = (
"742 -20 OFFCURVE",
"936 196 OFFCURVE",
"978 498 CURVE SMOOTH",
"1024 822 OFFCURVE",
"964 1098 OFFCURVE",
"712 1304 CURVE",
"894 1406 LINE",
"874 1470 LINE",
"658 1350 LINE",
"596 1392 OFFCURVE",
"530 1432 OFFCURVE",
"450 1468 CURVE",
"378 1420 LINE",
"456 1384 OFFCURVE",
"524 1348 OFFCURVE",
"584 1306 CURVE",
"270 1132 LINE",
"296 1070 LINE",
"638 1264 LINE",
"778 1150 OFFCURVE",
"852 1020 OFFCURVE",
"888 880 CURVE",
"824 964 OFFCURVE",
"726 1014 OFFCURVE",
"598 1014 CURVE SMOOTH",
"354 1014 OFFCURVE",
"148 796 OFFCURVE",
"106 492 CURVE SMOOTH",
"64 192 OFFCURVE",
"206 -20 OFFCURVE",
"466 -20 CURVE SMOOTH"
);
},
{
closed = 1;
nodes = (
"274 54 OFFCURVE",
"146 250 OFFCURVE",
"182 496 CURVE SMOOTH",
"216 742 OFFCURVE",
"398 940 OFFCURVE",
"606 940 CURVE SMOOTH",
"810 940 OFFCURVE",
"938 742 OFFCURVE",
"902 496 CURVE SMOOTH",
"868 248 OFFCURVE",
"690 54 OFFCURVE",
"484 54 CURVE SMOOTH"
);
}
);
width = 1091;
}
);
leftKerningGroup = o;
leftMetricsKey = o;
rightKerningGroup = o;
rightMetricsKey = o;
unicode = 00F0;
},
{
glyphname = dcroat;
lastChange = "2019-04-24 18:08:50 +0000";
layers = (
{
background = {
components = (
{
name = d;
transform = "{1, 0, 0, 1, -38, 0}";
}
);
paths = (
{
closed = 1;
nodes = (
"1150 1360 OFFCURVE",
"1138 1374 OFFCURVE",
"1118 1374 CURVE SMOOTH",
"440 1374 LINE SMOOTH",
"420 1374 OFFCURVE",
"408 1360 OFFCURVE",
"408 1334 CURVE SMOOTH",
"408 1204 LINE SMOOTH",
"408 1174 OFFCURVE",
"418 1160 OFFCURVE",
"452 1160 CURVE SMOOTH",
"1092 1160 LINE SMOOTH",
"1132 1160 OFFCURVE",
"1150 1174 OFFCURVE",
"1150 1208 CURVE SMOOTH",
"1150 1338 LINE SMOOTH"
);
}
);
};
components = (
{
name = d;
}
);
layerId = "258ED206-D907-4350-8EBA-CBDDA1C16BF7";
paths = (
{
closed = 1;
nodes = (
"1324 1132 LINE",
"1352 1340 LINE",
"628 1340 LINE",
"600 1132 LINE"
);
}
);
width = 1318;
},
{
background = {
components = (
{
name = d;
transform = "{1, 0, 0, 1, 4, 0}";
}
);
paths = (
{
closed = 1;
nodes = (
"1162 1320 OFFCURVE",
"1158 1324 OFFCURVE",
"1152 1324 CURVE SMOOTH",
"594 1324 LINE SMOOTH",
"588 1324 OFFCURVE",
"584 1320 OFFCURVE",
"584 1310 CURVE SMOOTH",
"584 1270 LINE SMOOTH",
"584 1258 OFFCURVE",
"586 1254 OFFCURVE",
"598 1254 CURVE SMOOTH",
"1142 1254 LINE SMOOTH",
"1156 1254 OFFCURVE",
"1162 1258 OFFCURVE",
"1162 1270 CURVE SMOOTH",
"1162 1312 LINE SMOOTH"
);
}
);
};
components = (
{
name = d;
}
);
layerId = "91AB5BCA-6A50-42DA-B2F7-8181BF189245";
paths = (
{
closed = 1;
nodes = (
"1130 1222 LINE",
"1130 1290 LINE",
"568 1290 LINE",
"568 1222 LINE"
);
}
);
width = 1131;
}
);
leftKerningGroup = o;
leftMetricsKey = d;
rightMetricsKey = t;
unicode = 0111;
},
{
glyphname = e;
lastChange = "2019-04-23 05:35:58 +0000";
layers = (
{
anchors = (
{
name = bottom;
position = "{492, 0}";
},
{
name = ogonek;
position = "{748, 50}";
},
{
name = top;
position = "{642, 1034}";
}
);
background = {
anchors = (
{
name = bottom;
position = "{546, 0}";
},
{
name = ogonek;
position = "{804, 52}";
},
{
name = top;
position = "{540, 1060}";
}
);
paths = (
{
closed = 1;
nodes = (
"392 448 OFFCURVE",
"402 458 OFFCURVE",
"422 458 CURVE SMOOTH",
"1044 458 LINE SMOOTH",
"1078 460 OFFCURVE",
"1080 474 OFFCURVE",
"1080 508 CURVE SMOOTH",
"1080 870 OFFCURVE",
"850 1080 OFFCURVE",
"536 1080 CURVE SMOOTH",
"240 1080 OFFCURVE",
"-20 852 OFFCURVE",
"-20 512 CURVE SMOOTH",
"-20 198 OFFCURVE",
"224 -20 OFFCURVE",
"544 -20 CURVE SMOOTH",
"768 -20 OFFCURVE",
"904 34 OFFCURVE",
"1048 236 CURVE SMOOTH",
"1066 258 OFFCURVE",
"1060 276 OFFCURVE",
"1040 284 CURVE SMOOTH",
"858 358 LINE SMOOTH",
"832 368 OFFCURVE",
"826 366 OFFCURVE",
"816 356 CURVE SMOOTH",
"728 270 OFFCURVE",
"666 244 OFFCURVE",
"598 244 CURVE SMOOTH",
"482 244 OFFCURVE",
"392 302 OFFCURVE",
"392 424 CURVE SMOOTH"
);
},
{
closed = 1;
nodes = (
"396 790 OFFCURVE",
"472 846 OFFCURVE",
"554 846 CURVE SMOOTH",
"654 846 OFFCURVE",
"692 744 OFFCURVE",
"692 692 CURVE SMOOTH",
"692 668 OFFCURVE",
"684 664 OFFCURVE",
"658 664 CURVE SMOOTH",
"398 666 LINE"
);
}
);
};
layerId = "258ED206-D907-4350-8EBA-CBDDA1C16BF7";
paths = (
{
closed = 1;
nodes = (
"726 -20 OFFCURVE",
"980 122 OFFCURVE",
"1046 352 CURVE",
"704 352 LINE",
"660 272 OFFCURVE",
"600 252 OFFCURVE",
"528 252 CURVE SMOOTH",
"444 252 OFFCURVE",
"384 304 OFFCURVE",
"406 428 CURVE",
"1054 428 LINE",
"1068 518 LINE",
"1114 824 OFFCURVE",
"980 1054 OFFCURVE",
"644 1054 CURVE SMOOTH",
"314 1054 OFFCURVE",
"82 800 OFFCURVE",
"38 504 CURVE SMOOTH",
"-10 190 OFFCURVE",
"176 -20 OFFCURVE",
"496 -20 CURVE SMOOTH"
);
},
{
closed = 1;
nodes = (
"448 724 OFFCURVE",
"524 792 OFFCURVE",
"604 792 CURVE SMOOTH",
"702 792 OFFCURVE",
"742 724 OFFCURVE",
"730 646 CURVE",
"436 646 LINE"
);
}
);
width = 1109;
},
{
anchors = (
{
name = bottom;
position = "{443, 0}";
},
{
name = ogonek;
position = "{621, 36}";
},
{
name = top;
position = "{591, 1034}";
}
);
background = {
anchors = (
{
name = bottom;
position = "{541, 0}";
},
{
name = ogonek;
position = "{727, 36}";
},
{
name = top;
position = "{535, 1060}";
}
);
paths = (
{
closed = 1;
nodes = (
"137 494 OFFCURVE",
"141 508 OFFCURVE",
"149 508 CURVE SMOOTH",
"971 508 LINE SMOOTH",
"1001 508 OFFCURVE",
"997 532 OFFCURVE",
"997 548 CURVE SMOOTH",
"997 884 OFFCURVE",
"821 1080 OFFCURVE",
"539 1080 CURVE SMOOTH",
"257 1080 OFFCURVE",
"53 872 OFFCURVE",
"53 522 CURVE SMOOTH",
"53 200 OFFCURVE",
"251 -20 OFFCURVE",
"539 -20 CURVE SMOOTH",
"727 -20 OFFCURVE",
"867 54 OFFCURVE",
"959 200 CURVE SMOOTH",
"965 208 OFFCURVE",
"963 216 OFFCURVE",
"957 220 CURVE SMOOTH",
"911 250 LINE SMOOTH",
"903 256 OFFCURVE",
"897 254 OFFCURVE",
"889 242 CURVE SMOOTH",
"817 122 OFFCURVE",
"699 56 OFFCURVE",
"539 56 CURVE SMOOTH",
"315 56 OFFCURVE",
"137 254 OFFCURVE",
"137 480 CURVE SMOOTH"
);
},
{
closed = 1;
nodes = (
"137 780 OFFCURVE",
"273 1004 OFFCURVE",
"537 1004 CURVE SMOOTH",
"769 1004 OFFCURVE",
"913 828 OFFCURVE",
"913 608 CURVE SMOOTH",
"913 586 OFFCURVE",
"907 580 OFFCURVE",
"879 580 CURVE SMOOTH",
"139 580 LINE"
);
}
);
};
guideLines = (
{
angle = 88.4926;
position = "{210, 483}";
}
);
layerId = "91AB5BCA-6A50-42DA-B2F7-8181BF189245";
paths = (
{
closed = 1;
nodes = (
"623 -20 OFFCURVE",
"777 66 OFFCURVE",
"859 276 CURVE",
"783 276 LINE",
"723 138 OFFCURVE",
"613 58 OFFCURVE",
"465 58 CURVE SMOOTH",
"225 58 OFFCURVE",
"151 262 OFFCURVE",
"183 496 CURVE",
"901 496 LINE",
"909 554 LINE",
"955 872 OFFCURVE",
"837 1054 OFFCURVE",
"593 1054 CURVE SMOOTH",
"335 1054 OFFCURVE",
"157 850 OFFCURVE",
"109 508 CURVE SMOOTH",
"61 170 OFFCURVE",
"205 -20 OFFCURVE",
"453 -20 CURVE SMOOTH"
);
},
{
closed = 1;
nodes = (
"223 768 OFFCURVE",
"349 976 OFFCURVE",
"581 976 CURVE SMOOTH",
"795 976 OFFCURVE",
"869 804 OFFCURVE",
"837 574 CURVE",
"197 574 LINE"
);
}
);
width = 1014;
}
);
leftKerningGroup = o;
rightKerningGroup = o;
unicode = 0065;
},
{
glyphname = f;
lastChange = "2019-04-23 05:35:58 +0000";
layers = (
{
background = {
paths = (
{
closed = 1;
nodes = (
"610 1060 LINE SMOOTH",
"594 1060 OFFCURVE",
"584 1066 OFFCURVE",
"584 1086 CURVE SMOOTH",
"584 1122 LINE SMOOTH",
"584 1178 OFFCURVE",
"628 1224 OFFCURVE",
"674 1224 CURVE SMOOTH",
"760 1224 LINE SMOOTH",
"784 1224 OFFCURVE",
"796 1242 OFFCURVE",
"796 1264 CURVE",
"794 1432 LINE",
"794 1464 OFFCURVE",
"774 1484 OFFCURVE",
"736 1484 CURVE SMOOTH",
"510 1484 LINE SMOOTH",
"316 1484 OFFCURVE",
"194 1376 OFFCURVE",
"194 1202 CURVE SMOOTH",
"194 1096 LINE SMOOTH",
"194 1070 OFFCURVE",
"188 1060 OFFCURVE",
"166 1060 CURVE SMOOTH",
"70 1060 LINE SMOOTH",
"36 1060 OFFCURVE",
"22 1040 OFFCURVE",
"22 1016 CURVE SMOOTH",
"22 828 LINE SMOOTH",
"22 800 OFFCURVE",
"38 790 OFFCURVE",
"66 790 CURVE SMOOTH",
"178 790 LINE SMOOTH",
"190 790 OFFCURVE",
"194 784 OFFCURVE",
"194 770 CURVE SMOOTH",
"194 40 LINE SMOOTH",
"194 14 OFFCURVE",
"208 0 OFFCURVE",
"230 0 CURVE SMOOTH",
"556 0 LINE SMOOTH",
"580 0 OFFCURVE",
"594 14 OFFCURVE",
"594 44 CURVE SMOOTH",
"594 766 LINE SMOOTH",
"594 782 OFFCURVE",
"604 790 OFFCURVE",
"618 790 CURVE SMOOTH",
"742 790 LINE SMOOTH",
"768 790 OFFCURVE",
"786 800 OFFCURVE",
"786 828 CURVE SMOOTH",
"786 1016 LINE SMOOTH",
"786 1040 OFFCURVE",
"770 1060 OFFCURVE",
"736 1060 CURVE SMOOTH"
);
}
);
};
layerId = "258ED206-D907-4350-8EBA-CBDDA1C16BF7";
paths = (
{
closed = 1;
nodes = (
"500 0 LINE",
"618 770 LINE",
"804 770 LINE",
"844 1034 LINE",
"650 1034 LINE",
"658 1094 LINE SMOOTH",
"670 1170 OFFCURVE",
"696 1194 OFFCURVE",
"760 1194 CURVE SMOOTH",
"878 1194 LINE",
"916 1446 LINE",
"640 1446 LINE SMOOTH",
"452 1446 OFFCURVE",
"318 1342 OFFCURVE",
"292 1172 CURVE SMOOTH",
"270 1034 LINE",
"106 1034 LINE",
"66 770 LINE",
"230 770 LINE",
"114 0 LINE"
);
}
);
width = 785;
},
{
background = {
paths = (
{
closed = 1;
nodes = (
"435 1060 LINE SMOOTH",
"425 1060 OFFCURVE",
"421 1064 OFFCURVE",
"421 1074 CURVE SMOOTH",
"421 1254 LINE SMOOTH",
"421 1356 OFFCURVE",
"447 1414 OFFCURVE",
"547 1414 CURVE SMOOTH",
"707 1414 LINE SMOOTH",
"717 1414 OFFCURVE",
"723 1418 OFFCURVE",
"723 1428 CURVE SMOOTH",
"723 1470 LINE SMOOTH",
"723 1480 OFFCURVE",
"719 1484 OFFCURVE",
"711 1484 CURVE SMOOTH",
"567 1484 LINE SMOOTH",
"407 1484 OFFCURVE",
"341 1400 OFFCURVE",
"341 1236 CURVE SMOOTH",
"341 1074 LINE SMOOTH",
"341 1064 OFFCURVE",
"337 1060 OFFCURVE",
"327 1060 CURVE SMOOTH",
"101 1060 LINE SMOOTH",
"93 1060 OFFCURVE",
"89 1056 OFFCURVE",
"89 1048 CURVE SMOOTH",
"89 1002 LINE SMOOTH",
"89 994 OFFCURVE",
"93 990 OFFCURVE",
"101 990 CURVE SMOOTH",
"329 990 LINE SMOOTH",
"337 990 OFFCURVE",
"341 984 OFFCURVE",
"341 976 CURVE SMOOTH",
"341 20 LINE SMOOTH",
"341 6 OFFCURVE",
"345 0 OFFCURVE",
"357 0 CURVE SMOOTH",
"403 0 LINE SMOOTH",
"415 0 OFFCURVE",
"421 6 OFFCURVE",
"421 22 CURVE SMOOTH",
"421 976 LINE SMOOTH",
"421 986 OFFCURVE",
"425 990 OFFCURVE",
"435 990 CURVE SMOOTH",
"701 990 LINE SMOOTH",
"709 990 OFFCURVE",
"713 994 OFFCURVE",
"713 1002 CURVE SMOOTH",
"713 1048 LINE SMOOTH",
"713 1056 OFFCURVE",
"709 1060 OFFCURVE",
"703 1060 CURVE SMOOTH"
);
}
);
};
layerId = "91AB5BCA-6A50-42DA-B2F7-8181BF189245";
paths = (
{
closed = 1;
nodes = (
"307 0 LINE",
"441 966 LINE",
"703 966 LINE",
"713 1034 LINE",
"451 1034 LINE",
"477 1222 LINE SMOOTH",
"491 1322 OFFCURVE",
"523 1378 OFFCURVE",
"613 1378 CURVE SMOOTH",
"771 1378 LINE",
"779 1446 LINE",
"641 1446 LINE SMOOTH",
"497 1446 OFFCURVE",
"427 1366 OFFCURVE",
"403 1206 CURVE SMOOTH",
"379 1034 LINE",
"153 1034 LINE",
"143 966 LINE",
"371 966 LINE",
"235 0 LINE"
);
}
);
width = 740;
}
);
leftKerningGroup = f;
rightKerningGroup = f;
unicode = 0066;
},
{
glyphname = g;
lastChange = "2019-04-24 18:29:34 +0000";
layers = (
{
anchors = (
{
name = top;
position = "{770, 1034}";
}
);
background = {
anchors = (
{
name = top;
position = "{505, 1060}";
}
);
paths = (
{
closed = 1;
nodes = (
"1065 1124 OFFCURVE",
"953 1068 OFFCURVE",
"899 992 CURVE SMOOTH",
"885 972 OFFCURVE",
"857 970 OFFCURVE",
"837 986 CURVE SMOOTH",
"771 1038 OFFCURVE",
"655 1076 OFFCURVE",
"503 1076 CURVE SMOOTH",
"145 1076 OFFCURVE",
"-37 938 OFFCURVE",
"-37 746 CURVE SMOOTH",
"-37 624 OFFCURVE",
"39 530 OFFCURVE",
"171 474 CURVE SMOOTH",
"191 462 OFFCURVE",
"177 456 OFFCURVE",
"165 450 CURVE SMOOTH",
"57 404 OFFCURVE",
"-53 338 OFFCURVE",
"-53 244 CURVE SMOOTH",
"-53 162 OFFCURVE",
"9 112 OFFCURVE",
"79 78 CURVE SMOOTH",
"95 70 OFFCURVE",
"99 62 OFFCURVE",
"79 56 CURVE SMOOTH",
"-27 26 OFFCURVE",
"-115 -16 OFFCURVE",
"-115 -106 CURVE SMOOTH",
"-115 -274 OFFCURVE",
"89 -350 OFFCURVE",
"507 -350 CURVE SMOOTH",
"909 -350 OFFCURVE",
"1113 -198 OFFCURVE",
"1113 6 CURVE SMOOTH",
"1113 170 OFFCURVE",
"981 286 OFFCURVE",
"685 304 CURVE SMOOTH",
"381 322 LINE SMOOTH",
"323 326 OFFCURVE",
"293 334 OFFCURVE",
"293 364 CURVE SMOOTH",
"293 396 OFFCURVE",
"347 418 OFFCURVE",
"479 418 CURVE SMOOTH",
"815 418 OFFCURVE",
"993 568 OFFCURVE",
"993 748 CURVE SMOOTH",
"993 768 OFFCURVE",
"989 790 OFFCURVE",
"983 810 CURVE SMOOTH",
"975 838 OFFCURVE",
"985 856 OFFCURVE",
"1023 856 CURVE SMOOTH",
"1047 856 OFFCURVE",
"1085 850 OFFCURVE",
"1111 842 CURVE SMOOTH",
"1141 832 OFFCURVE",
"1163 848 OFFCURVE",
"1163 894 CURVE SMOOTH",
"1163 1074 LINE SMOOTH",
"1163 1110 OFFCURVE",
"1145 1124 OFFCURVE",
"1123 1124 CURVE SMOOTH"
);
},
{
closed = 1;
nodes = (
"375 600 OFFCURVE",
"319 668 OFFCURVE",
"319 740 CURVE SMOOTH",
"319 822 OFFCURVE",
"375 890 OFFCURVE",
"475 890 CURVE SMOOTH",
"587 890 OFFCURVE",
"631 822 OFFCURVE",
"631 740 CURVE SMOOTH",
"631 670 OFFCURVE",
"587 600 OFFCURVE",
"475 600 CURVE SMOOTH"
);
},
{
closed = 1;
nodes = (
"721 0 OFFCURVE",
"767 -32 OFFCURVE",
"767 -70 CURVE SMOOTH",
"767 -128 OFFCURVE",
"683 -172 OFFCURVE",
"527 -172 CURVE SMOOTH",
"277 -172 OFFCURVE",
"207 -128 OFFCURVE",
"207 -54 CURVE SMOOTH",
"207 -12 OFFCURVE",
"259 20 OFFCURVE",
"345 16 CURVE SMOOTH",
"635 4 LINE SMOOTH"
);
}
);
};
layerId = "258ED206-D907-4350-8EBA-CBDDA1C16BF7";
paths = (
{
closed = 1;
nodes = (
"897 -342 OFFCURVE",
"1105 -205 OFFCURVE",
"1132 -16 CURVE SMOOTH",
"1156 155 OFFCURVE",
"1041 295 OFFCURVE",
"748 314 CURVE SMOOTH",
"670 321 OFFCURVE",
"589 323 OFFCURVE",
"544 327 CURVE SMOOTH",
"472 333 OFFCURVE",
"411 343 OFFCURVE",
"404 375 CURVE SMOOTH",
"401 389 OFFCURVE",
"419 381 OFFCURVE",
"449 379 CURVE",
"474 377 OFFCURVE",
"545 374 OFFCURVE",
"586 374 CURVE SMOOTH",
"905 374 OFFCURVE",
"1094 543 OFFCURVE",
"1118 708 CURVE SMOOTH",
"1121 731 OFFCURVE",
"1120 769 OFFCURVE",
"1116 799 CURVE",
"1300 834 LINE",
"1332 1114 LINE",
"1212 1066 OFFCURVE",
"1056 1010 OFFCURVE",
"965 975 CURVE",
"902 1011 OFFCURVE",
"827 1050 OFFCURVE",
"670 1050 CURVE SMOOTH",
"366 1050 OFFCURVE",
"145 930 OFFCURVE",
"119 750 CURVE SMOOTH",
"102 629 OFFCURVE",
"163 490 OFFCURVE",
"295 426 CURVE",
"121 400 OFFCURVE",
"45 331 OFFCURVE",
"35 260 CURVE SMOOTH",
"17 135 OFFCURVE",
"134 85 OFFCURVE",
"154 73 CURVE",
"129 64 OFFCURVE",
"-56 41 OFFCURVE",
"-74 -82 CURVE SMOOTH",
"-94 -225 OFFCURVE",
"97 -342 OFFCURVE",
"514 -342 CURVE SMOOTH"
);
},
{
closed = 1;
nodes = (
"378 -138 OFFCURVE",
"297 -126 OFFCURVE",
"305 -71 CURVE SMOOTH",
"311 -26 OFFCURVE",
"354 23 OFFCURVE",
"461 17 CURVE SMOOTH",
"648 5 LINE SMOOTH",
"727 -1 OFFCURVE",
"763 -19 OFFCURVE",
"759 -52 CURVE SMOOTH",
"752 -101 OFFCURVE",
"712 -138 OFFCURVE",
"567 -138 CURVE SMOOTH"
);
},
{
closed = 1;
nodes = (
"526 578 OFFCURVE",
"492 625 OFFCURVE",
"501 692 CURVE SMOOTH",
"514 781 OFFCURVE",
"584 860 OFFCURVE",
"667 860 CURVE SMOOTH",
"732 860 OFFCURVE",
"765 803 OFFCURVE",
"755 736 CURVE SMOOTH",
"743 647 OFFCURVE",
"674 578 OFFCURVE",
"591 578 CURVE SMOOTH"
);
}
);
width = 1275;
},
{
anchors = (
{
name = top;
position = "{632, 1034}";
}
);
background = {
anchors = (
{
name = top;
position = "{411, 1060}";
}
);
guideLines = (
{
angle = 90;
position = "{144, 374}";
showMeasurement = 1;
}
);
paths = (
{
closed = 1;
nodes = (
"839 1060 OFFCURVE",
"779 1014 OFFCURVE",
"739 984 CURVE SMOOTH",
"725 974 OFFCURVE",
"717 974 OFFCURVE",
"703 986 CURVE SMOOTH",
"635 1044 OFFCURVE",
"549 1076 OFFCURVE",
"417 1076 CURVE SMOOTH",
"153 1076 OFFCURVE",
"-3 950 OFFCURVE",
"-3 738 CURVE SMOOTH",
"-3 614 OFFCURVE",
"45 532 OFFCURVE",
"155 470 CURVE SMOOTH",
"169 462 OFFCURVE",
"173 450 OFFCURVE",
"157 446 CURVE SMOOTH",
"57 414 OFFCURVE",
"23 362 OFFCURVE",
"23 318 CURVE SMOOTH",
"23 274 OFFCURVE",
"45 242 OFFCURVE",
"99 218 CURVE SMOOTH",
"113 212 OFFCURVE",
"113 204 OFFCURVE",
"99 196 CURVE SMOOTH",
"-27 126 OFFCURVE",
"-85 42 OFFCURVE",
"-85 -54 CURVE SMOOTH",
"-85 -240 OFFCURVE",
"87 -350 OFFCURVE",
"395 -350 CURVE SMOOTH",
"697 -350 OFFCURVE",
"873 -238 OFFCURVE",
"873 -38 CURVE SMOOTH",
"873 120 OFFCURVE",
"779 220 OFFCURVE",
"565 232 CURVE SMOOTH",
"325 246 LINE SMOOTH",
"171 254 OFFCURVE",
"107 272 OFFCURVE",
"107 320 CURVE SMOOTH",
"107 368 OFFCURVE",
"173 418 OFFCURVE",
"403 418 CURVE SMOOTH",
"685 418 OFFCURVE",
"807 560 OFFCURVE",
"807 738 CURVE SMOOTH",
"807 822 OFFCURVE",
"779 868 OFFCURVE",
"765 902 CURVE SMOOTH",
"759 916 OFFCURVE",
"769 928 OFFCURVE",
"805 948 CURVE SMOOTH",
"837 966 OFFCURVE",
"863 974 OFFCURVE",
"915 976 CURVE SMOOTH",
"943 978 OFFCURVE",
"949 990 OFFCURVE",
"949 1008 CURVE SMOOTH",
"949 1034 LINE SMOOTH",
"949 1052 OFFCURVE",
"941 1060 OFFCURVE",
"911 1060 CURVE SMOOTH"
);
},
{
closed = 1;
nodes = (
"195 494 OFFCURVE",
"77 580 OFFCURVE",
"77 742 CURVE SMOOTH",
"77 906 OFFCURVE",
"197 1000 OFFCURVE",
"405 1000 CURVE SMOOTH",
"617 1000 OFFCURVE",
"727 908 OFFCURVE",
"727 742 CURVE SMOOTH",
"727 578 OFFCURVE",
"621 494 OFFCURVE",
"405 494 CURVE SMOOTH"
);
},
{
closed = 1;
nodes = (
"731 140 OFFCURVE",
"789 72 OFFCURVE",
"789 -38 CURVE SMOOTH",
"789 -202 OFFCURVE",
"657 -274 OFFCURVE",
"413 -274 CURVE SMOOTH",
"151 -274 OFFCURVE",
"-1 -192 OFFCURVE",
"-1 -46 CURVE SMOOTH",
"-1 86 OFFCURVE",
"147 176 OFFCURVE",
"211 172 CURVE SMOOTH",
"563 150 LINE SMOOTH"
);
}
);
};
guideLines = (
{
angle = 90;
position = "{282, 347}";
showMeasurement = 1;
}
);
layerId = "91AB5BCA-6A50-42DA-B2F7-8181BF189245";
paths = (
{
closed = 1;
nodes = (
"681 -342 OFFCURVE",
"852 -234 OFFCURVE",
"877 -42 CURVE SMOOTH",
"897 116 OFFCURVE",
"823 214 OFFCURVE",
"630 226 CURVE SMOOTH",
"542 232 OFFCURVE",
"472 236 OFFCURVE",
"415 240 CURVE SMOOTH",
"265 252 OFFCURVE",
"224 266 OFFCURVE",
"231 318 CURVE SMOOTH",
"236 354 OFFCURVE",
"302 404 OFFCURVE",
"495 408 CURVE SMOOTH",
"500 408 OFFCURVE",
"506 408 OFFCURVE",
"515 408 CURVE SMOOTH",
"767 408 OFFCURVE",
"894 544 OFFCURVE",
"916 716 CURVE SMOOTH",
"923 770 OFFCURVE",
"910 850 OFFCURVE",
"895 890 CURVE",
"1072 932 LINE",
"1085 1049 LINE",
"1060 1039 OFFCURVE",
"891 965 OFFCURVE",
"864 952 CURVE",
"800 1017 OFFCURVE",
"724 1050 OFFCURVE",
"603 1050 CURVE SMOOTH",
"367 1050 OFFCURVE",
"212 928 OFFCURVE",
"186 724 CURVE SMOOTH",
"168 592 OFFCURVE",
"205 515 OFFCURVE",
"314 446 CURVE",
"216 415 OFFCURVE",
"162 368 OFFCURVE",
"155 314 CURVE SMOOTH",
"146 250 OFFCURVE",
"189 227 OFFCURVE",
"220 205 CURVE",
"187 177 OFFCURVE",
"31 106 OFFCURVE",
"11 -48 CURVE SMOOTH",
"-13 -232 OFFCURVE",
"131 -342 OFFCURVE",
"410 -342 CURVE SMOOTH"
);
},
{
closed = 1;
nodes = (
"193 -268 OFFCURVE",
"69 -190 OFFCURVE",
"87 -48 CURVE SMOOTH",
"104 82 OFFCURVE",
"251 172 OFFCURVE",
"308 168 CURVE SMOOTH",
"624 146 LINE SMOOTH",
"774 136 OFFCURVE",
"816 72 OFFCURVE",
"802 -34 CURVE SMOOTH",
"781 -194 OFFCURVE",
"614 -268 OFFCURVE",
"428 -268 CURVE SMOOTH"
);
},
{
closed = 1;
nodes = (
"330 482 OFFCURVE",
"237 564 OFFCURVE",
"257 720 CURVE SMOOTH",
"278 882 OFFCURVE",
"400 976 OFFCURVE",
"591 976 CURVE SMOOTH",
"763 976 OFFCURVE",
"868 898 OFFCURVE",
"845 728 CURVE SMOOTH",
"824 566 OFFCURVE",
"715 482 OFFCURVE",
"518 482 CURVE SMOOTH"
);
}
);
width = 1114;
}
);
leftKerningGroup = g;
rightKerningGroup = g;
unicode = 0067;
},
{
glyphname = gcommaaccent;
lastChange = "2019-04-24 18:30:04 +0000";
layers = (
{
anchors = (
{
name = _top;
position = "{694, 1034}";
}
);
background = {
anchors = (
{
name = _top;
position = "{530, 1100}";
}
);
components = (
{
name = g;
transform = "{1, 0, 0, 1, -38, 0}";
}
);
paths = (
{
closed = 1;
nodes = (
"624 1198 LINE SMOOTH",
"644 1198 OFFCURVE",
"660 1210 OFFCURVE",
"660 1238 CURVE SMOOTH",
"660 1360 LINE SMOOTH",
"660 1392 OFFCURVE",
"648 1404 OFFCURVE",
"614 1404 CURVE SMOOTH",
"596 1404 LINE SMOOTH",
"568 1404 OFFCURVE",
"556 1434 OFFCURVE",
"578 1462 CURVE SMOOTH",
"644 1552 LINE SMOOTH",
"656 1568 OFFCURVE",
"642 1592 OFFCURVE",
"620 1592 CURVE SMOOTH",
"584 1592 LINE SMOOTH",
"548 1592 OFFCURVE",
"534 1586 OFFCURVE",
"518 1564 CURVE SMOOTH",
"410 1430 LINE SMOOTH",
"408 1424 OFFCURVE",
"402 1414 OFFCURVE",
"402 1404 CURVE SMOOTH",
"402 1230 LINE SMOOTH",
"402 1210 OFFCURVE",
"414 1198 OFFCURVE",
"436 1198 CURVE SMOOTH"
);
}
);
};
components = (
{
name = g;
}
);
layerId = "258ED206-D907-4350-8EBA-CBDDA1C16BF7";
paths = (
{
closed = 1;
nodes = (
"814 1168 LINE",
"842 1368 LINE",
"720 1368 LINE",
"880 1552 LINE",
"748 1552 LINE",
"592 1384 LINE",
"562 1168 LINE"
);
}
);
width = 1275;
},
{
anchors = (
{
name = _top;
position = "{558, 1072}";
}
);
background = {
anchors = (
{
name = _top;
position = "{574, 1100}";
}
);
components = (
{
name = g;
transform = "{1, 0, 0, 1, 4, 0}";
}
);
paths = (
{
closed = 1;
nodes = (
"612 1264 LINE SMOOTH",
"620 1264 OFFCURVE",
"626 1268 OFFCURVE",
"626 1280 CURVE SMOOTH",
"626 1412 LINE SMOOTH",
"626 1426 OFFCURVE",
"622 1430 OFFCURVE",
"610 1430 CURVE SMOOTH",
"594 1430 LINE SMOOTH",
"584 1430 OFFCURVE",
"580 1436 OFFCURVE",
"586 1448 CURVE SMOOTH",
"636 1556 LINE SMOOTH",
"640 1564 OFFCURVE",
"636 1572 OFFCURVE",
"628 1572 CURVE SMOOTH",
"602 1572 LINE SMOOTH",
"586 1572 OFFCURVE",
"580 1570 OFFCURVE",
"574 1560 CURVE SMOOTH",
"512 1442 LINE SMOOTH",
"512 1440 OFFCURVE",
"510 1434 OFFCURVE",
"510 1430 CURVE SMOOTH",
"510 1278 LINE SMOOTH",
"510 1268 OFFCURVE",
"514 1264 OFFCURVE",
"522 1264 CURVE SMOOTH"
);
}
);
};
components = (
{
name = g;
}
);
layerId = "91AB5BCA-6A50-42DA-B2F7-8181BF189245";
paths = (
{
closed = 1;
nodes = (
"688 1232 LINE",
"712 1394 LINE",
"666 1394 LINE",
"750 1532 LINE",
"688 1532 LINE",
"600 1402 LINE",
"576 1232 LINE"
);
}
);
width = 1114;
}
);
leftKerningGroup = g;
leftMetricsKey = g;
rightKerningGroup = g;
rightMetricsKey = g;
unicode = 0123;
},
{
glyphname = h;
lastChange = "2019-04-24 18:33:44 +0000";
layers = (
{
anchors = (
{
name = bottom;
position = "{539, 0}";
},
{
name = top;
position = "{435, 1446}";
}
);
background = {
anchors = (
{
name = bottom;
position = "{625, 0}";
},
{
name = top;
position = "{903, 1060}";
}
);
paths = (
{
closed = 1;
nodes = (
"431 0 LINE SMOOTH",
"479 0 OFFCURVE",
"497 16 OFFCURVE",
"497 58 CURVE SMOOTH",
"497 698 LINE",
"535 766 OFFCURVE",
"583 798 OFFCURVE",
"645 798 CURVE SMOOTH",
"709 798 OFFCURVE",
"749 762 OFFCURVE",
"749 702 CURVE SMOOTH",
"749 50 LINE SMOOTH",
"749 12 OFFCURVE",
"761 0 OFFCURVE",
"795 0 CURVE SMOOTH",
"1089 0 LINE SMOOTH",
"1131 0 OFFCURVE",
"1149 20 OFFCURVE",
"1149 60 CURVE SMOOTH",
"1149 750 LINE SMOOTH",
"1149 962 OFFCURVE",
"1035 1080 OFFCURVE",
"837 1080 CURVE SMOOTH",
"731 1080 OFFCURVE",
"631 1046 OFFCURVE",
"517 936 CURVE SMOOTH",
"501 922 OFFCURVE",
"491 928 OFFCURVE",
"491 944 CURVE SMOOTH",
"491 1442 LINE SMOOTH",
"491 1468 OFFCURVE",
"479 1484 OFFCURVE",
"455 1484 CURVE SMOOTH",
"135 1484 LINE SMOOTH",
"111 1484 OFFCURVE",
"97 1466 OFFCURVE",
"97 1438 CURVE SMOOTH",
"97 50 LINE SMOOTH",
"97 14 OFFCURVE",
"111 0 OFFCURVE",
"149 0 CURVE SMOOTH"
);
}
);
};
layerId = "258ED206-D907-4350-8EBA-CBDDA1C16BF7";
paths = (
{
closed = 1;
nodes = (
"415 0 LINE",
"513 642 LINE",
"521 700 OFFCURVE",
"591 740 OFFCURVE",
"649 740 CURVE SMOOTH",
"707 740 OFFCURVE",
"765 704 OFFCURVE",
"755 646 CURVE SMOOTH",
"657 0 LINE",
"1045 0 LINE",
"1151 692 LINE SMOOTH",
"1181 898 OFFCURVE",
"1035 1034 OFFCURVE",
"843 1034 CURVE SMOOTH",
"681 1034 OFFCURVE",
"609 966 OFFCURVE",
"553 906 CURVE",
"641 1486 LINE",
"253 1486 LINE",
"27 0 LINE"
);
}
);
width = 1216;
},
{
anchors = (
{
name = bottom;
position = "{487, 0}";
},
{
name = top;
position = "{350, 1446}";
}
);
background = {
anchors = (
{
name = bottom;
position = "{611, 0}";
},
{
name = top;
position = "{655, 1060}";
}
);
paths = (
{
closed = 1;
nodes = (
"249 0 LINE SMOOTH",
"261 0 OFFCURVE",
"267 6 OFFCURVE",
"267 18 CURVE SMOOTH",
"267 820 LINE",
"427 942 OFFCURVE",
"521 1004 OFFCURVE",
"663 1004 CURVE SMOOTH",
"837 1004 OFFCURVE",
"909 910 OFFCURVE",
"909 754 CURVE SMOOTH",
"909 18 LINE SMOOTH",
"909 6 OFFCURVE",
"915 0 OFFCURVE",
"927 0 CURVE SMOOTH",
"971 0 LINE SMOOTH",
"983 0 OFFCURVE",
"989 6 OFFCURVE",
"989 20 CURVE SMOOTH",
"989 786 LINE SMOOTH",
"989 960 OFFCURVE",
"879 1080 OFFCURVE",
"665 1080 CURVE SMOOTH",
"519 1080 OFFCURVE",
"429 1022 OFFCURVE",
"277 914 CURVE SMOOTH",
"265 904 OFFCURVE",
"261 906 OFFCURVE",
"261 920 CURVE SMOOTH",
"261 1468 LINE SMOOTH",
"261 1480 OFFCURVE",
"257 1484 OFFCURVE",
"245 1484 CURVE SMOOTH",
"203 1484 LINE SMOOTH",
"191 1484 OFFCURVE",
"187 1478 OFFCURVE",
"187 1466 CURVE SMOOTH",
"187 18 LINE SMOOTH",
"187 6 OFFCURVE",
"193 0 OFFCURVE",
"205 0 CURVE SMOOTH"
);
}
);
};
layerId = "91AB5BCA-6A50-42DA-B2F7-8181BF189245";
paths = (
{
closed = 1;
nodes = (
"179 0 LINE",
"281 720 LINE",
"305 896 OFFCURVE",
"463 978 OFFCURVE",
"631 978 CURVE SMOOTH",
"793 978 OFFCURVE",
"881 888 OFFCURVE",
"859 736 CURVE SMOOTH",
"755 0 LINE",
"827 0 LINE",
"935 766 LINE SMOOTH",
"959 936 OFFCURVE",
"833 1054 OFFCURVE",
"645 1054 CURVE SMOOTH",
"489 1054 OFFCURVE",
"361 978 OFFCURVE",
"297 880 CURVE",
"383 1486 LINE",
"317 1486 LINE",
"107 0 LINE"
);
}
);
width = 1060;
}
);
leftKerningGroup = h;
leftMetricsKey = n;
rightKerningGroup = n;
rightMetricsKey = n;
unicode = 0068;
},
{
glyphname = hbar;
lastChange = "2019-04-24 16:57:24 +0000";
layers = (
{
background = {
components = (
{
name = h;
transform = "{1, 0, 0, 1, 12, 0}";
}
);
paths = (
{
closed = 1;
nodes = (
"766 1360 OFFCURVE",
"754 1374 OFFCURVE",
"734 1374 CURVE SMOOTH",
"56 1374 LINE SMOOTH",
"36 1374 OFFCURVE",
"24 1360 OFFCURVE",
"24 1334 CURVE SMOOTH",
"24 1204 LINE SMOOTH",
"24 1174 OFFCURVE",
"34 1160 OFFCURVE",
"68 1160 CURVE SMOOTH",
"708 1160 LINE SMOOTH",
"748 1160 OFFCURVE",
"766 1174 OFFCURVE",
"766 1208 CURVE SMOOTH",
"766 1338 LINE SMOOTH"
);
}
);
};
components = (
{
name = h;
transform = "{1, 0, 0, 1, 100, 0}";
}
);
layerId = "258ED206-D907-4350-8EBA-CBDDA1C16BF7";
paths = (
{
closed = 1;
nodes = (
"850 1132 LINE",
"878 1340 LINE",
"156 1340 LINE",
"128 1132 LINE"
);
}
);
width = 1316;
},
{
background = {
components = (
{
name = h;
transform = "{1, 0, 0, 1, 54, 0}";
}
);
paths = (
{
closed = 1;
nodes = (
"725 1320 OFFCURVE",
"721 1324 OFFCURVE",
"715 1324 CURVE SMOOTH",
"157 1324 LINE SMOOTH",
"151 1324 OFFCURVE",
"147 1320 OFFCURVE",
"147 1310 CURVE SMOOTH",
"147 1270 LINE SMOOTH",
"147 1258 OFFCURVE",
"149 1254 OFFCURVE",
"161 1254 CURVE SMOOTH",
"705 1254 LINE SMOOTH",
"719 1254 OFFCURVE",
"725 1258 OFFCURVE",
"725 1270 CURVE SMOOTH",
"725 1312 LINE SMOOTH"
);
}
);
};
components = (
{
name = h;
transform = "{1, 0, 0, 1, 99, 0}";
}
);
layerId = "91AB5BCA-6A50-42DA-B2F7-8181BF189245";
paths = (
{
closed = 1;
nodes = (
"705 1222 LINE",
"713 1290 LINE",
"149 1290 LINE",
"141 1222 LINE"
);
}
);
width = 1159;
}
);
leftKerningGroup = h;
rightKerningGroup = n;
rightMetricsKey = h;
unicode = 0127;
},
{
glyphname = i;
lastChange = "2019-04-23 05:35:58 +0000";
layers = (
{
anchors = (
{
name = bottom;
position = "{223, 0}";
}
);
background = {
paths = (
{
closed = 1;
nodes = (
"503 1044 OFFCURVE",
"489 1060 OFFCURVE",
"467 1060 CURVE SMOOTH",
"141 1060 LINE SMOOTH",
"117 1060 OFFCURVE",
"103 1044 OFFCURVE",
"103 1014 CURVE SMOOTH",
"103 50 LINE SMOOTH",
"103 16 OFFCURVE",
"115 0 OFFCURVE",
"155 0 CURVE SMOOTH",
"437 0 LINE SMOOTH",
"483 0 OFFCURVE",
"503 16 OFFCURVE",
"503 58 CURVE SMOOTH",
"503 1020 LINE SMOOTH"
);
},
{
closed = 1;
nodes = (
"503 1468 OFFCURVE",
"489 1484 OFFCURVE",
"467 1484 CURVE SMOOTH",
"141 1484 LINE SMOOTH",
"117 1484 OFFCURVE",
"103 1468 OFFCURVE",
"103 1438 CURVE SMOOTH",
"103 1200 LINE SMOOTH",
"103 1166 OFFCURVE",
"115 1148 OFFCURVE",
"155 1148 CURVE SMOOTH",
"437 1148 LINE SMOOTH",
"483 1148 OFFCURVE",
"503 1166 OFFCURVE",
"503 1206 CURVE SMOOTH",
"503 1442 LINE SMOOTH"
);
}
);
};
layerId = "258ED206-D907-4350-8EBA-CBDDA1C16BF7";
paths = (
{
closed = 1;
nodes = (
"415 0 LINE",
"571 1034 LINE",
"185 1034 LINE",
"27 0 LINE"
);
},
{
closed = 1;
nodes = (
"591 1158 LINE",
"641 1486 LINE",
"253 1486 LINE",
"203 1158 LINE"
);
}
);
width = 595;
},
{
anchors = (
{
name = bottom;
position = "{171, 0}";
}
);
background = {
paths = (
{
closed = 1;
nodes = (
"319 1056 OFFCURVE",
"315 1060 OFFCURVE",
"301 1060 CURVE SMOOTH",
"257 1060 LINE SMOOTH",
"243 1060 OFFCURVE",
"239 1056 OFFCURVE",
"239 1040 CURVE SMOOTH",
"239 20 LINE SMOOTH",
"239 4 OFFCURVE",
"243 0 OFFCURVE",
"261 0 CURVE SMOOTH",
"295 0 LINE SMOOTH",
"315 0 OFFCURVE",
"319 4 OFFCURVE",
"319 24 CURVE SMOOTH",
"319 1040 LINE SMOOTH"
);
},
{
closed = 1;
nodes = (
"329 1474 OFFCURVE",
"319 1484 OFFCURVE",
"305 1484 CURVE SMOOTH",
"253 1484 LINE SMOOTH",
"239 1484 OFFCURVE",
"229 1474 OFFCURVE",
"229 1458 CURVE SMOOTH",
"229 1316 LINE SMOOTH",
"229 1300 OFFCURVE",
"233 1288 OFFCURVE",
"251 1288 CURVE SMOOTH",
"305 1288 LINE SMOOTH",
"325 1288 OFFCURVE",
"329 1300 OFFCURVE",
"329 1320 CURVE SMOOTH",
"329 1458 LINE SMOOTH"
);
}
);
};
layerId = "91AB5BCA-6A50-42DA-B2F7-8181BF189245";
paths = (
{
closed = 1;
nodes = (
"209 0 LINE",
"353 1034 LINE",
"281 1034 LINE",
"137 0 LINE"
);
},
{
closed = 1;
nodes = (
"397 1294 LINE",
"415 1414 LINE",
"327 1414 LINE",
"309 1294 LINE"
);
}
);
width = 489;
}
);
leftKerningGroup = n;
rightKerningGroup = d;
unicode = 0069;
},
{
glyphname = idotless;
lastChange = "2019-04-23 05:35:58 +0000";
layers = (
{
anchors = (
{
name = ogonek;
position = "{363, 18}";
},
{
name = top;
position = "{385, 1034}";
}
);
background = {
anchors = (
{
name = ogonek;
position = "{413, 18}";
},
{
name = top;
position = "{277, 1060}";
}
);
paths = (
{
closed = 1;
nodes = (
"469 1044 OFFCURVE",
"455 1060 OFFCURVE",
"433 1060 CURVE SMOOTH",
"107 1060 LINE SMOOTH",
"83 1060 OFFCURVE",
"69 1044 OFFCURVE",
"69 1014 CURVE SMOOTH",
"69 50 LINE SMOOTH",
"69 16 OFFCURVE",
"81 0 OFFCURVE",
"121 0 CURVE SMOOTH",
"403 0 LINE SMOOTH",
"449 0 OFFCURVE",
"469 16 OFFCURVE",
"469 58 CURVE SMOOTH",
"469 1020 LINE SMOOTH"
);
}
);
};
layerId = "258ED206-D907-4350-8EBA-CBDDA1C16BF7";
paths = (
{
closed = 1;
nodes = (
"415 0 LINE",
"573 1034 LINE",
"185 1034 LINE",
"27 0 LINE"
);
}
);
width = 590;
},
{
anchors = (
{
name = ogonek;
position = "{189, 26}";
},
{
name = top;
position = "{307, 1034}";
}
);
background = {
anchors = (
{
name = ogonek;
position = "{267, 26}";
},
{
name = top;
position = "{243, 1060}";
}
);
paths = (
{
closed = 1;
nodes = (
"283 1056 OFFCURVE",
"279 1060 OFFCURVE",
"265 1060 CURVE SMOOTH",
"221 1060 LINE SMOOTH",
"207 1060 OFFCURVE",
"203 1056 OFFCURVE",
"203 1040 CURVE SMOOTH",
"203 20 LINE SMOOTH",
"203 4 OFFCURVE",
"207 0 OFFCURVE",
"225 0 CURVE SMOOTH",
"259 0 LINE SMOOTH",
"279 0 OFFCURVE",
"283 4 OFFCURVE",
"283 24 CURVE SMOOTH",
"283 1040 LINE SMOOTH"
);
}
);
};
layerId = "91AB5BCA-6A50-42DA-B2F7-8181BF189245";
paths = (
{
closed = 1;
nodes = (
"199 0 LINE",
"345 1034 LINE",
"273 1034 LINE",
"127 0 LINE"
);
}
);
width = 472;
}
);
leftKerningGroup = n;
leftMetricsKey = i;
rightKerningGroup = d;
rightMetricsKey = i;
unicode = 0131;
},
{
glyphname = j;
lastChange = "2019-04-23 05:35:58 +0000";
layers = (
{
background = {
paths = (
{
closed = 1;
nodes = (
"515 1020 LINE SMOOTH",
"515 1044 OFFCURVE",
"503 1060 OFFCURVE",
"479 1060 CURVE SMOOTH",
"155 1060 LINE SMOOTH",
"131 1060 OFFCURVE",
"115 1044 OFFCURVE",
"115 1014 CURVE SMOOTH",
"115 72 LINE SMOOTH",
"115 4 OFFCURVE",
"93 -12 OFFCURVE",
"67 -20 CURVE SMOOTH",
"-3 -32 LINE SMOOTH",
"-29 -38 OFFCURVE",
"-43 -64 OFFCURVE",
"-43 -86 CURVE SMOOTH",
"-41 -290 LINE SMOOTH",
"-41 -332 OFFCURVE",
"-17 -340 OFFCURVE",
"95 -340 CURVE SMOOTH",
"379 -340 OFFCURVE",
"515 -206 OFFCURVE",
"515 58 CURVE SMOOTH"
);
},
{
closed = 1;
nodes = (
"515 1468 OFFCURVE",
"503 1484 OFFCURVE",
"479 1484 CURVE SMOOTH",
"155 1484 LINE SMOOTH",
"131 1484 OFFCURVE",
"115 1468 OFFCURVE",
"115 1438 CURVE SMOOTH",
"115 1200 LINE SMOOTH",
"115 1166 OFFCURVE",
"129 1148 OFFCURVE",
"169 1148 CURVE SMOOTH",
"451 1148 LINE SMOOTH",
"451 1148 OFFCURVE",
"515 1166 OFFCURVE",
"515 1206 CURVE SMOOTH",
"515 1442 LINE SMOOTH"
);
}
);
};
layerId = "258ED206-D907-4350-8EBA-CBDDA1C16BF7";
paths = (
{
closed = 1;
nodes = (
"267 -332 OFFCURVE",
"419 -200 OFFCURVE",
"457 56 CURVE SMOOTH",
"607 1034 LINE",
"219 1034 LINE",
"71 56 LINE",
"65 14 OFFCURVE",
"41 -12 OFFCURVE",
"-35 -28 CURVE",
"-97 -38 LINE",
"-135 -298 LINE",
"-135 -298 OFFCURVE",
"-109 -332 OFFCURVE",
"-7 -332 CURVE"
);
},
{
closed = 1;
nodes = (
"625 1158 LINE",
"675 1486 LINE",
"287 1486 LINE",
"237 1158 LINE"
);
}
);
width = 649;
},
{
background = {
paths = (
{
closed = 1;
nodes = (
"285 1040 LINE SMOOTH",
"285 1054 OFFCURVE",
"281 1060 OFFCURVE",
"269 1060 CURVE SMOOTH",
"225 1060 LINE SMOOTH",
"211 1060 OFFCURVE",
"205 1054 OFFCURVE",
"205 1040 CURVE SMOOTH",
"205 -92 LINE SMOOTH",
"205 -220 OFFCURVE",
"163 -264 OFFCURVE",
"57 -266 CURVE SMOOTH",
"-59 -268 LINE SMOOTH",
"-67 -268 OFFCURVE",
"-71 -272 OFFCURVE",
"-71 -280 CURVE SMOOTH",
"-71 -322 LINE SMOOTH",
"-71 -338 OFFCURVE",
"-59 -340 OFFCURVE",
"59 -340 CURVE SMOOTH",
"241 -340 OFFCURVE",
"285 -266 OFFCURVE",
"285 -102 CURVE SMOOTH"
);
},
{
closed = 1;
nodes = (
"295 1474 OFFCURVE",
"285 1484 OFFCURVE",
"271 1484 CURVE SMOOTH",
"219 1484 LINE SMOOTH",
"205 1484 OFFCURVE",
"195 1474 OFFCURVE",
"195 1458 CURVE SMOOTH",
"195 1316 LINE SMOOTH",
"195 1300 OFFCURVE",
"199 1288 OFFCURVE",
"217 1288 CURVE SMOOTH",
"271 1288 LINE SMOOTH",
"291 1288 OFFCURVE",
"295 1300 OFFCURVE",
"295 1320 CURVE SMOOTH",
"295 1458 LINE SMOOTH"
);
}
);
};
layerId = "91AB5BCA-6A50-42DA-B2F7-8181BF189245";
paths = (
{
closed = 1;
nodes = (
"101 -332 OFFCURVE",
"149 -260 OFFCURVE",
"171 -100 CURVE SMOOTH",
"331 1034 LINE",
"259 1034 LINE",
"101 -90 LINE SMOOTH",
"83 -214 OFFCURVE",
"41 -258 OFFCURVE",
"-55 -260 CURVE SMOOTH",
"-169 -262 LINE",
"-177 -314 LINE SMOOTH",
"-177 -314 OFFCURVE",
"-171 -332 OFFCURVE",
"-63 -332 CURVE SMOOTH"
);
},
{
closed = 1;
nodes = (
"377 1294 LINE",
"393 1414 LINE",
"305 1414 LINE",
"289 1294 LINE"
);
}
);
width = 448;
}
);
leftKerningGroup = j;
rightKerningGroup = d;
unicode = 006A;
},
{
glyphname = jdotless;
lastChange = "2019-04-23 05:35:58 +0000";
layers = (
{
anchors = (
{
name = top;
position = "{411, 1034}";
}
);
background = {
anchors = (
{
name = top;
position = "{279, 1060}";
}
);
paths = (
{
closed = 1;
nodes = (
"479 1020 LINE SMOOTH",
"479 1044 OFFCURVE",
"467 1060 OFFCURVE",
"443 1060 CURVE SMOOTH",
"119 1060 LINE SMOOTH",
"95 1060 OFFCURVE",
"79 1044 OFFCURVE",
"79 1014 CURVE SMOOTH",
"79 72 LINE SMOOTH",
"79 4 OFFCURVE",
"57 -12 OFFCURVE",
"31 -20 CURVE SMOOTH",
"-39 -32 LINE SMOOTH",
"-65 -38 OFFCURVE",
"-79 -64 OFFCURVE",
"-79 -86 CURVE SMOOTH",
"-77 -290 LINE SMOOTH",
"-77 -332 OFFCURVE",
"-53 -340 OFFCURVE",
"59 -340 CURVE SMOOTH",
"343 -340 OFFCURVE",
"479 -206 OFFCURVE",
"479 58 CURVE SMOOTH"
);
}
);
};
layerId = "258ED206-D907-4350-8EBA-CBDDA1C16BF7";
paths = (
{
closed = 1;
nodes = (
"267 -332 OFFCURVE",
"419 -200 OFFCURVE",
"459 56 CURVE SMOOTH",
"607 1034 LINE",
"219 1034 LINE",
"71 56 LINE",
"65 14 OFFCURVE",
"39 -12 OFFCURVE",
"-37 -28 CURVE",
"-97 -38 LINE",
"-135 -298 LINE",
"-135 -298 OFFCURVE",
"-111 -332 OFFCURVE",
"-9 -332 CURVE"
);
}
);
width = 644;
},
{
anchors = (
{
name = top;
position = "{297, 1034}";
}
);
background = {
anchors = (
{
name = top;
position = "{219, 1060}";
}
);
paths = (
{
closed = 1;
nodes = (
"259 1040 LINE SMOOTH",
"259 1054 OFFCURVE",
"255 1060 OFFCURVE",
"243 1060 CURVE SMOOTH",
"199 1060 LINE SMOOTH",
"185 1060 OFFCURVE",
"179 1054 OFFCURVE",
"179 1040 CURVE SMOOTH",
"179 -92 LINE SMOOTH",
"179 -220 OFFCURVE",
"137 -264 OFFCURVE",
"31 -266 CURVE SMOOTH",
"-85 -268 LINE SMOOTH",
"-93 -268 OFFCURVE",
"-97 -272 OFFCURVE",
"-97 -280 CURVE SMOOTH",
"-97 -322 LINE SMOOTH",
"-97 -338 OFFCURVE",
"-85 -340 OFFCURVE",
"33 -340 CURVE SMOOTH",
"215 -340 OFFCURVE",
"259 -266 OFFCURVE",
"259 -102 CURVE SMOOTH"
);
}
);
};
layerId = "91AB5BCA-6A50-42DA-B2F7-8181BF189245";
paths = (
{
closed = 1;
nodes = (
"101 -332 OFFCURVE",
"151 -260 OFFCURVE",
"173 -100 CURVE SMOOTH",
"333 1034 LINE",
"261 1034 LINE",
"103 -90 LINE SMOOTH",
"85 -214 OFFCURVE",
"41 -258 OFFCURVE",
"-53 -260 CURVE SMOOTH",
"-169 -262 LINE",
"-177 -314 LINE SMOOTH",
"-179 -330 OFFCURVE",
"-169 -332 OFFCURVE",
"-61 -332 CURVE SMOOTH"
);
}
);
width = 440;
}
);
leftKerningGroup = j;
leftMetricsKey = j;
rightKerningGroup = d;
rightMetricsKey = j;
unicode = 0237;
},
{
glyphname = k;
lastChange = "2019-04-23 05:35:58 +0000";
layers = (
{
anchors = (
{
name = bottom;
position = "{529, 0}";
}
);
background = {
anchors = (
{
name = bottom;
position = "{617, 0}";
}
);
paths = (
{
closed = 1;
nodes = (
"923 674 LINE SMOOTH",
"905 710 OFFCURVE",
"909 722 OFFCURVE",
"927 744 CURVE SMOOTH",
"1185 1002 LINE SMOOTH",
"1211 1030 OFFCURVE",
"1203 1060 OFFCURVE",
"1157 1060 CURVE SMOOTH",
"883 1060 LINE SMOOTH",
"863 1060 OFFCURVE",
"841 1046 OFFCURVE",
"821 1026 CURVE SMOOTH",
"521 688 LINE SMOOTH",
"505 670 OFFCURVE",
"497 680 OFFCURVE",
"497 692 CURVE SMOOTH",
"497 1442 LINE SMOOTH",
"497 1468 OFFCURVE",
"485 1484 OFFCURVE",
"461 1484 CURVE SMOOTH",
"135 1484 LINE SMOOTH",
"113 1484 OFFCURVE",
"97 1468 OFFCURVE",
"97 1438 CURVE SMOOTH",
"97 50 LINE SMOOTH",
"97 16 OFFCURVE",
"109 0 OFFCURVE",
"151 0 CURVE SMOOTH",
"433 0 LINE SMOOTH",
"479 0 OFFCURVE",
"497 16 OFFCURVE",
"497 58 CURVE SMOOTH",
"497 260 LINE SMOOTH",
"497 292 OFFCURVE",
"503 306 OFFCURVE",
"515 316 CURVE SMOOTH",
"611 406 LINE SMOOTH",
"631 426 OFFCURVE",
"641 422 OFFCURVE",
"653 396 CURVE SMOOTH",
"797 52 LINE SMOOTH",
"811 20 OFFCURVE",
"829 0 OFFCURVE",
"863 0 CURVE SMOOTH",
"1205 0 LINE SMOOTH",
"1241 0 OFFCURVE",
"1255 34 OFFCURVE",
"1243 56 CURVE SMOOTH"
);
}
);
};
guideLines = (
{
angle = 50.4927;
position = "{261, 343}";
},
{
angle = 122;
position = "{402, 0}";
}
);
layerId = "258ED206-D907-4350-8EBA-CBDDA1C16BF7";
paths = (
{
closed = 1;
nodes = (
"413 0 LINE",
"459 292 LINE",
"547 380 LINE",
"725 0 LINE",
"1101 0 LINE",
"815 606 LINE",
"1257 1034 LINE",
"853 1034 LINE",
"517 686 LINE",
"639 1486 LINE",
"251 1486 LINE",
"27 0 LINE"
);
}
);
width = 1194;
},
{
anchors = (
{
name = bottom;
position = "{433, 0}";
}
);
background = {
anchors = (
{
name = bottom;
position = "{549, 0}";
}
);
paths = (
{
closed = 1;
nodes = (
"615 662 LINE SMOOTH",
"609 672 OFFCURVE",
"611 678 OFFCURVE",
"617 684 CURVE SMOOTH",
"955 1030 LINE SMOOTH",
"973 1048 OFFCURVE",
"971 1060 OFFCURVE",
"951 1060 CURVE SMOOTH",
"887 1060 LINE SMOOTH",
"873 1060 OFFCURVE",
"867 1056 OFFCURVE",
"853 1040 CURVE",
"285 458 LINE SMOOTH",
"269 442 OFFCURVE",
"265 444 OFFCURVE",
"265 468 CURVE SMOOTH",
"265 1464 LINE SMOOTH",
"265 1480 OFFCURVE",
"261 1484 OFFCURVE",
"247 1484 CURVE SMOOTH",
"203 1484 LINE SMOOTH",
"189 1484 OFFCURVE",
"185 1480 OFFCURVE",
"185 1464 CURVE SMOOTH",
"185 20 LINE SMOOTH",
"185 4 OFFCURVE",
"189 0 OFFCURVE",
"207 0 CURVE SMOOTH",
"241 0 LINE SMOOTH",
"261 0 OFFCURVE",
"265 4 OFFCURVE",
"265 24 CURVE SMOOTH",
"265 304 LINE SMOOTH",
"265 318 OFFCURVE",
"269 328 OFFCURVE",
"279 338 CURVE SMOOTH",
"535 598 LINE SMOOTH",
"545 608 OFFCURVE",
"547 604 OFFCURVE",
"551 598 CURVE SMOOTH",
"915 14 LINE SMOOTH",
"921 4 OFFCURVE",
"927 0 OFFCURVE",
"939 0 CURVE SMOOTH",
"1001 0 LINE SMOOTH",
"1019 0 OFFCURVE",
"1021 8 OFFCURVE",
"1011 24 CURVE SMOOTH"
);
}
);
};
guideLines = (
{
angle = 121.8697;
position = "{297, 140}";
}
);
layerId = "91AB5BCA-6A50-42DA-B2F7-8181BF189245";
paths = (
{
closed = 1;
nodes = (
"179 0 LINE",
"223 316 LINE",
"513 592 LINE",
"767 0 LINE",
"859 0 LINE",
"577 658 LINE",
"971 1034 LINE",
"869 1034 LINE",
"239 428 LINE",
"387 1486 LINE",
"317 1486 LINE",
"107 0 LINE"
);
}
);
width = 1022;
}
);
leftKerningGroup = h;
leftMetricsKey = n;
rightKerningGroup = k;
unicode = 006B;
},
{
glyphname = kgreenlandic;
lastChange = "2019-04-23 05:35:58 +0000";
layers = (
{
background = {
paths = (
{
closed = 1;
nodes = (
"891 674 LINE SMOOTH",
"873 710 OFFCURVE",
"877 722 OFFCURVE",
"895 744 CURVE SMOOTH",
"1153 1002 LINE SMOOTH",
"1179 1030 OFFCURVE",
"1171 1060 OFFCURVE",
"1125 1060 CURVE SMOOTH",
"851 1060 LINE SMOOTH",
"831 1060 OFFCURVE",
"809 1046 OFFCURVE",
"789 1026 CURVE SMOOTH",
"489 688 LINE SMOOTH",
"473 670 OFFCURVE",
"465 680 OFFCURVE",
"465 692 CURVE SMOOTH",
"465 1018 LINE SMOOTH",
"465 1044 OFFCURVE",
"453 1060 OFFCURVE",
"429 1060 CURVE SMOOTH",
"103 1060 LINE SMOOTH",
"81 1060 OFFCURVE",
"65 1044 OFFCURVE",
"65 1014 CURVE SMOOTH",
"65 50 LINE SMOOTH",
"65 16 OFFCURVE",
"77 0 OFFCURVE",
"119 0 CURVE SMOOTH",
"401 0 LINE SMOOTH",
"447 0 OFFCURVE",
"465 16 OFFCURVE",
"465 58 CURVE SMOOTH",
"465 260 LINE SMOOTH",
"465 292 OFFCURVE",
"471 306 OFFCURVE",
"483 316 CURVE SMOOTH",
"579 406 LINE SMOOTH",
"599 426 OFFCURVE",
"609 422 OFFCURVE",
"621 396 CURVE SMOOTH",
"765 52 LINE SMOOTH",
"779 20 OFFCURVE",
"797 0 OFFCURVE",
"831 0 CURVE SMOOTH",
"1173 0 LINE SMOOTH",
"1209 0 OFFCURVE",
"1223 34 OFFCURVE",
"1211 56 CURVE SMOOTH"
);
}
);
};
layerId = "258ED206-D907-4350-8EBA-CBDDA1C16BF7";
paths = (
{
closed = 1;
nodes = (
"415 0 LINE",
"459 292 LINE",
"615 422 LINE",
"727 0 LINE",
"1163 0 LINE",
"913 700 LINE",
"1293 1034 LINE",
"913 1034 LINE",
"513 644 LINE",
"571 1034 LINE",
"185 1034 LINE",
"27 0 LINE"
);
}
);
width = 1246;
},
{
background = {
paths = (
{
closed = 1;
nodes = (
"583 662 LINE SMOOTH",
"577 672 OFFCURVE",
"579 678 OFFCURVE",
"585 684 CURVE SMOOTH",
"923 1030 LINE SMOOTH",
"941 1048 OFFCURVE",
"939 1060 OFFCURVE",
"919 1060 CURVE SMOOTH",
"855 1060 LINE SMOOTH",
"841 1060 OFFCURVE",
"835 1056 OFFCURVE",
"821 1040 CURVE",
"253 458 LINE SMOOTH",
"237 442 OFFCURVE",
"233 444 OFFCURVE",
"233 468 CURVE SMOOTH",
"233 1040 LINE SMOOTH",
"233 1056 OFFCURVE",
"229 1060 OFFCURVE",
"215 1060 CURVE SMOOTH",
"171 1060 LINE SMOOTH",
"157 1060 OFFCURVE",
"153 1056 OFFCURVE",
"153 1040 CURVE SMOOTH",
"153 20 LINE SMOOTH",
"153 4 OFFCURVE",
"157 0 OFFCURVE",
"175 0 CURVE SMOOTH",
"209 0 LINE SMOOTH",
"229 0 OFFCURVE",
"233 4 OFFCURVE",
"233 24 CURVE SMOOTH",
"233 304 LINE SMOOTH",
"233 318 OFFCURVE",
"237 328 OFFCURVE",
"247 338 CURVE SMOOTH",
"503 598 LINE SMOOTH",
"513 608 OFFCURVE",
"515 604 OFFCURVE",
"519 598 CURVE SMOOTH",
"883 14 LINE SMOOTH",
"889 4 OFFCURVE",
"895 0 OFFCURVE",
"907 0 CURVE SMOOTH",
"969 0 LINE SMOOTH",
"987 0 OFFCURVE",
"989 8 OFFCURVE",
"979 24 CURVE SMOOTH"
);
}
);
};
layerId = "91AB5BCA-6A50-42DA-B2F7-8181BF189245";
paths = (
{
closed = 1;
nodes = (
"179 0 LINE",
"223 316 LINE",
"513 592 LINE",
"767 0 LINE",
"859 0 LINE",
"577 658 LINE",
"969 1034 LINE",
"869 1034 LINE",
"239 428 LINE",
"325 1034 LINE",
"253 1034 LINE",
"107 0 LINE"
);
}
);
width = 1022;
}
);
leftKerningGroup = h;
leftMetricsKey = k;
rightKerningGroup = k;
rightMetricsKey = k;
unicode = 0138;
},
{
glyphname = l;
lastChange = "2019-04-23 05:35:58 +0000";
layers = (
{
anchors = (
{
name = bottom;
position = "{189, 0}";
},
{
name = top;
position = "{449, 1530}";
},
{
name = topright;
position = "{931, 1530}";
}
);
background = {
anchors = (
{
name = bottom;
position = "{181, 0}";
},
{
name = top;
position = "{293, 1484}";
},
{
name = topright;
position = "{667, 1060}";
}
);
paths = (
{
closed = 1;
nodes = (
"647 258 LINE",
"647 258 OFFCURVE",
"595 262 OFFCURVE",
"577 266 CURVE SMOOTH",
"499 284 OFFCURVE",
"485 326 OFFCURVE",
"485 380 CURVE SMOOTH",
"485 1484 LINE",
"91 1484 LINE",
"85 346 LINE",
"85 190 OFFCURVE",
"107 -2 OFFCURVE",
"497 4 CURVE SMOOTH",
"549 6 OFFCURVE",
"581 10 OFFCURVE",
"647 18 CURVE"
);
}
);
};
layerId = "258ED206-D907-4350-8EBA-CBDDA1C16BF7";
paths = (
{
closed = 1;
nodes = (
"461 -22 OFFCURVE",
"513 -8 OFFCURVE",
"561 10 CURVE",
"597 246 LINE",
"557 250 LINE",
"455 264 OFFCURVE",
"451 314 OFFCURVE",
"459 364 CURVE SMOOTH",
"629 1486 LINE",
"249 1486 LINE",
"71 312 LINE",
"49 160 OFFCURVE",
"33 -22 OFFCURVE",
"413 -22 CURVE SMOOTH"
);
}
);
width = 675;
},
{
anchors = (
{
name = bottom;
position = "{191, 2}";
},
{
name = top;
position = "{361, 1524}";
},
{
name = topright;
position = "{611, 1446}";
}
);
background = {
anchors = (
{
name = bottom;
position = "{251, 0}";
},
{
name = top;
position = "{251, 1484}";
},
{
name = topright;
position = "{541, 1484}";
}
);
paths = (
{
closed = 1;
nodes = (
"511 72 LINE",
"491 72 OFFCURVE",
"465 72 OFFCURVE",
"433 72 CURVE SMOOTH",
"305 72 OFFCURVE",
"291 174 OFFCURVE",
"291 260 CURVE",
"291 1484 LINE",
"211 1484 LINE",
"211 260 LINE",
"211 114 OFFCURVE",
"267 4 OFFCURVE",
"409 4 CURVE SMOOTH",
"457 4 OFFCURVE",
"485 6 OFFCURVE",
"511 12 CURVE"
);
}
);
};
layerId = "91AB5BCA-6A50-42DA-B2F7-8181BF189245";
paths = (
{
closed = 1;
nodes = (
"305 -8 OFFCURVE",
"331 -6 OFFCURVE",
"355 0 CURVE",
"363 58 LINE",
"305 58 LINE",
"253 58 OFFCURVE",
"205 108 OFFCURVE",
"223 242 CURVE",
"399 1486 LINE",
"327 1486 LINE",
"151 242 LINE",
"131 100 OFFCURVE",
"167 -8 OFFCURVE",
"293 -8 CURVE SMOOTH"
);
}
);
width = 518;
}
);
leftKerningGroup = h;
rightKerningGroup = l;
unicode = 006C;
},
{
glyphname = lslash;
lastChange = "2019-04-23 21:00:37 +0000";
layers = (
{
background = {
components = (
{
name = l;
transform = "{1, 0, 0, 1, 49, 0}";
}
);
paths = (
{
closed = 1;
nodes = (
"705 1014 OFFCURVE",
"691 1022 OFFCURVE",
"657 1000 CURVE SMOOTH",
"95 648 LINE SMOOTH",
"71 632 OFFCURVE",
"57 610 OFFCURVE",
"57 580 CURVE SMOOTH",
"57 340 LINE SMOOTH",
"57 306 OFFCURVE",
"69 300 OFFCURVE",
"109 326 CURVE SMOOTH",
"665 690 LINE SMOOTH",
"691 708 OFFCURVE",
"705 732 OFFCURVE",
"705 756 CURVE SMOOTH",
"705 982 LINE SMOOTH"
);
}
);
};
components = (
{
name = l;
transform = "{1, 0, 0, 1, 173, 0}";
}
);
layerId = "258ED206-D907-4350-8EBA-CBDDA1C16BF7";
paths = (
{
closed = 1;
nodes = (
"725 698 LINE",
"725 1004 LINE",
"93 608 LINE",
"93 284 LINE"
);
}
);
width = 818;
},
{
background = {
components = (
{
name = l;
transform = "{1, 0, 0, 1, 2, 0}";
}
);
paths = (
{
closed = 1;
nodes = (
"464 874 OFFCURVE",
"460 878 OFFCURVE",
"450 870 CURVE SMOOTH",
"0 450 LINE SMOOTH",
"-6 444 OFFCURVE",
"-10 438 OFFCURVE",
"-10 430 CURVE SMOOTH",
"-10 372 LINE SMOOTH",
"-10 362 OFFCURVE",
"-6 354 OFFCURVE",
"4 362 CURVE SMOOTH",
"452 784 LINE SMOOTH",
"460 792 OFFCURVE",
"464 798 OFFCURVE",
"464 806 CURVE SMOOTH",
"464 866 LINE SMOOTH"
);
}
);
};
components = (
{
name = l;
transform = "{1, 0, 0, 1, -4, 0}";
}
);
layerId = "91AB5BCA-6A50-42DA-B2F7-8181BF189245";
paths = (
{
closed = 1;
nodes = (
"450 776 LINE",
"450 862 LINE",
"-12 430 LINE",
"-12 340 LINE"
);
}
);
width = 394;
}
);
leftKerningGroup = h;
rightKerningGroup = l;
unicode = 0142;
},
